<mxfile host="app.diagrams.net" modified="2021-03-26T16:30:26.729Z" agent="5.0 (Windows NT 10.0; Win64; x64) AppleWebKit/537.36 (KHTML, like Gecko) Chrome/89.0.4389.90 Safari/537.36" etag="fKtNxagaptdA4eMb7F0W" version="14.5.1" type="github">
  <diagram id="lqL8UCcv2m2S0koZ6lCI" name="Page-1">
    <mxGraphModel dx="1248" dy="706" grid="1" gridSize="10" guides="1" tooltips="1" connect="1" arrows="1" fold="1" page="1" pageScale="1" pageWidth="1200" pageHeight="1920" math="0" shadow="0">
      <root>
        <mxCell id="0" />
        <mxCell id="1" parent="0" />
        <mxCell id="UInGQhhdpgO1K5RLCYIn-3" style="edgeStyle=orthogonalEdgeStyle;rounded=0;orthogonalLoop=1;jettySize=auto;html=1;exitX=1;exitY=0.5;exitDx=0;exitDy=0;" edge="1" parent="1" source="UInGQhhdpgO1K5RLCYIn-1">
          <mxGeometry relative="1" as="geometry">
            <mxPoint x="590" y="340" as="targetPoint" />
          </mxGeometry>
        </mxCell>
        <mxCell id="UInGQhhdpgO1K5RLCYIn-1" value="USER123&lt;br&gt;&lt;br&gt;MYFIRSTPROJ&lt;br&gt;MFP" style="rounded=0;whiteSpace=wrap;html=1;" vertex="1" parent="1">
          <mxGeometry x="160" y="160" width="200" height="300" as="geometry" />
        </mxCell>
        <mxCell id="UInGQhhdpgO1K5RLCYIn-2" value="" style="rounded=0;whiteSpace=wrap;html=1;fillColor=#dae8fc;strokeColor=#6c8ebf;" vertex="1" parent="1">
          <mxGeometry x="600" y="160" width="280" height="360" as="geometry" />
        </mxCell>
        <mxCell id="UInGQhhdpgO1K5RLCYIn-4" value="ami: 123&lt;br&gt;ram: 2gb&lt;br&gt;storage: 20gb" style="rounded=0;whiteSpace=wrap;html=1;" vertex="1" parent="1">
          <mxGeometry x="420" y="340" width="120" height="140" as="geometry" />
        </mxCell>
        <mxCell id="UInGQhhdpgO1K5RLCYIn-5" value="NODE JS" style="rounded=0;whiteSpace=wrap;html=1;" vertex="1" parent="1">
          <mxGeometry x="620" y="200" width="230" height="140" as="geometry" />
        </mxCell>
        <mxCell id="UInGQhhdpgO1K5RLCYIn-6" value="POST" style="text;html=1;align=center;verticalAlign=middle;resizable=0;points=[];autosize=1;" vertex="1" parent="1">
          <mxGeometry x="435" y="310" width="50" height="20" as="geometry" />
        </mxCell>
        <mxCell id="UInGQhhdpgO1K5RLCYIn-7" value="TERRAFORM" style="text;html=1;strokeColor=none;fillColor=none;align=center;verticalAlign=middle;whiteSpace=wrap;rounded=0;" vertex="1" parent="1">
          <mxGeometry x="650" y="470" width="40" height="20" as="geometry" />
        </mxCell>
        <mxCell id="UInGQhhdpgO1K5RLCYIn-8" value="" style="shape=umlActor;verticalLabelPosition=bottom;verticalAlign=top;html=1;outlineConnect=0;" vertex="1" parent="1">
          <mxGeometry x="240" y="230" width="30" height="60" as="geometry" />
        </mxCell>
        <mxCell id="UInGQhhdpgO1K5RLCYIn-11" style="edgeStyle=orthogonalEdgeStyle;rounded=0;orthogonalLoop=1;jettySize=auto;html=1;exitX=1;exitY=0.75;exitDx=0;exitDy=0;" edge="1" parent="1" source="UInGQhhdpgO1K5RLCYIn-9" target="UInGQhhdpgO1K5RLCYIn-10">
          <mxGeometry relative="1" as="geometry" />
        </mxCell>
        <mxCell id="UInGQhhdpgO1K5RLCYIn-9" value="USER123&lt;br&gt;-- MFP&lt;br&gt;&lt;b&gt;tfstate&lt;/b&gt;" style="rounded=1;whiteSpace=wrap;html=1;" vertex="1" parent="1">
          <mxGeometry x="630" y="350" width="220" height="100" as="geometry" />
        </mxCell>
        <mxCell id="UInGQhhdpgO1K5RLCYIn-14" style="edgeStyle=orthogonalEdgeStyle;rounded=0;orthogonalLoop=1;jettySize=auto;html=1;exitX=0.25;exitY=1;exitDx=0;exitDy=0;entryX=1.009;entryY=0.705;entryDx=0;entryDy=0;entryPerimeter=0;" edge="1" parent="1" source="UInGQhhdpgO1K5RLCYIn-10" target="UInGQhhdpgO1K5RLCYIn-2">
          <mxGeometry relative="1" as="geometry" />
        </mxCell>
        <mxCell id="UInGQhhdpgO1K5RLCYIn-10" value="" style="shape=image;verticalLabelPosition=bottom;verticalAlign=top;imageAspect=0;aspect=fixed;image=data:image/png,iVBORw0KGgoAAAANSUhEUgAAAq8AAAKvCAYAAABEYSadAAB94ElEQVR42uydCXiU1dm/x6Xu2ta11lZrrUtbl662Vbva9l9rrXZRu9ja5atttVSSCbsQEEVAEAVFFFcWF0RERCSZmYRsZCEJZIEskEAWCCFk39fn/z4H0iJlSzIzmXfe+76u+/rafgrJmXfO+c2Zc57H5QIAAAAAAACAEGXEmrNc//Zc7IryXuuKiP2uK8JzuyvCe6/L7X3QFemLdkV6Z1v//Tnrf19k/edllh9Y/z+PK9KTaf3nTZYl+622rDvINks5yLZD/HPVB/w5m8yfbf4O6+/Sv1P/bv0Z9GfRn0l/Nv0Zzc9q/cz6s+vvoL8LAAAAANiMkfEfc0XFXG0FvJ+43L4/WP/XbQW+WVb4e3V/INTQudOy+xDh0u527//dNu3/XV81v7sZAzMWP7FC7zWuB7zn8KAAAAAABJro+BNdIz2fdUXG3mx2H/ftjr5gudZys2VzGAbSQNlmjWGxZfy+YO+ZbPkXa3x/aIX/S113LjuBBw4AAADgqAF12UmuB+OudEX4brNCVaTL7Xl2/9foJWG6WxqqdloWWeF2jfUhYa71OoxwuX23mNfmvsyP8KACAACAw0Jq/Cmukb6vWAHpHstplitMWCKg2sEuyy1WsH3L+mAxxfrPd5ujGvrBAwAAAMD2RPguckV5brVCzkTL5ftDag8hMBzP3PoKzGsc4Z1kXnN97QEAAABCkujo463gcoUrwnOX9X9nWMZaYWYPoc7pmmfAehY80/c/G1eYZwUAAAAgqIxYc57ZXXP7pu4/l9pAUMNjtME8M/rs6DOkzxIAAACA39Db5+64r5qLO5Hexa5Iz1YCGPpX80wt3nc5zHrWqHgAAAAAx4zeKB8Ze6MVJsbtu3HubSJcYZBt2v/sjTPPIlUOAAAA4D+MWHOyK8rzPVM7NcLrswJDK+EJQ8zWfc+m9Yzqs6rPLAAAADgI7bbk9kTs78ZEWEX7hdl9z26keZYBAAAgzBgV/4l9bUI9i6wFv4rwg2FmlXm29RnXZx0AAABshl54ifTdsL8JQLZlHwEHHWLf/md+mnkPcPkLAAAgRBmx5qz9tTQXW9YSYhCN+l5YYt4b+h4BAACAYUS/Io3w/WNfIXjTk56wgnh4O817JcJ7Px3AAAAAgsW/PRe7In0jrUU40bKXQII4yOMFEZ406700xhUR/zkmFgAAAH+ii6suspHeDM6vIgbEbJfbO941KvZyJhwAAIDB4PZd4orwjNp/+YRwgRgs3d6N5r2n70EAAAA4Ag94zzHn8SJ9yeywIoZC5QLzXnzA5Y4/lwkKAABAiVh/qrU43u1ye1dZ/7eLwIAYkup78z3zXtX3LAAAgONwx33V5fY8ay2GDQQDRFvZ4IrwPmfewwAAAGFNVMz5+9uy5hIAEMPCXPOe1vc2AABAWKAdfiI8t1uL3EqOBSCG9bGClea9TlcvAACwJVoEPdIXbS1olSzsiI6y0rz3aYQAAAChjxxnLVg/thavFZbdLOKIjrbbzAU6J0RHH8/8CAAAoYOW0Yn0RbkiPVtZsBHxf7XmBlM7lpJbAAAwnER4rrEWpoWW7SzOiHgMtps5Q+cOAACAoKBf/0V6f+Zyez0sxIg4eH1eM5dwpAAAAALC/fFnuCJ8/3JFeItZdBHRb+qconPL6OQzmWgBAGDojFx7obXAzLCsZ6FFxABab+YanXMAAAAGzKjYy12RvuetxaSDRRURg2iHmXt0DgIAADgqEbFfc0V437IWkF4WUUQcRnvNXKRzEgAAwP/g9v5o/wUKFk1EDL3LXTpHAQAAuCK8P7EWhfUsjohoA1PNnAUAAA4kMu6nrghPGoshItqvQoHOXdYcBgAADiDKc6s1+aezACJiGJhh5jQAAAjTndZI7wYWO0QMQzewEwsAEC64PTdZE3siixsiOsBEM+cBAIAtd1qvc0V4V7OYIaIDu3atNnMgAADYgIj4z7nc3tep04qIjq8Tq3OhzokAABCCmDauvvnWhN3NooWI+B+7XW7Ps7SdBQAImZ3W9adaoXWCNUE3s0ghIh7WZjNX6pwJAADDgRzncvt+a03IZSxKiIjHbJkrwvM7V3T08awjAADBIsrzPWsCzmYRQkQctNlmLgUAgAAyyneZNeGuYNFBRPSbK8zcCgAAfkTPaLl9U61Jto2FBhHR77aZOZbzsAAAfsDt+SXnWhERg3QeNtLzKxYeAIBBhVbvFyw9LCaIiMHW5zVzMAAAHAP3x59hTZqzrAm0iwUEEXHY7DJzsc7JAABwGCI8t7sivBUsGoiIIdNqtsIKsXewQAEAHEhkzKetSXIlCwUiYqjqedfM1QAAjiY6/kRXpG8k3bEQEW3TpWukmbsBAJx3RCD2a9ZEmMVigIhoO7PMHA4A4IzQqjVbzYWsHhYARETb2mPmcmrDAkB4B1fvty2LmfQREcPmQlexmdsBAMKKqJjTXZGeedZE18tkj4gYdvaaOZ6yWgAQFkTG3mxNbKVM7oiIYW+pmfMBAGzJ6OQzrYlsgWUfEzoiomPsc0V4nzNrAACAbRgZe6M1gZUwiSMiOtYSl9tzEwsiAIQ20ctOckX4HqOSACIi7lsLPNPN2gAAEHJExVztcns3MlkjIuKH1LVB1wgAgNDYbY0+3hXhdVsTVDuTNCIiHsZ2s1bomgEAMGxE+C6yJiMfkzIiIh6jcWbtAAAYhuB6mzUJ1TARIyLiAI8R7HVFxv2chRQAgsOINSdbk89TlMBCRMQhldTStUTXFACAgOGOuYpLWYiI6NfLXLq2AAD4nUjPX6yJpoXJFhER/WyLWWMAAPyC9qqO9C5hckVExAC7xKw5AACDRuvyRfoKmFARETE4WmsONWEBYJDHBP5oTSStTKSIiBhkW10R3ntZiAHg2NCbn27Ps0yeiIg4zC6gGgEAHJl/ey62JosNTJiIiBgibjBrEwDA/x4TiL15X+FoJktERAy1pgbWGgUA8N/g6htpTRDdTJKIiBiidrvcnggWbACnEx1/ijUhLGZSREREm7jYrF0A4MTd1phPc74VERHtpyfTrGEA4CAivN+2JoBqJkBERLSp1WYtAwAn7Lh6/27ZxcSHiIg2t8sV4fsHCztAuHLnshOsN/kTTHaIiBhW6tqmaxwAhBHaK9rtXcUkh4iIYVpOa5VZ6wAgDNDizm7vRiY3REQMc3NpaABgdyJ811tv5iomNEREdIhVZu0DABvi9v7aehO3MZEhIqLDbDNrIADYacfV67bevL1MYIiI6FB76cgFYAf0tmWkby6TFiIi4v5KBNHRxxMQAEJyt3X9qdYb9R0mK0RExAMrEfjedI1YczJBASCkguvas603aBKTFCIi4qH0rXONTfo4gQEgFND+zpHezUxMiIiIRzTfrJkAMIy4Y65yRXgrmJAQERGP5QystWaO9HyeAAEwLME17qvWG7GGyQgREXFA1rgiYr9GkAAIJlGe71lvvkYmIERExEHZZNZSAAgCEb7brDddOxMPIiLikLTW0rifEywAAkmk9x7LbiYcREREv9ht1lYACEhwfcCyj4kGERHRr/a5Inz/ImgA+PWogGcUkwsiImIgKxFYay0A+GXHdRyTCiIiYhB0e8cTPACGFFw9k5lMEBERgxpgpxBAAAa34zqNSQQREXFYnEYQARjYjuvjTByIiIjDugM7i0ACcCxEeJ9k0kBERAyFS1zWmgwARzwqMJvJAhERMaScTUABOPSO66NMEIiIiJyBBbDDGVeqCiAiIoa01loNABZaU45JARER0Qb6JhBcwOlHBdxMBIiIiLYKsFEEGHDq5awHmAAQERFt6QMEGXDaUYHfWw9+H29+REREW9pn1nIAZ+y4xv3ceui7eeMjIiLa2m6zpgOE+VGB71u28oZHREQMC1tdUb4fEHAgTC9nxX7NesgbeKMjIiKGlQ2uCN/1BB0IszOuMVe5In17eIMjIiKGZQWCPS639wsEHggPRsd/yhXhreCNjYiIGMbqWq9rPoCtGeP5qPVA5/KmRkREdIS5Zu0HsCXRy06yPoX5eCMjIiI6agfWZzIAgL2Q46wHeAlvYkREREe6xGQBANsQ4XuMNy4iIqKTd2CtLABgCyI9/+RNi4iIiK5I3xiCEYR6cP2V9bD28GZFDI4nRPnkI6N8cvLoODnF8tQxcXLa2Hg53fKMcfFypuVZ49fJxyask09EJ8pnHkmWq6anytfmZMh3n8mSnzy/UX7xco78fkm+3LesQCJWFsu497fJw7GlMjNuh8xLqpCFaTvl1Q275PXs3bIid4+s3lIjMYW14ttaJ+u21UliSb2s394gqTsaJL2s8T9mVjQZM8r/+7+lWeo/m1Rab/7dOOvPiC2qlfe37DV/9hsbd8vizCp5wfo7n0mukFnxZfKIZ7s89EGJuFcVyz+WF8gflubLL1/OlZ8u3Cjfn58l1z+ZIV+YkSqffTRFPjk5Sc5+KMH8zvq76xicvn88dFx0jHSsdMx07I5z8wwhBtg+V4TnLgIShCZRcd9w0T0Lcchh9KRR+0KoBi4NYedMTDDB89MPJ5uQ9s2nNsgtVuj8nRU4R6wokikxpTI3qVxeTN9pAubKvD3yQcFeibfCoQbKnF3Nsm1vm+xu6pTG9m7p6O6Vvj4JK7p6+qS5o0eqmzultLZN8qqaTVjWgLy2cK+8m19jgvHLGbtMKH7Uu11GriySP762WW57cZPcOC9Trnk8TS6emiwXWgH4XGvMP2qNvYZffS008J5I2EUcrK0mIwCEFFrXLdK7izco4pHVHT8NpBpGL30kRT5vhdFvzd0gt7+UI39/q0BGvbfV7Ho+kVAmz6dWmsClO5waxiobOqStq1cgMHT29JqAX1DdIgkl9fJWTrXZAX4qsdyE3bGrt8n9bxfKr17JlW8/nSlfnJkql+3f7dWdbf3QQbhFPKxV1ICF0OH++DOo5Yq4T90t1TCjofQbT2aYHVLd3dPQM2b1VhOCdPdPvyrPr2oxO4W94bYN6hBqW7ukaE+r2eFeklUlM+J2mCMX/36nSP78xmb5+f4d3atnppldc/3QQrhFx9eAHbHmLIITDC93LjvBFel5lzckOsXj3T45f1Ki2XXTM6N67vLuRXnmvOjU2FLz1b2eB928u0Xq27pJeA5HjzJsrWkzAXdR5r6A+4D1Qea3i/PMcYUfzM+SL81ONx94dOeW9xiGv1Zm0OwAMGxE+J7gjYjhqH4NrOdLb5qXaQKqni8d//4281W+XljSc6R7mjvNV80Ag6G7t898wNlifdDRDzy6Iz85plTufX2z/OyFTebD0XWz0syHJd6TGGYBdg4BCoYruP6DNyCGQ0j93LQU8xX/na/mmjOnGlD1wtPGyibZXtsue1u6zIUggGCgp0jqrFBbVtduzjp7i2tNtQetuKBVIfQD1ZXT18t5hFq0dw3YfxCkIMjB1ftt6+Hr5A2IdlLPHOr5Q/2aP3ptibyWvduUedKQql/t1vE1P4Q4TR09ppqC7vynbG8w5cUe8203u7VffSLdlAnToy2839EGdrrcvu8QqCCIlQV8e3jjYSiri7h+7arlkF5K32V2r7IqmqS4ptVctAEIJ7QEWsneNvNBTCslLM2qkglrtpk6vlrZgjkBQ7SBwR4qEEDgue+906wHbgNvOAy1oPrDBdky8YMSs2hrUNVzhFr2iNJS4FT0PLaey9ZvFTTQag1grXahVRD0ghhzB4bI+ddMky0AAkak91XeaDicasH4L89Ol7sW5ZmdJS0+r+dS9eILl6cAjoye3dZdWq0ZrJfEtELGPUvz5Ya5G8yxGuYYHJ7zr55FBCwIUHD1jeRNhsEsSaWlg/SmtbYy1QVWy1AVVrdKS2eP6RKlt7UBYPD0WO8h/dCn31DoBTFtzPDP5YUmzGptWm2nq13fmJMw4Lo9EQQt8HNwjb3Zerh6eINhoNTWm/2dp7RXfcTKYlmVX0MRf4BhQN9yDe3dpj6tHsfR8+OfmvLfTmLMWRgAe1wjPT8kcIF/+LfnYi5oYSB2VnUh1AVRy1RFrSo2Xaf060wACD30/GzqjgbTvvh7Vpi9eGqynDMxwbQ8Zk5DP1njcvsuIXjB0IhedpL1MKXyhkJ/eNrYeLnICqvffGqDuK2wumxTtelEBQD2Q6sbaMMO3ZnVMHuJFWbPGBfPXIdDNd1kD4AhnHOdyxsJh6IuZtolSHu9P51cIb6tddLezcUqgHBDd2UXpu2UESuKzNEfrQLCHIiDrEAwjwAGg60scDdvIByMWobnluc3ytjV20w/dy3VAwDOoaqp01z+0na3v3olVy57NIW5EQdYgcD7G4IYDAx3zFXWw9PEGwiPVW1X+bsl+aaOpKeo1nQCAgDQ8lzrtzfI7HVl8pc3tshXnkhnzsRjsdlkEYBjYl8jgs28cfBofmFGqilh9WRiuelexXEAADgSWjlEG4ho17u/vrnFHC9gLsUjuNkVFXM6wQyO5bjAEt4weDjPHBcvd7yUIy+k7TSXrbTgOQDAQGnt7DFHipbnVJsz8RfQxhYP7RKCGRztgtafeKPgodT2q69k7JKcXc1S09LFygsAfkM/BOuH4bdzq+XuRXly8mhqyeKB5199fyagwZHOubbwRsF+vzQ7XeYklEtmRROBFQCCgjZHyKtqNkcLbn42m7kYxWQTzr/C/zBizcnWw5HNG8TZHufeVylg5MoiWVOwV+rauk37SACAYKNdvvTip3b5mrS2xFwK1TmKudqp7WO9G01WATjgnOtTvDmc66lj4uT787Nkum+HlNe3E1gBIKTQi176Yfr51Eq5/aUc+ej4daZLH/O30/TNJbDBPiJ8t1kPRR9vCmd5YpTPtHf89Su5ZpcVAMAupJc1yt+WFcgVj62XUzgf6yT7TGYBhzM69pMut3cvbwhnVQu4emaajHpvq2yvbWcVBADboruxs+LLTMmtcybS0cshxwf2WgH2IgKcU4mOPt56EOJ4MzjDc62J/bvPZJkSV1qiBgAgXNDzse/k7TGd/T41JYk5P/yNMxkGHHnONZI3gDNC689e2GRK0BBaASDcQ2zc1jq59/XN8umHk1kDwttIgpzTiIq52nrh23n4w/sSlna/Wpm3h9AKAI7DZ4XYiJXFND8IX9tNlgGnHBdYdpIpOcGDH5bq5YXfLcmXZZuqTU9xAAAnE1tUK/9cXkiIDU83mUwDjjguMI0HPjxrtP7i5Rxz7qu5g51WAIB+tPyfHifQCgWnjY1nzQgrPdMJduHOyNgbrRe7h4c9vLxh7gZ5LXu37GnuZJUCADgMLZ098kHBXrnjpRzWjvCxx+X23ETAC1fujz/DepFLeNDDR72Q8Exyhexs7GBVAgA4Rva2dMmbG3fLdbPSWEvCwxLX6OQzCXrheVxgAQ94ePiRUT4ZsaJIyuraTecZAAAYONXNnTIzboec/RA1YsPABQS9sAuusTfTRcv+ajtEbeOaVFovnT29rDwAAENEz8Nu3t1iqrOcEEXLWVt339KsA2F1XKCUB9ve6s7AdN8OaeIyFgCA3+m2QuwrGbvk8mnrzQVY1h1bWmoyD4TFcYGneKDt64lRPvnRgmxJK2tkdQEACDA76trlN4vzqEpg3+oD8wh+dkdv4EV6e3mY7dsda8zqrdLezREBAIBgMi+pQi6eSpcuG9pL9QE7E7H+VFeEt5gH2Z5+YUaqqdkKAADDQ3pZo9z8bDZrkt3U7KMZCGx5XGA2D7E9/fUruVJQ3cLKAQAwzNS0dMk/lheY7oWsT7ZyNkHQdruusV+jGYE9z7fqMYH6tm5WDACAEEFbbWtN7Y9PWMdaZafmBZqFwCbcuewE60XL4sG1l6eOiZPnUitN2RYAAAg93ttcY5rDsGbZxiyTicAOxwV8I3lg7eV5kxJleU41KwMAQIizfnuDXPM4nblso9sTQTAM+eAa82nrxWrmgbWPeptVe20DAIA9yN3VLNc/mcEaZg+bTTaCkL6ktZIH1T5eYgXXuK11rAQAADajaE+rfGvuBtYye9R+fZeAGLI1Xb138IDa66iAj+AKAGBbCqtb5cuz01nTbFE+y/cLgmKoMTr5TFeEt4IH1B6ePDpO3s2vYeYHALA5WRVN8tlHU1jbQr/2a4XJShBSu66zeDjtE1wXZ1Yx4wMAhAkJJfXyiehE1jhqv8IxExVztfWCdPNQ2qeOK+1eAQDCi+dTK2lkEPp2m8wEw40c54r0reOBtIe3v5RjurUAAEB40d3bJw++UyQnRPlY70JaKzNpdoLh7KTl+R0Poj381JQkya5sYoYHAAhTdjZ2yA1UILDB+VcrO8EwcX/8GdaLUMmDGPrqV0kz43YwswMAhDmr8mtoIxv6VpoMBcNS03UaD6A9/MH8LGlo72ZWBwBwAH9+YzNrX+iXznqMIBn8S1qXWoPfzgMY+p4xLl7eovUrAIBjyK9qMU1oWAND2g6TpSCYZ119b/Pg2cOfv7hJOqguAADgKP61otBUmGEdDOnd17cJlEGr6er7Dg+dPTx9bLwsoqYrAIDj0Au6Zz+UwFoY6mqmgmCUxvJm8MDZw68+kS5tXey6AgA4jb4+kd8vyZfj3KyFIe4GSmcF/pLWPTxo9vCkUXHycGwpMzgAgEN5c+NuOXUMjQts4D0EzICdc11/qjXAZTxk9rmo5dtax+wNAOBQSmvb5NyJHB2wgWUmY0Egzrp6x/OA2ceLpyZLbSvdtAAAnMz/e24ja6I9Om9NIGj6mwe9F1iD28jDZR/veCmHWRsAwOFM9+1gTbSHjSZrgV/Pui7gwbKXj3i2M2sDADic2KJa1kT7uIDA6S9G+S6zBrSbh8pe0pgAAAA2VjaxJtrHbteo2MsJnn7ZdfUt5YGyn0ml9czaAAAOp6C6hTXRVnpeI3gOObjGXWcNZi8Pk/3MrGhi1gYAcDhba9pYE+1lr8leMJTyWN7VPEiEVwAAsCfb9hJe7dc21speMNjSWJ6beIgIrwAAQHjFYLeNtTIYDKrCQBIPEOEVAAAIrxh0kwiiAz/r+lMeHMIrAAAQXnG4tLIYDGjXdQMPDeEVAAAIrzhsbiCQHitRnlt5YAivAABAeMVhVjMZHNOuazoPDOEVAAAIrzjsZhBMj1phwHcLDwrhFQAACK/I2Veb1HX1pPGQEF4BAIDwiqFS99XKZnDYhgQ/4SEhvAIAAOEVQ63uq+8Wguqhz7qm8oAQXgEAgPCKIWcqQfV/zrp6f8SDQXgFAADCK4bq7quV1eBDu65xPBiEVwAAILxiqOrzElj/E1w93+SBILwCAADhFUN+9/XrBNd94fVdHgjCKwAAEF4x5F1OcHV7v2ANRB8PA+EVAAAIrxjy9lpe4fSzri/zIBBeAQCA8Iq2caFzg+vo2E9aA9DJQ0B4BQAAwivaxk7XyLUXOvWs6+M8AIRXAAAgvKLdtDKc47g//gzrl6/nxSe8AgAA4RVtZ73Jcs66qOUZwQtPeAUAAMIr2rVslpXlHEN0/InWL13CC094BQAAwiva1jKT6RxBhOcuXnDCKwAAEF7R5mqmc0Z49cbzghNeAQCA8Iq2bxm7zgkVBr7MC014BQAAwiuGTeWBL4d7R61XeJEJrwAAQHjFsPHlMA6u8edav2AbLzLhFQAACK8YNraZjBeeRwZ8Y3iBCa8AAEB4xXArm+UdHYblsaKPt3657bzAhFcAACC8Yti53WS98Np19f6MF5bwCgAAhFcMW38WbuWxVvOiEl4BAIDwimFbdeD9MLqo5bvE+qV6eVEJrwAAQHjFsLXXZL4wCa9TeUEJrwAA4Dy21hBenXVxy8p89r+oFX+i9cvs5AV1ninbG5i1AQAcTkF1C2uis9xlsp+9z7p6bueFdKbv5O1h1gYAcDgbK5tYE52mZj+bVxlYyQvpTGfG7WDWBgBwOHFb61gTnedK+wbXqJjzrV+gixfRmd69KI9ZGwDA4TyZWM6a6Dy7XQ96L7BrR60oXkDnetmjKdLY3s3MDQDgYG5/KYc10ZFaGdCmRwbyefGc6xnj4iW5tJ6ZGwDAoexs7JALJyexJjrTfBte1PJdzwvnbE8eHSdzEsqZvQEAHMq7+TVy2th41kTHXtyysqDNjgzM54XDG+ZukK6ePmZwAAAH8rdlBXJClI/10LE1Xz3P2mjXdf2p1g9dzwuHZ41fJytyKZkFAOA0Cqtb5aIpHBlwuA0mE9rkrOvdvGB4YNWB3j52XwEAnMTY1dvkI6PYdUUrE9ojvHre5cXCfj82YZ3EFtUykwMAOISyuna5anoqayCKyYShf2Rg7dnWD9vJi4UHeuvCTdLW1cuMDgDgAB54u5C1D/vtNNkwpHF77uOFwoM9fWy8LEzbyYwOABDmJJbUy/mTEln78MCLW/eF+nnXOF4oPJRfmJEqxTWtzOwAAGFKfVu3/Pi5bNY8PLhhwbrQDa6jYz9p/ZC9vEh4OP/0+mZp7uhhhgcACEMmx5TKSaPiWO/wYK1sGPPpUN11jeQFwqM1LpgVX8YMDwAQZmhDAu2syFqHh25Y4BkVqlUGMnmB8Fhqv67eUsNMDwAQJuTuapYrHlvPGodHMisEqwzEf44XBo9VLVydXFrPjA8AYHNK9rbJjfMyWdvw6I6KvTzEqgx4R/PC4EC8emaa5Fif1gEAwJ7sbOyQ217cxJqGx3pxa0yonXfN4EXBgfqVJ9Jl8+4WVgAAABsG1zteymEtw4GYETrB9d+ei60fqI8XBQfjNY+nSX4VARYAwC6U17fLLc9vZA3DgdrncvsuCZFdV99IXhAcinrQP2V7AysCAECIo2dcfzA/i7ULB9uwICJUjgwk8YLgUP3UlCR5O7ealQEAIETJKG+UbzyZwZqFQzn3mjz8wXXk2gtpTID+LKM1J6Fcunv7WCUAAEKI5TnVctmjKaxVOPSGBZodh7dElvd+Xgj0p8e5vfL3twrMmSoAABhemjp6ZGpsqXx0/DrWKPSXDwx3Y4IYXgQMhD9akG2+ogIAgOFhR1273LM0nzUJ/W3s8AXXMZ6PWj9AFy8CBsrPPpoiC9ZXsoIAAAQZ7YSo5QxZizAAdpkMOUxVBu7kBcBAq72y71qUJxUNHawmAAABpqWzRyJWFst5kxJZgzBwRnjuGq7wupQXAINZTuuVjF3Sx10uAICA4C2uleufzJATo3ysOxjoqgNLgx9c71x2gvWX1zL4GExPHh0nv1mcJ7m7mgmxAAB+QOfSXY0dMnJlkZw5Lp61BoNlrcmSQcXtuYmBx+HywslJ8mRiuext6WLlAQAYJM0dPbI0q8p0OmRtwWFoWHBTkEtk+R5j4HG41a+39FJBfVs3qxAAwDHS1tUryaX1cvtLOawlOIznXq0sGeSuWpsYeAwV73w1V5KsiVgvGgAAwKHRBjB5Vc3y4DtFpqY26wcOs7nB7qrVx6BjKHm82yf/XF4oaWWN0tnTyyoFAHAAeldgckypfHwCzQYwhAxaty237w8MOIaq509KlH+tKJTMiiZWKwBwPFtr2uTh2FK5fNp61ggMwXOvVqYM0pGBxQw4hrpXTl9vahWu397A6gUAjmPL7haZElMq33xqA2sChrKLg5Bc5TjrL6pisNEuXvZoivz7nSKJKaxlNQOAsCe9rFEmflAiX55Ndyy0hVUmWwa2yoDnGgYa7egnJyfJH5bmy8q8PdLTS5FYAAgv4rfVmYtYn5uWwpyP9jLKe22gjwxEMtBoZ7Xl4Y+fy5aX0ndRJxYAbI2WvHo7t1p+/UquXDQliTke7dptKyrQ4fUDBhnDQe0koy1n9eu1oj2trIIAYBsqGzpMo5avPJFO9QAMBz8IXHAdseZk6y9oY5AxnPzIKJ+cMzFBbl24SdYU7JWObspsAUDo0dvXZ0oB/vG1zeYY1Cmj45jDMVxsMxkzIER5vscAYzh70qg4uW5WmkxYs00Kq1tNkO3jeCwADBNas7q8vl3mJJTLt+ZuMIGV5gIYpn4/QEcGfNEMLjrpWMHPX9wkz6dWSkVDh7TSvQsAgoB+aN7T3Clvbtwtv1+SLxdEJzInoxPOvUYH6rxrHIOLTvTiqcnyj+UF8lZOteyoazctFgEA/IV+w7OrscOU9Bv93la55vE05l50mnH+D67Ry06y/uBWBhed7udnpJrC31qWRjvXEGQBYLCUWR+GU7Y3mMtXN8ylmQA6/NyrZk2/MjL2RgYW8b/qubNrH0+T8e9vE29xrTkj29VDkAWAI1Na2yZJpfUyzbtdbpyXKSdz8Qpxf6tYz03+PjIwjoFFPLSnjokzJWv6jxYUVLdwRhYADPrtjAZWrWYStarYBNazH0pg7kT8X8dR3xVxmCoWfG1OhikaPjNuhylt0075LQDHBdb8qhaZn1JhLl1pYP3oeOqxIh7Ftf4LrncuO8H6A5sYVMSBe/m09fKT5zfKA28XytKsKtnZ2MHKDhCG1Ld1y7v5NebC1W0vbjLHio53+5gHEY/dJld0/In+Ca8RsV9jQBGH7scmrJOvPpFudmImrS2RVdZC18LxAgBbohUCEkrq5VHvdvnLG1tMHdbzJ1HWCnFo5169X/fXkYEHGFBE/3pClE/OsxY6DbN/W1Ygs9eViW9rHWdlAUI4rKaXNcrTyRXy73eK5KZ5mabTlXbpY05D9NulrRH+Cq+LGVDEwKqdc7RNrdZ31DD7Uvous6tT29pFagAYBvRbET2zrsd93KuK5fonM8zO6mlj4zkOgBg4F/spvHq2Mpg4mFJSjMPg1IVRw+wZ4+LlU1OS5Jcv58q8pApJ3dFgun1pB55e+tYC+G1HVcvcVTd3SnZlk7y6YZf88bXN8rlpKabTnlYT0W9KmJsQg6GVOYfMiDXnMZA4GP/0+mb5+ARu1/oz0OoCqoupVjOIWFksb+dWmxI8TR095rgBdWYBjoxWAWjr6pVm6z2jlyfXFu6V6LUl8t1nsuTciQlyovUeY1fVf+ou9e0v5TAWODA1ew7tspbvNgYSB2NxTavpHPOD+VlmQWBMAqOW3/nGkxly16I8mfjBvktg2vmrpqXLfO3Z2UOZLnBuUNUPdXr0RjtZaTORx3zb5Q9L8+U7T2dyuSrAfmFGqvmAXdnQwXjgwNTsOcQjA48wkDgYN5Q3mgVEdwVHvbdVLpycxLgEMdDq4vz3twrMrtIrGbvM67G9tt2U8+mhpS2E4Vf/OteU17fLxsomeWPjblMFYMSKIlOqjvknuFVV9Js3/VZIKdnbxrjgAC9t+aYO9bJWLAOJgzGzoulDi4vepP/xc9mcHRvG5gl6GUzLdE2JKZVnkivMrojentbFpbG9mwQEtrlItaOu3cwx+k3D86mVptXqX9/cIl+fk2G+quY9Pzzq+C/JqvrQ67WN8IoDN3bwwTU6+njrD2hgENEf4VXRi0bTfTvkullpjFGIqOeS9diBfpWqoVarHGihdf2wkbOr2Vxi4W4YDAf6df+W3S2ybludvLe5RhZlVpn54/+skPrtpzPlgmi+9g8VL56abM7h7zpEExbCKw7CBpNBB4U75ioGEP0ZXvvZbC1I/1xeaOqcMlahWSlCv/r74sxU+enCjeb4gYaG17N3ywcFeyWptF5yrWC7u4lgC0MPqDof6Pn4mMJaeSunWp5MLJd/rSiUO17KkS/PTjfzBOfmQ9OTR8fJ75bkS7z1AeNwEF5xUD4Yd+UgL2t5fscAYiDCq6KlnmKLauVnL2yirJaNjh5okPjMI8mm9aVexvvt4jzTDlNLeekxhPVWCNGe7vq1bl0bRxGcjh5H0fJuBdUt5oiKfs2/YH2lPPRBidz7+mb5f89tNAH10kdSzE6qlqXivWYPb5i7wdTAPVpjFcIrDu7SlpVBB3nedTYDiIEKr/1UNXXKa9m7TRhi3OxdykubLFz2aIpcPTPNdA7Tr3b1w8k/lheYIwkL03bK6i015kKNfr2owUaPkoB9b/NrySndgdcPLLpz+nLGLnP+VDtQ/eLlHFOCSs9B6nnry6etNzf86Uhlby+akmR2x/Ws/LFAeMXBXdryzhrkzqs3ngHEQIfXfrS8k+7ecSs4fI8iaNMF3V3TgKth5itWwL1xXqb8cEG2CTp6lER35LT95vKcanM8obC6VfY0d5qgBMG7ua9f52s40cYYK/P2yHOplTLZ+gCiX+ff+WquuXyp7VH1Q8q1+4OpvnfPGr+OS5lhqu6KT1izzZyFHwiEVxzczquVQQe588plLQxaeO1fNPXrxYdjS6nB6FD1bOPpY+Pl7IcS5BNW0NWLINrpSEPS957Jklue32g6juk5u7+8scWUQtJQpR989JaznsnVr6f1OdKvq/XoghObN2jY151tLcRftKfVvB/1mI6eW56fUiGPeLabCzZ6+emepfny61dy5daFm+T78/ftlF45fb05HqKBVHfU9YMHO6bOVLv96YeWLOsZGkzdaMIrDvrS1oCJirmUgcNgh9d+NGzop3udMLVmKeOJh9vN1V0+PYuru0IasPR50eCr3ZJ0l1fPUurFM+1Lr2d0b3txk9y9KM+Etsh3i81OrxaufyqxXJ5NqZQX0naaurgahLVWqJ7j1eoLettdg7F+Na7F7vWCSkJJvdkdTrbUHUoNzWpGeaOpq3uw+r/r/1//Wb2gpP+u/hl6m16rO2i41I5PerRC/84VuXvkTetn0HOF2rL0xfSd5rzo3KRymRm3w9TwjVpVbC7UaZjXTkY/WpAt33xqgzm6oTvcGj71nLKOiV7CO2N/u1MdMx07zpvj4dSSY7rLrs+3diUbLIRXHLSaRQdWacB7BwOHwxVeDwyxWipHg4YuvCy06O/gq+pur+4qqhrq+tWb1P2ecgg1BPrLg//sA//uA3+m/p/zxP0/+wn725ny3kB/qd98aKUHDa3+OJNOeMUhnHu9Y4BHBnzRDBwOd3g9EO3WojtMXPhARPT/hzndndez5/6euwmvOHitLDrA864rGDQMpfB6YIgd9/42uWRqMp10EBGHoG4EaPUA7U6mVUACAeEVh+CKgR4bKGTQMBTDaz9aR1TLtehZxrM4F4uIeMzqcZTPz0iVSWtLTMORQEJ4xSFYNIASWetPtf6FHgYNQzm89lPf1m1amuolHNpFIiIeXv2gr40h5iSUy/ba9qDM0YRXHII9JpMeEyN9X2HA0C7h9UD0RviD7xTJdbNoeICI2O9nH00xpeW0ikbLUTpiEV4xtC5txX31WM+73sOAoR3Daz95Vc0yI26HqQfKkQJEdKJakUKbSWg5OC3NNlwQXnFoev54rOF1GoOFdg6v/TS0d8uagr3ywNuFpn86rwsihrtXPLZe/vT6ZlMjWNswDzeEVxySEb7HjjW8vsOAYTiE1360K4x2GdKzsboTQaktRAw3tTPa7HVl5pun5o6ekJl/Ca84RFcea43XAgYLwym8HkhVU6fpdDQrvky+xG4sItpYbeE7Yc02SSypNxVYQhHCKw7tzKu38OjB9b7Mj1j/cDcDhuEaXvvp6e0zX6lpm08tF3P5tPW8bogY8mpVlREriuT9LXtNxQD9ZimUIbziEO022fQoRwauYKDQCeH14Da01c2dsjynWkauLDI94Wm3iYihoM5FGli1WsArGbtMo5b27l7bzK+EVxyyD8ZdeZTwGvdTBgqdFl4P3pGtbe2S17J3m64zX5yZanrPE2YRMVhqE4FLH0mR3yzOk4VpO6WioUO6rbmpr89+cyrhFYeulU2P3FnLM4JBQieH14Pp6O6VVfk1Jsh+5Yl0OXdigilBw2uMiP7cXf34hHXyhRmpJrDqDqtWSwkHCK849HOvVjY9ymWtuQwUEl4PT3pZo4xZvVVumLvBFP4+c1w8rzciDthTRsfJJVOT5avWh+J/LC+QmMJas7sabhBeceha2fTI4dXzPoOEhNdjQ8+e6Vd6dy3Kk2seT5OLpiRxvAARD+v5kxLN7urPXthkKp7kV7WYM/fhDOEVh66VTY9yYauIQULC68Apr28XT1GtTI0tlZ88v9FUL/go3b0QHe3pY+PN2dXvPJ0po97bao4gFde0OmpuJLyiHyw6fHC9c9kJ1j/QxSAh4XVo6E1gPV6gHW4mflAit1hh9lNTknguEB3geZMS5fvzsyTy3WJZnFklSaX1UtfW7dj5kPCKfrDLZNRDEhVzKQOEhFf/o9UL1m2rk3lJFfLgO0Vy24ubzBEDnhNE+3vOxAT54YJs+efyQpkRt0PWFu6VnSHQlpXwimGlZtRDMtLzQwYICa+BZ09zp6zf3mDa1Wpd2V++nCufn5HKc4NoA/WS1a0LN5lLVs8kV0hCSb0pZdXXx9xGeMXAhVffDw4dXiN8f2aAkPAaXLQ7Tk1LlxRUt8jqLTUyJaZUfv7iJrluVpqcxZlZxGFVazzrBav/99xGGf3eVnkrp1pydzXL7qZOaevqZQIjvGKw1Ix6mDJZ0QwQEl6HFy2Vo2G2rK7d3ETWZgn/fqdIrn8yw9xUPt5NjVnEQB4B0A+O2s3qhbSdkmXNY9qCVTvwdXQTVgmvOHzh1TvpcJUGFjJASHgNPXSHRwOtfjW5sbJJlmRVyb9WFMo3rEBLRQPEwXna2Hi59vE0+fMbm03JO71kqVVDNKi2dPYw8RBeMbRceLgarzEMDhJeQx89W6fHDZo7esyuUJq16L6dW20qG+jXm3oZ7COjfKYT2AmW1J5Fp6nPvD77+h7Q94JWAPj205kSsbJYlmbtqwCgJauarPeQ7qj2cmCV8Iqh7trD7bxuYXCQ8GrvUKuLsJbl0UC7bFO1PJ1cYXZpv/tMlgm12hFMO/vogs4RBLS7+gzrs3yy9UyfYT3berRGv5HQds5PJJTJGxt3m6CqZ1R7evu4VEV4Rfu6+XDhtZnBQcJreFc50IV8wfpKmRxTKve/XWhuTV81PVUunJwkH5uwTk4aFcdOLYakGlL1EuMF0YnyuWkppjzV/1kh9aEPSmRuUrlpElLZQIkqwiuGqc2HqDSw9mwGBgmvzj1Tq5fDludUmw5hGmp/szjPHEHQM4GffTTFfO2qO7Y82xhI9cPT2Q8lmHJUX5yZKj+YnyW/fiVX7ltWYEKqfuWvl6ga2rt54xJe0WmOTfr4QQ0KvNcyMEh4hYNptEKCBtt382tkTkK5OTOodWlvnJcpX56dburTarjV3TAtK8Szj0cLp+dOTJDPPJJsdvz1Zv83n9pgGnfo8RYt8q/HXTSganMPILwi/rfWq5VVP7zz6v0JA4OEVzhW9LKY3szWYKsNF7Rne/9xBP0qV8OIXpC5emaa6e2uxxI+PmEdATeM1XOnevTkE9YHGQ2nWh/1W3M3mPbI976+Wca/v810mVuRu0eSS+tNvVS9cFjfxi4q4RXxmGq9/pgGBUh4hYDR1dMnVU2dkmMFFD1nG1NYK+/k7TFf++olsklrS0yHorsX5cmPn8uWr8/JMOcYdVdOA67eEud9FDqXovTIiH740A8iX3kiXW5+Ntt8na8XozSU6q78oswqU/Xig4K9putUdmWT+YBDMX/CK+8j9FOt13s/HF7d3vEMDBJeIdi0d/eam+CF1a2SUd5oLt3oEQU9f7vYCkNaf1Mv4+hZXD2yoLu6d76aKz9akG2+btbdPa2i0H/ZjPfekdUPBXrpSXfCr5y+3nxo0CCqR0G03qk2xNDd8ycTy+W51EoTSPVr/JXWB4+1hXsldUeDbNndIjsbO6iFCoRXDHZ4dR98bOBJBgYJr2CHsKulwPRWuS6KeVXNJvTq7q4GX/1KWkPvi+k7Td953RGc7tthwq/u9o57f5tErSo2l9I0rOnFNG3Hq7u/33k603Qy03OYGuz0LK8GYy2/pJeINPSdPnZfqTENgf4oNXZgqSctmq+lzHSHU//OT1oBU79+v+Kx9XLN42kmaN40L9MEdz2WobvW+nW87mC7rd9Jfzet9fuw9bvq7zx7XZnZ5dYPAK9u2GVam2oATSypN6XUdFdca51q84u9LV3SaoVR6p0C4RVDVrd31sFlspYxMOhPN1iBAiCU0FymtT71SIMGNb2MpkFYOyrtauwwX3HrGUxdbIv2tJodRj3Tq2czN+1sNl+D63OtwU/PbGoIjN9WJ97iWhOc9WiEfmXe75r9Hvi/6T+j/6z+O3Fb68zX6/pn6Y6mhnD9O7SLmgZLDeb6M+iu9NaaNvOz6c+ou576M+uFJv0ddAdUm1bo70b4BMIrhrGvHrzz6mNQ0J/qThgAADibguoW1kT0l7EH7bz68hgU9Kf69S0AADgb/TaBNRH9dGxg48HHBnYzMOhPtV4jAAA4G9/WOtZE9JdVB4fXbgYF/eldi/KYtQEAHI5emmRNRD/Z/d/gOjr5TAYE/e3l09abSzEAAOBc7ngphzUR/eeINWftr/Hqu4QBQX+rJYW08xIAADgTrYqhNYVZE9F/516tzLrvyEDcdQwIBqKHudaZBAAAZ6INR7QuMmsi+k8rs+4rkxX7XQYDA+ENczfQGhIAwKFoR7wTaPWMfu2yZWXWfeHVczsDgoE6OqCfvAEAwFlo9zbtUMdaiP4Nr1Zm3d+g4F4GBAPhcW6vaWEJAADOQlsVs+uK/g+vVmbd36BgJAOCgfKciQmmRSYAADgDba/8+RmprIEYiEYFD+4Pr57JDAgGUi2VAgAAziBiZbH55o31D/2vL7o/vM5hMDDQlQeeTalkRgcACHNiCmspj4UBPDbge6L/2MB8BgQD7dfnZMjWmjZmdgCAMEUb0/zshU2seRjIndf5/a1hlzAYGAz/sDRfOropnQUAEG709vXJ5JhSjgtgoF3SX23gLQYDg1V9QBsX6CQHAADhw8q8PXLepETWOgx0tYG3+sPragYEg+XHJ6yTd6xJDgAAwoP0skaqC2Cwwuvq/mMDCQwIBtNLpiZLQkk9Mz4AgM3Rslg3zstkbcNgmdDfYSuNwcBg+6XZ6ZJV0cTMDwBgUyoaOuTHz2WzpmEwO2yl9e+85jIgOBx+9Yl02VDeyAoAAGAzyuvbqSyAw2Fuf3gtZTBwuLz28TRJ3dHASgAAYBNKa9vk1oUEVxwWS/rDaxmDgcOpHvRP5AwsAEDIo2dcv/00Z1xx2CwjvGLI+LlpKfJufg0rAwBAiLJpZ7M57sWahaEQXusZDAwFL4hOlLlJ5awQAAAhxqr8Grly+nrWKhxu6/rDawODgaHiaWPj5V8rCmVPcyerBQDAMNPd2ycz4nbQgABDxQbCK4akx7t9ctO8TNlY2SQ04wIAGB521LXL3Yvy5COjfKxNSHhFPBY/NSVJXs7YJa2dPawiAABBoqunT2IKa001GNYiDNXw2spgYCj75zc2S2F1KysKAECA2dnYIZPWlsiJUey2Ykja1h9eGQwMeS+emizLNlVLfVs3qwsAgJ9p7+6Vddvq5OtzMlhzMLQlvKLdzsLeszRfcnY1s9IAAPiJbXvbJPLdYvno+HWsNUh4RQxUTdjJMaXm6y0AABgcLZ09Mj+lQr7xJLutSHhFDIo/XJBtLnTp5QIAADh2Vm+pMZUEWEvQruGVC1toW08eHWeOEsQW1bIaAQAchayKJlNL+9yJCawhaOsLW5TKQtt70ZQk+efyQtlQ3sjqBABwENtr22X8+9vkisfokoXUeUUMKT/zSLI88HYhpbUAACyqmjplSkypae2ql15ZJ5DwihiCHufe1+Dg/97cQogFAEey2wqtD31QIp99NEVOGhXH2oCEV0S7lNb6RHSi3Pv6ZnPOCwAg3CnZX/bqMiu00tYVw9C6/vBaxmBguO/Eav3C3y3Zd7FLi3H3UaAAAMKEDmtOy9x/EesC6wM7xwMwjC0jvKLj1J2IWxdukqVZVVJe3y49vaRYALAf+gF8b0uXKXmlFVfOGBfPHI+OCq+lDAY60aump8qs+DLJrmySpo4eVkMACHn0m6OC6hZZmLZTvv10JnM5Os3S/vCay2Cgkz1ldJz89c0tsqZgrzkvBgAQalQ2dMi6bXUy6r2tct6kROZudKq5+8JrhCeNwUDc51efSJfpvh3mglczu7EAMIx09vRKflWLPJ9aaToKnhjFWVZ0uJpZ9++8JjAgiB9Wb+rqObIF6yuluIZyWwAQPHY2dsgbG3ebcn/XPJ7GnIz4XxP277x6VzMYiIf3+icz5L5lBfJKxi7ZZS0qAAD+Rs/dv51bLQ++UyQ/mJ9FbVbEQ+68Wpl1f3h9iwFBPLqnjomTG+dlmhqKGmSrmztZcQFg0LR09siK3D0yYc02+fFz2XL2QwnMtYhHDq9v7T824FvKgCAOzDPHxcvX5mSIe1WxKbullykAAI5GY3u3vJO3RyatLTEfhs+dSGBFHIBL+sPrfAYDcfB+bMI6U3brb8sKZNmmaioWAMCH0ONGWo9VP+x+aXa6CawncPkKcRBamXVfePXMYTAQ/eNZ49fJhZOT5EcLss1lry27W8yNYQBwFqW1bfJ69m751Su58plHkuXj1odcAiviUI8N+J7oD6+TGRBE/3vy6DgTZvW2sF7CiNtaZy5ldPf20Z4WIEzQ97J26mvt7DEtWvU4gF7y1POrek6euRDRrzuv0f3HBkYyGIiB9Tj3vta0l0xNNhczHo8vk5xdzeb8W1tXr/SSZgFsE1a1y5V+EN1a02Y6Xf3i5Ry54rH1pkKAvteZ8xADpNv7YH+1gXsZEMTgq2H2K0+ky++X5Mu8pArZtLNZalq6OGYAEGLotyW1rV1StKfVVBrR8+03zN0gp42NZy5DDG61gXv7O2zdzoAgDr+6a6O9yvVrxyVZVZJcWi9lde1mZxYAgkdXT59pFLChvFHeyqk2XfdueX6jnDGOsIo4vOHVyqz7wmvsdxkQxNDzeLfPlOMaubJIFmVWmb7muju7h/qyAH6lob1bNu9ukSTrA+ObG3fLuPe3yXesD5LsrCKGWni1Muu+M69x1zEg6G9/szhPLn0khbHwo9rXXM/M3v5SjkyJKZWVeXtk/fYGKahuMefvAODodHT3yra9bZJR3ihrCvbKrPgyc3RHy93pJUvmGv+pl9ZuXbiJsUA/amVWg9t3CYOB/lbPhulO4ffnZzEeAdyZ/dSUJHNu9u5FeTI1ttS0l8yubJLy+nZzqQSAr/87JK+q2dRZ1aB67+ub5VtzN5gP11QDCJxaz1brXuvRJ8YD/Xdhy8qshhFrzmJA0N/q19uKdp561LtdPjp+HeMSBPVM3hdmpJqzs3e8lGOKor+YvlNStjeYdrZa0gcgXKlv65asiiZzZlxbrmqN1e8+kyXXzUqj9WoQHbGiSPKrWv6zBjAm6Dc1s/6HSG83g4L+VOsdHohva53c9iJfHw2Hp4yOk88+mmJuR//k+Y1yz9J8mRxTagqoa7kuLoSB3dDb//rtjrZZfcy3Xf78xmb52QubzIe2K6evN+2bee8H3288mWF2WzsO+NZHy4kxNugnu10fItK7m0HBQIZXRXf+tCainttkjIZf7fhzmRVqtaC67tL+35tbzEUV3alNL2s0ZbsAhhOtg7yxskmWZlWZKhx/f6tA7nw113wQ07qqtFkNDbUZyzTvdtlR1/4/r6GeL2aM0E9WHRRefXkMCgY6vPajF4xGv7eVyxEhqAYB3bXSFrefm5YiP5ifJX+1Qu14K9Q+kVBmbmLrmdq6tm6SFfiF5o4ec9NfLyA+lVguEz8okX8sLzDfEnx+RqpcNCXJHDvSusi8R0NP/SZHL452H+ZIEuEV/Xfe1bvxw+E1wutjYDBY4bX/xm9sUa38dOFGOtKEuP3dwfT4gZ6p1bODn3442Vx6+d2SfUcQnkutlOU51RK/rc4EES09RNMw6A+n+tVxYkm9+Zpfd/Z1l06/6tfzqLr7f87EBPOhSZ8xfdb0MiLvvdA/IqBni1s6j1zphPCKfjT24GMDyxgUDGZ4PTDEascaPUrA13/2DLb6umng0CYLGj5OHxtvwq0ubr9+Jdfssj+bUinvb9lrztjqBQ7dudVFT8/b6jOgt8L1MhmBN3TR10ZfI32t9DXTahat1muol6SqmjrNhxaP9YH0pfRd8tAHJab8lJ5B1fPW/cH05P3hVMu+8aHVnhVO9IOGXsJtPMYPqIRX9F+NV8+ig3den2RgcDjC64HnYbV26fmTEgmxYawGFz1re7H1YUW/EtYmDD9+LtscTdAzjbqD+87++rV6IWe3FYr2tnSZsKu7uVrPVnfyNDRpgOom8A4aDaLailg/QOgHCR1bHWMda22Fqu9J3THVLlNaZkpD6SOe7XL/24Wmdqd+ONHKFp95JNmcPeUYUPifkdfjHMU1rQN6zgiv6MdjA7M+HF7d3vEMDA5neO2nsLrVdJTSc26Mo7PV7kZax/bqmWnyzac2yA8XZJsGDb9dnGcul+mO7uPxZfJC2k7TwtNbXGsKz+sOYGltm6kvqTU+NYRpGNMdQt0t0vDbv+uru4ca4Pp3fntDOAn373x27w+dGt71d9Agr7+T/m794VO7sOnvrvV+dSz0faUhVI91rMjdIy9n7JI5CeWmnJQGEt0l1Ut7+kFCL0NpaSn9gEE7VDxvUqI5HqQfKAcD4RX9t/PqdR+08+r7MwODoRBe+9E6sf9cXkhlAhywB1440wYOeunsjv2h94+vbZa/LSuQB94ulIiVxSYAa4DTc7v6VaiGYb00pMcc9DiLlhPTxg/vba6RDwr2moCszTe0jagu5mlljSYUam1RvcimbtyvPsNq/3/PPkD9d/TfTd3RYP4s/TP1z15buNfscmrA1Mtxr27YJc+nVsq8pApTYF/LQj0cW2q+lh+zeqtEvlss/1pRaG7h/+n1zSZk/PLlXBP0vz4nw5SN6r/wxDcaOBD1WzBtfqJHQYYC4RX9GF7vPfjYwE8YGAyl8NqPLu66OGsQYVwxVM756pnN/jO+ukOsgVnLBWlI/NiEferFNrX/v+v/T/8Z/Wf1XPCBZ0A5/4mhon7w0534Vfk1fpnDCa/ov/Dq+/GHw2uU91oGBkMxvPaju1TateWax9MYX0REP6tnl7V17pqCvX6duwmv6Dc1q35453Xt2QwMhnJ47Udvq2vNUS2szzgjIg5NvXSnR7S0lFkgILyi3xyb9HHX/xDpbWZwMNTDaz9643V+SoUpxcN4IyIOzC/NTjfnp/VcdiAvKhJe0U82uw5JpHcLg4N2Ca/9aDtCPZv1q1dyuZCCiHgU9QLja9m7TQWKYEB4RT+5+TDh1RPD4KDdwms/Wgs0vazR3MLWW7K8BoiI+zx1TJwpiaal0nY1dgR1bia8on+0Muphdl4XMjho1/Daj9a/LKhuMaWFdIeB1wIRneqXZ6eb8mpa//hobVwJrxjiLjxMePVFMzho9/B6YPcg7RikLUm1/qXepKUcESKGszrHaVMBbcu8JKvKNK3QphbDCeEV/WKEd9KhwyuNCjCMwuvBQVY7Dj2RUGY6NWmbQ87HImK4BFbthHbt42mmEouGxeEOrIRX9H94tTLqIRnp+SEDhOEYXg9Vbku7K31+RqopIs+OLCLaTW160V+bNVBlrgivGDJG+X5w6PAaFXMpA4ROCK/9aD97vcCgFxm0jea5ExN47RAxZNVObZ99NMW0bV2Zt2fYzrESXjH44dXKqIfkzmUnWP9AF4OETgmvB7KzscMsBvctKzBFu3VXg9cREYdbPRKg7bE1sOo5Vq1xbScIr+gHu0xGPSyR3iIGCZ0YXg9ugLAos0oi3y2Wr8/JMIsHrykiBsuTRsXJ1TPT5O9vFcgLaTslu9K+8ynhFf1gkeuIRHreZ5DQ6eH1QLbXtsvSrCpTP/aW5zeay168vojob08eHSffeTrTfGjWwJpX1RwWcyjhFYeulU2PHF59cxkkJLwempqWLlN6a0pMqfxhab5c8dh6XmtEHLQXTUmSO1/NlXHvb5O3cqqlvL497OZNwisOXSubHhG3ZwSDhITXo9Pa2WO+ytMdkt8vyZdrHk8zX/Xx2iPikdQPvb94OceU7lu/vUHq27rDeq4kvOKQ1Wx65J3XuJ8yUEh4HRi6+BTtaTXlaqZ5t5vOXudQuQARLc8cFy/XP5lharDGFtXKlt0tpu60UyC84tC1sumRw6v3CgYJCa+Dp7evT6qaOqWwulViCmtl4gclZuH6yCiaIiA6Ra1YMnJlkalgkl/VIpUNHaZ1tRMhvOKQfTDuyiOH1/syP2L9g90MFhJe/YMuWHtbumRjZZOsyN1jdl++NocwixhOap3of60olDc27pb0skapbu6Utq5eJkDCKw7dbpNNj0qkr4DBQsJr4BojNHX0mC5f/VUMbn4221QxODHKJ8e7CbWIoai+N/U9qqXzvjV3g0StKpYX03eac6t1bd2O3VklvGJgz7t6C13HRKT3HQYMCa/Bo69PzNeKettYd2a1GPkXZ+5rlKDlc3ieEIOvXsDU86ra0er2l3JMCauX0nfJ1po26entM+9bILxiwF15rOF1GoOFhNfhRb9yzChvNDeS71maby6B6VeT501KlFMItIh+VY/xnP1QggmqN83LlLusD5BTY0slbmtd2FcDILxiSBvhe+zYwqvb9wcGDAmvoUdDe7es21YnM+J2mN3ZG+ZuMDu0n344WU4fSxcwxGNRP/x9cnKSfH5GqrlMqbuqerHyvc01srupk4mG8IohpeePxxhe477KYCHh1R6VDbRxQsr2BpmfUiH3v10o35+fJV+anS6XT9u3S3ucm2cRnWv/buq1j6fJt5/OlL+8scV8m+EtrpVdjR2cUyW8YsifebUy6TERsf5U61/oYdCQ8GrP6gba0nZDeaMp0zMrvkz++uYW+eGCbLPT9LEJ6wi0GJbqRarPTUuR7z6TZRqHPOLZLss2VUvqjgZzTrWls4cJgvCK9rLHZNJjJtJbxKAh4TV80NvQWRX7ynUtTNtpjh5ErCyWX76ca0p3XRCdyHOLttlNvW5WmvzshU3ywNuF8qh3uzyXWilvbtxtgipf/RNeMVzOu3qLXQMi0ruCgUPCa/jT2N4tBdUt5mLKa9m75fH4Mhm7eps5gqAtLDXY6vEDnmkMplppQ7/q14D697cKZNR7W2W6b4e8krHLdKnKq2qW2tYu3sCEVwxvVwwwvPqiGTQkvDqX7t5952m17a3uZq3Kr5G5SeUm2GqY+M3iPPnxc9nmwpgeReCZx4GoFwz1XLZW0bjz1Vz5vze3mLqps9eVyfKcakkurTdtVHUXtaObc6mEV3SmVhYdEG7vHQwaEl7hUKFWzw7qMQS98KJnCbV7mLbCfSFtpzwcW2rO2N724ib53jNZ8pUn0uWyR1PkrPEEXKd4mhVML5mabL7a17JTty7cJH98bbO50a8XC1dvqTFnsvWDkdY31g50zR09XJ4ivCIedFnLyqIDIirmUgYOCa8wUPo7iGkg0RaZO62AW17fLoXVrWY3TXfVnkmukHHvb5N7X98sP1qQbUKOBlwtX6TnGaljG3pqswzdYf9EdKK5vX/1zDTz4eS3i/PEvapY5iSUm9aoWspt8+4W2VHXbl573TnVZ0GPpxBOCa+IA1Kz6ICJ9DYweEh4BX+jJb40yLR29phQo2cXNeBUWUFHQ4/uyGmDhve37JXFmVXmq+Qxq7ear5Z1R1fr235hRqpcNCXJBCr9ClrDlbbu5L13ZE+wxkg7R+nuqO6Gaxi9avq+eqe3PL/RfKDQMKrnS1/dsMvUPtX2p1v2B1LdbdfjJPqaad1h3YXXr/W14xQA4RX9aINrUER44xk8JLzCcKItODXsajjSXV0NvRqWNPhq4NWvnXVxzK9qMdUU9HxuQkm9OcaglRW0neeTieXmOINe+tHzulpGSQvT666v1v7US2l6dld3FLXhgwa6cyYmmEtDWn5Jg5566pi4D6k7xP7w4D9X1b/v9P0BU3ejz5+UKJ+ywvqlj6SYkmd6HOPGeZly87PZJtDrDujflhWYFqbRa0tM4NeqEtpyeG3hXonfVmdCqL4v9bJTcU2r2RHf09xpAmi7NaY6tjrGejREx5z2p0B4xWGsNBA/uPAa6Z3NAOJg1TNtAHbaCW7ZvxOsgU6DXYm16GolhtxdzSYYp5U1moYQiVY41oCsFRq02L2nqNaEZQ2JHxT8V905Vtcc8L/pP6P/rKr/ns/6MxL2/3l6rELDtwbMHOvv1N1OXfj1Z9Gv37VNqZ4NZacT7ISei2dNxEGcd501yJ1Xz+8YQBysuhADAICz0Q+ArIk48J1XK4MOCnfMVQwgDtZ38vYwawMAOJxNO5tZE3HgPhh35eDCa3T08VzawsE6M24HszYAgMPR4zWsiTjgy1qaQQdNpDeWQcTBqEXsAQDA2TyVWM6aiAM11jUkIj2PMIg4GPXmtl4uAQAA53LHSzmsiTjAy1q+qUMLrxG+2xhIHGz7R72dDQAAzkSrZGjpOdZEHNhlLSt7DokRa85jIHEwaiH0JxLKmL0BAByKtgKmYx4OWM2eQybSs5XBxMGonZC06DkAADgPbZxxvJvOdzgQrczpFyK9ixlMHIzaoYiSWQAAzmPz7hbTFY61EAfoYv+E1wjfvxhMHKzaipM2kwAAzmLCmm1yYhS7rjhg/+2f8Or2fp3BxMGqPdlX5dcwkwMAOITS2ja5cvp61kAcTFvYr/snvN657ATrD2xiUHGw/uLlHNOPHQAAwhv9pu3Bd4rkODdrHw7YJld0/IkuvxHpXcug4mA9c1y8PJdayawOABDmJJXWy6cfTmbtw8G41uVXIr3jGFQcip+fkWq+SgIAgPCkob1bbn42mzUPB3tkYLx/w+vI2BsZWPTH5a3WTrpuAQCEG3pc4OHYUjmBS1o46PDqucm/4TV62UnWH9zG4OJQPHl0nMyKp3EBAEC4sTJvj5w3iW5aOGjbTNb0O5HeOAYXh+o5ExOo/QoAEEZs2tkslz2awhqHQzHOFRAifdEMLvrDS6YmS3JpPTM+AIDN0bsMX56dztqGQ+2sNTlA4dX7fQYX/eVnHkmWnF3NzPwAADZld1OnfPeZLNY09IffD0x4HbHmZM69oj+9emaa+boJAADsRXVzp/y/5zaylqGfzrvGn+IKGJHeDxhk9KdfeSKdHVgAABtR1dQpP39xE2sYhmh914OJ8LoZZPS3l09bL5kVTawIAAAhTkVDh3zvmSw6aKEf9UUFNrxGea9lkDEQXhCdKGsL90pPbx+rAwBACJJX1SzXPJ7GmoX+VbNlYJHjrL+oisHGQHjGuHh5NqWSRgYAACFEd2+frMqvkYun0vYV/W6VyZYBJ9K7mMHGQKlfRUWsLJadjR2sGAAAw4y2fH0ioUzOHBfPGoWBcLErKLh9f2CwMdBqf+yU7Q2sHAAAw0Rhdavc+/pm1iQMYEtYK1MGhZFrL7T+wj4GHQOtfkWlxwg6untZRQAAgshbOdWmGgxrEQbU0bGfdAWNSG8ug47B8s9vbKYeLABAENAjW2NWb5XTx3JMAANuriuoRPgeY9Ax2A0NnkutlK4eqhEAAASC5TnV8u2nM1lzMDhqlgwqbs9NDDwGW90J+M3iPCmobmGVAQDwEzUtXeJeVSznTkxgrcEgnne1smRQuXPZCdZfXMvg43B4xWPrZUpMqSnfAgAAg2dh2k65blYaTQcw2NaaLBl0In1LGXwcLk8aFSffmrtBlm2qZvUBABggCSX1cuvCTaa+NmsKDkNXraWuYSHCcxeDj8Ot1h7UHtvrtzdIHxuxAABHRMtf/d+bWzgigMN83tXKkMPCGM9HrR+gixcBQ8Gzxq+Tvy0rMO0LudQFAPBftO12RUOHTFpbIp+cnMQRARxuu0yGHDYiPTG8CBhKftQKsWNXbzMhlvqwAOD00FpW1y6z15XR2hVDyVjXsBLpfYAXAUO1MoGG2NxdzdLS2cMqBgCOQb992lrTJnMSyuXCyUmsCRhqPjC84XVft61eXggMVT82YZ088HahbChvND26AQDClfbuXvOt0+SYUvn0w+y0Ykjaa7LjsBPpS+bFQDuE2HuW5ssHBXtlb0sXqxwAhA367VLK9gYZsaJILuF4AIZ2lYFkV0jg9kTwYqBdPG1svNzxUo7MS6qQ8vp2Vj0AsC31bd2yOLPKfDC/IDqROR7t0JggIkTCq+8S6wfq40VBu/mdpzNlamypJJbUswoCgG3Qs/x6nvVnL2wyNa+Zz9Em9pnMGDJEejN4UdCuXvpIiql7+Fr2bo4UAEBIoudZV+XXyOj3tsrVM9OYu9GOZrhCikjfGF4UtLsfn7BOrn8yQ6b7dsimnc2slgAw7GhTgfkpFfL9+Vly/iSOBqCtz7uOCa3wOir2cl4UDBdPHh1naiLe/Gy2vJKxS/Y0d7KCAkDQ0AtYusv6q1dyzTdDWvqPuRltr2bFkCPSk8mLg+Gm9v3WkjO6iLy3ucZ8dQcA4G+0vbW2uf7rm1vks4+mmAopzMEYPhe1vBtdIUmkL4oXCMO9UsGV09fLn17fLO9v2WuCrHawAQAYKL1WWtVmAlriauTKIrn28TSzw3q828d8i+FnhGdUiIbXmE/TsACdoi4wX5qdLv9YXiDv5tdIbWsX7WgB4Ih09vRKY3u3rNtWJ5HvFsuN8zLlxCjCKjqgMYFmxJAl0reOFwmd6OdnpJrdk9ezd5u2jM0dtKQFAJG2rl6paOgwZ1gnrNkm33xqA3MmOu2i1jpXSOP23MeLhE5Xi4X/5Y0tsjBtp6TuaJCdjR3mPBsAOAO95Jld2WQaCOiH2s9NS2FuRCc3JrgvtMNrxNqzrR+0kxcLcZ8nRPnke89kyaPe7ZJQUm/K3ujXhgAQXrur2/a2SVpZo8xNKpfbX8oxlz2ZAxGtTKjZMOSJ9LzLi4X4v546Js6ck9VWjlq3US9qVDZ0SDeXvgBsx+6mTsmsaDLl9O5bViDfeDLD1IpmrkM8UCsT2oJI7928WIhH91NTkuSHC7JN9YJ5SfvCbAO7sgAhSWtnj2ysbJIX03fKP5cXyi3Pb5TLp61nLkM8snfbI7xGrD/V+mEbeMEQB6bWdtQFUes8Ph5fJp6iWqlvI8wCDAdaCk/rrj6TXGGqitz24ib54sxUSlkhHrsNJhPaBrfnWV40xKF50ZQk+c7TmebyV/TaEnlj427ZXttOqgAIAFVNnaYiwDTvdrOzqh32LrM+UFLKCnHQLnDZigjf9bxozlYD1ycnJzEWfvI4t1fOfijBlOTSHSAtufNsSqV4i2uljt1ZgAEfAdBd1RfSdsrkmFK5a1GeXPN4mpw/KdFcsmTO8d85/98uzmMsHNuYwMqCtiPSm8+L51zzq1oko7zR7BwyHv5Xd4O0G48uttr1S9vXPubbLivz9phx57gBwD60EkDOrmbT3nlOQrn8fkm+CaqfiE6UM8fFy0dGEVYDVfta56Mdde2MhzPNd9kS2sU6Wr3YoGi9w0c82ykbEwRPHh1nFmO98fyZR5Ll1oWb5KEPSsxXobnW4q1fi9LOFsKZmpYuU45Ov5GY7tshv3w5V654bL2cMzFBzhq/Tk6x3iPMFYEvD6jVFzS0KoRXxzYmiLJneI2KOd/6Bbp4AZ2plpDpRwOT/netd8ouR/AXEg21p42Nl/MmJcrX5mSYIx1aqiu5tN40UGjq6DGXU7TPei/dFCBE0UdTn1F9VrWDXXXzf0tVPfB2odwwd4NcODnJfFDWZ56zqsGfa66anirvb9lrXqd+tP4t4+M4u10Pei9w2ZZI70peRMJrPx3WoqM3dy99JMWc4WScQuMcrXb/0YVfQ60WWNcqByXWglPb2mVCgoYFrUVLroVgoM+azhUtnT3mPHdZXbskltSbjnX/WlFoPgTrURk9MsPN/9BQd7bHv7/tkMeVCK+OdKXL1kR4budFJLwejJ6H1dqmGpwYq9BUv2K9blaa3L0oT9yris15Wq1vGb+tTor+f3tnAl5lda7tz3k4WjvYwTr2d6rWOtSh9dSqbbWtY+v/O7S29nQ4bT1WNHvvACpqUBxABhHQoogjTsigiEiyv50ACYSQEEIIMwRCgJAEQsgcMqx/vS9g8QgyZfiG+76u+9JaJbD3+tZ69trveldFve7YSrCQkEGohf1Bduekr7GUs0jAkT7HY+aWaZu4Xh8tN398e6E2/pdvDHgmvanU3Ut7v2l2XtgdhNcwHtSy2c/XpGQcav8g63gzCa+7Ytz8cnPtyHz9io/XzD9KTe0PhuSY214vNA9+vEIPwbySs95MKKzQHTL5cCJ1bhvrtmq4hfCGU9mJW7O50SzaUGeyV1ebD4sqzRt5ZbrD/+jUlXrbnOz6fzOFgOq3b22kBEk6nuwJwmvoXK/Zz/fEEv14Mwmvu6O5tc0MnbHGXDZ0Dq9bAJSvcaU/reyY3fpaoblv4lIzIH211iVKuE1dskl3aXLXbNEd3PVbmrRtEfgLKSWRmtPllQ0mf22NfmiRcpOJCyp093TwtBLdsZc2ST8ZkacHCPmQGgzlogY5CCqH4/YGwmvIlMwXCGKJU+0fqI03lfD6RaytbtKdGJkYef2CqxzYk5KEU/pl6c7Nr16aZ/7rnYUm+uEyPR0uO7gSgKYu2aghV3pxSjiSnbtSO0a2NLZoTSR0LHJQT+qb5cOEnNaXbiGyUzrdhtI0G0plx/T13PVmUEaJ6fnRcq2Pln7DP3ouV2+G+3KfaebwnoTTICvPrFzesKCsdp/GFuE1VLZp5gsM0fjHvKmE171BFs3ek5frRMnrGE6lnZHUQ8slF3K4T/pFSpmCHNT59SvztU+nnC6XixokTMlBnrfzN2hLsB27utLXUwKvLJxy4EdCmZQxSPhtDGApg3yDIV0j5M+4oaZZv6qXQ3eLy+u0TZo8j5nFm/UkuNzUJs35pdxDPjDK7vhdbxVpW6lrRubrh4pz7WsuoVR20eUwjnSrYGyGU/lgIldWf1FdK+EVt2mzXqCIujfyphJe9wXZ9ZEQy2EN3JtSBTk4crwNWafaDz1yEv28Z2abCwfnaBCT3cErhudp+JVwJgdMJKhJveXfxi42PSYs1bH2WGqxljgMmV5iRmSVmpey1+pu4zs2GEt9tuw+Tlm8Ub8el4Nr8lW5tBuTsSoXQ8iYl11iUT6ESYAW5+30z+TfkXA9u2SLHlCSX0NCgfyan9hfW37G+MJyDZhSGyrBXDp0SNCU31u/tGKtM77fBk7ppSmHmqQ84/pR87R+XP6M8jX95cNyzaX2z36RfQ2kIb+0MJIPAnJCX1pJ0UYK9+ZDpOywJ5ZXHVDtOuE1TAe1EjcFK7ympBxs/2CreHMJr/vaMkcWeqmvojMBdtVBlEN36o0rJQ5yQE2CsQQ/uZVJdiNPfjxLg7LUcsoO5enWM5+a9anSGF9CtCh/v+OfyV+lNZn8N/Lfyq8h3zLIryk9SuVnyM+Snyk/W0L5jp6ltJfDrlDG2t3jFusHKyklOVAIr6FxlWa9wBFN9ObNJbzu76nlufbXk10n+SqZ1xcRsWM9qne6lpBM76DQSngN20Ett5cTSGIZx9s/YANvMuH1QEKs1PA96a7Sr4V5nRERD0zZEJBDeFLK0rC14+vBCa+hsEEzXmCJua/xJhNeO6KcQNr0yGEdOcxzCPV7iIj7VCd+0mPbQuuqTY164K+zILyGYtf1NSfQROMX8UYTXjvyrnPZKZDDND8enqcHUbguEhFx10oNtbQjlMsF5Hazti64Ho/wGoouAxc5gSeamMYbTXjtjD6VOSVbzH+/t0gPv0j9Fu8DIoZd6b8rBwGlzZx0tJDyq66E8Bp4pzuhIBK/nTeb8NqZLKusN8/NWKPXTtKlABHDqHSrkF3WvqnF2qatuyC8Br09ls10oUDuvI26JbzphNfORkoK3p9frn08pc8lrYYQMehKCzbp/zs6Z51eWNHdEF4DbYlmutAQi/fgTSe8diULN9SZpxOrzP97rZB2W4gYKOUWrF++OM888slKvTjDSxBeg2wiyQkV92QcY//gm3njCa/dcYd76pJN5qGPV+hNS8c9NI33CxF9p1wmIDeqyTdL8g1TR/ZmJbziXrhZs1zoiMYH8uYTXrsTuQde7nqXxtxX2UXgsJ50KkBEb3vZ0Dl6MPWtuWWmtLrJ8/Ms4TWwHQYGOqEkkjjRvgDNDADCa3cj3WJWVzVqkL1n/BJz/sDZ1MciomeUa4bveqvIvJO/QQ+kNrW0+WZ+JbwG0manV9q3ndDCpQWEV48hh7yWVzaY9OVVJnnSMr2znvcTEbtaaW8lO6yTF1XqzYLSl9WPEF4D6Sgn1MTcc+2L0M5AILx6kcaWNrPSTrxSI9svrdhcPCSH9xYRO035sCy3Xk1cUGEWbagzNR6tYyW8hto261lO6Im5kxgMhFevI429pUY2sbzKDEhfrQ2/v8RhL0Q8AKXOXg5dpUxdaSYVVZqymmb90BwkCK+BcxzBVUhyL2cwEF79RGtbuy4wS8rrzbDMNeb3Y4q0j6zcZMP1tIi4K6WOXsLqqf2yzP99tdA85a4yc+08KaVKLW3tgZ0vCa8BM+ZeSnD9tPOAm86gILz6GTlAIbuy909caq4YnqdX1Mo94hz8Qgyvck31t1JmaIeAP7+70IwvLNfa1fb28MyNhNcAGXETBNbPlg5cy8AgvAaJyrqtZmxBufnTOwvNhYNzzMmPZ1FmgBhw5QOrXIJy7oBsvRBl1Ox12skkzBBegxReE78gsH5+9zWbwUF4DSJSLysdDN7IK9PdlwsGzTbfeWKm+erD0xkriD5WPpCe0i/LfO+ZbHP7GwvMiKxSU7i+1tQ3tzLxEV6DZjZBdZe7r4nrGByE1zCwuaHF5K+t0Z3Z2KRl5qcvzNVTxl/pw84sopeVG/mkZvXyYbnm72MXm9fmrDezS7aY8tpmJjbCa8BrXW1Gg93uvuYwSAivYUMOf8kC+N68DWZQRon53ZsLzKXPzjHHP8LOLGJ3h1X5pkQOWD0RX2Xezt9gpq/cbDbVb2XiIryGyRwC6heG1/TrGSSEVzBaZiDNyV/KXmsenbrS3PHGAq2dlQMgjC/EjveQ5IR2DfnNK/PNA5NXmH/NXGsmFFaYorI67TAChNfQmhy/gYC6593XOQwWwit8Fqmhk0X0o4WV5unEKr155+bRBeYiG2iPfiCDMYe4j0FVDlXdMKpAD1X2TS024+aXazmPlPUA4RU/dQ7BdG+QhM9gIbzCFyK9IaXOTnrNyteYL2avNfdOWGJ+8WK+fs0pV0syDhFdrSWXA1VXPT/X/NV+6Ht2+hq9NU8+DMqlALVNHK4ivCK7rh2z+5rLoCG8wr4HWlmM5UrbBWW1ZuqSjWbI9BLzl3cXmUuenWNO6JtpjuxF2QEGU7kkRD60fX/gbPPbNxfoJQAfFlWa+etrNUCtrW4KxHWrhFfsQnMdxxxEKKX2lfAKXUpbe7su2BJqpd+khNr40k3a0uee8UvMT0bk6YLPzWDoJ6XNnHwgk9ZzcshRrladt7ZGP7it29KkFwG0UKdKeEV2Xbth9zWTwUN4hc4LtdLlQBb59XaxL1hXazJWVGndn9TU/uGtIr0VSG4HOjQ5wU1h2KXKeJOAKjXdt75WaFKmrtST/vLBS65UXbO5UWtTpRackEp4xU4xkyC6X31f41cweAiv0D3BVi5WkCtvpa5W3kv5+vWVnPW6yyVX4F4/ap4575lttbVyYOyIXul6b7schJFdXMIu7qyMCRkbMkZkrMiYkVrUs/vPMj//V775x/uL9UOT3EglV6jOXFWtX/PLGJSxyGl/wit2dV9Xm8FgP4m4kxlEhFfwJrLjJbu2c9ZsMe/O22AG2mDbZ8oK88/xS8ydY4o0lMhBGbku82uPTNfbiKTVFzu5wdsllWAq9dTHPpihO6ayY3/mU7O0LEVunrp73GLz4McrzID01eb13PUmq3izlrFIOAXCK3pMyV5wQLWvF9gXso3BRHgFfyLhRHbQZDxMXFBhhmeWmt6Tl5u/jV2sAVd6akrIlRIF6bF52hNZn4ZdCUKyS0fQ7b4DUMfsFEblZikJpBcPydFb4W4aXaAHo+QEf/TDZXo4UC7amLWq2qza1GjquCIVCK9+tN1JSruQAHrA5QPuOwwmwisEm/Z2o7cWyUIn4UeCrnyFLF8l9/xouQYkueXoVy/N0+D0n8Ny9RYyqYk8f+DszwTf47fv8spOoOwIhvmr+iO274bKhwHpNiEB9KynZ+mJfHntJIj+6LlcbSMlbdakd7D0PZUwKjdKjZy1VuugpR3b4vI6U1HbTI0pEF6D7bsEz46gZ9qZ9sVsYUARXgF2BF3Z0ZUuChvrturpcglWcsVu2tJNWjMpd87LLm//xGo97CNhTO6iv+utIj0AdJ0NwbLjK6FtRxCWG8ykjlfqMM94aqb5zhMzNeyd/HiWOemxTA3GEgBlF/Kb1q8/uk0Jy1/bruxSilLPubM7/rn8O8dvd8d/L7+W/Jrya8vPkJ8lP1N+tvweTn9ypgZOKcGQHr5yyl5+z1eOyDM/s0FeAr0Ee9nJlssrkj5Yah7+ZKW2iho6Y40ZnbPOjC0oN58s3qgfDKS/aWl1k6m0r92WxhZtsUZNKRBeUbOWZC7osM4DIxlUhFeAjkLCmoQ26bYgh9JKqhrNssp6bSUmYzd7dbXWZU5bUWXSl1cZd9kmbWwvAXCKVa7ulfZMcpDtgwUVeo2oKMFZlN3Knd3xz+XfkV1lUf47+TXk1/p40Ub9teVnyM+Snyk/O9P+HiRw5q7ZYgrX15qlFfVaK7qhptlUNbToV/PshALhFTvIkQTOjuR+95v2Ra1hYPlHOS0MAADhRr4VYU30hTVOz4xvETg7fPc10YfB5R9lVwkAAMKNXB7BmugHbcaCzmibNeso+wKXMMD84TPpq5m1AQBCjpTAsCZ63jWasaCzOg8k7mKQ+UNpoQMAAOHmuRlrWBM9fyGBzVbQmZiD7Audy2DzvnJCWk6DAwBAeLnl1fmsid42V7MVdPru65UMNu8rzc3ltDYAAIQTaWMnbeBYE718m1baVQTLrmudNYFB5/3beQZPK2H2BgAIKdJK7ugHMlgTvesEAmVXkpz6HfuiNzHwvO3lw3JNcyt3lwMAhBG5NENuemM99KRNTs/E6QTKLu8+kHiawedt5YpOacIOAADhYnllg94Yx1ro1XIBm6GgG7gn4xj7BqxlEHrXg2KuXlnZ1s4NQAAAYeLBj1eYw3qy6+pR12qGgu7afY3fySD0tnKfu1x3CQAA4UCuMD5nQDZroGd3XW12gm5vnTWdwehtbx5dQO0rAEBISPpgqX7zxvrnSafTGssbh7fOs29GCwPS222zRuesY0YHAAg40iKR9lietUUzE3imddZgBqW3PXdAtllWWc/MDgAQULY0tpgbRhWw5nn3kNYQAqOX6JV1rBNxSxmc3vbP7y40dc3cugUAEEQeTyvWHt+sdx49pCVZCTzXOusWBqf3Ly4YlMHFBQAAQeODBRXaHpG1zrO7rrcQFL1KzJ3EIPV+71eZ5AAAIBjkldaYM56ayRrnVSUbgZdrX1NPtm9ULYPV237j0Rkms3gzMz4AgM+Rsww/HDqHtc271jr3xU8hIHr/8FaUwep9v9s/28xfX8vMDwDgU0qrm8x1L81jTfO2UYKhH7ht7CH2zcpnwHrfHwzJMUVldawAAAA+Y92WJnPLq/NZy7xtvpOScSjB0D+1r5faN62Vget9LxqcY/LX1rASAAD4hDWbG82vXyG4etxWzUJA71fsvBICamABALzPkvJ684sX81m7vO9ggqAvW2fNOsqJuMsYwP7w230zzaSiSlYGAACPkr262lzyLIezvN8Wy2YfyUDg1wDr/sS+ke0MZn/4lT7TzIisUrO1tZ1VAgDAQ0iLw9OfpB2WD2x3ImlXEQD9Xz4wgsHsH4/slW7uHrfYVNZtZbUAAOhmmlraTL+0YnP8I9NZo/zhCIJfELgn4xj7ZhYzoP3lNSPzzaxV1awcAADdxOqqRnPnmCJzWM8E65I/LNbMA0HZfU37OeUD/vPkx7PM8MxSVhAAgC5m4oIK871nslmL/FQuIFkHAlc+MJLB7T+PfiDD/N5+8pfWLAAA0LnUNbea2KRlegaBNchXjiToBZFeWcfaN3clA9x/HhRzzTkDss2YuWWmpY3DXAAAHU1be7txl20yVz8/1xyaTJmAz1ypGQeCenlB/AouL/Cvh9gJ9S/vLjJLK+pNKyEWAKBDkNuyHvlkpTm8ZzprjS8vI7DZBoJePhDvz2D3t994dIYZlrmGjgQAAAfA5oYWM25+uX6zxdriV22mgRCQMvZw+4YXMOD972VD52jvwSo7AQMAwN5R39xqZq6qNje+XMBa4m8LNNNASEhOPc++6U0M/GD4uzcXmIwVVdqPEAAAdk/Bulpz38SlehiW9cPXNmmWgZARcWMM/uD45T7TTI8JS3U3AQAAPktRWZ1JmbrSnNIvizUjGFfAxghyoSwfSDnYDoB0HoJgeaqdmCMfLDOZxZtZrQCA0GpD62Opxeb8gbNZI4JjumYYCOvua+JEJ+Zu5EEInqc9kaW9ChPLq1i9ACB05K+t0dB6wSBCa6CUzNIr4yQCHAH2Jm7fCvYtXf8cv8TklGxhNQOAwLO4vM70taGVDgJBvUUr/WaCG+xonzWchyLYfueJmebW1wrZiQWAQDJ/fa35x/uLzXf7Z5uDY1wyENC2WMMJbPBvekw5wom583gwgu+3UmaYK0fkmdE56+hOAAC+Z1JRpblhVAEHscLQFkuyCsBniKV+1w6OOh6QcPgfD2SY856ZbZInLTPLKutZAQHAN2yoaTZPJ1aZi4fkmOMemsacHnzrNKMA7Kb+9c88JOG7cvabKTPMnWOKzPvzy03D1ja94xsAwCvIlLS1tV3Lnv4+drE5/cmZ5rCelAaEqFzgLwQ02EP9qzuGByWcSp3YD4fOMYOnlZi5pTV6Cw0AQHfR2NJmFm2oMy9lrzXXj5qnH7aZq8Nm4i2CGeyZ5NT/sANmIQ9MuJVdjd++ucCMLyzXsgKCLAB0Bc2tbaakqtF8snij+Z9xSygLCLcLNZMA7EP9ay0PDopff3SGuXfCEpO2dJMGWQ56AUBHIqVKq21glctVHp260pzx1EzmXqx1kuLnEMhgX8sH7uDhwf/tmU/NMtEPl5m4DbJLK+p1lwQAYH8o3tSggVUuE5DDV8yx+O/LCBK/I4jBfgZY+r/irj28Z7q5aHCOXoDwYVGlKa1uYiUGgD1SWbdVD171nrzc/OewXPMlygLw844ggMH+kzL2cDuIcniQ8Is8ole6+dkLc02PCUvNy7PX6QELAIAdyIfbd+dt0NZ8N75cYL72yHTmTtydczR7ABwQ98VPsYOpkgcK97ZjgezI/vd7i8zAjBLdYaFGFiB8yJXUwzLXaL38FcPzzNEPZDBH4h5KBdyNTixxKsELOoak+DV2YLXycOG+evLjWeaakfl6CEN2XlZsbGBVBwggcnHAxAUVZkD6avObV+broStaW+E+2GrD67UELujgDgTxCA8X7q8HxVzz1Yenm7P7zzK3v7HAPJ9VarKKN5tN9VtZ9QF8iLTPk93VV+esN399b5E5f+Bs7UzC5QG4n0YJWtA5ROJv8IBhR11PKzd7SfcC6Sf7ml0ApVa2tol+sgBeRDqLrNzYoDfxyS1XElZP6JvJgSvsCN8kYEHn8fePjnai8TweNOxopR5Odmbl2kfZmZWDX0vKacUF0F3IdayrNjWasQXl5m82rH7vmWxz/CPTzTEPZmhtO/MWdtDVr3maLQA6lV4ZJznRRAUPHHb2DV+yO3vOgGxz3UvzTL+0Yi0z2NzQoldGysIq950DwIHR0tauhyrlW4/562v1kNUtr87XndUv95mmbfGk7Id5CTvh6lebJVJPJlhBF9W/Jq60A6+ZBw+7um72/zw5U+84l7Zcr+euN4V2sd1Yt1Xr7yTQAsAXB9WGrW2myn4IlNvypARA+q3KASvZWaVeFbvQZs0SAF1b/5q4m4cPvdBj9gdDtrXmkt3Zt+aWmXlra8za6ibqZyH0yIe6sppmrScfX1iunQCkddWVI/LMsQ/Sugq7tVzgfwhS0D1E48/yAKIXA+0lz87ROr0RWaVm6pKNJnfNFrO4vM5U1Dab1jZ2aCF4SOeO5ZUNJq+0xrjLNpnROevMfROXmp/YoHoch6rQS0bcoQQo6D5uG3uIDbAf8jCiH7obSGcD+Xr0wY9XaMnBtBVVJn9tjVlaUa9XVgL4gerGFu2XLN8wZBZvNu/N22AeSy02d7yxwHx/4GxO/6PXd1w/1OwA0K30mPIlOyALeSDRb8rXplJDK7u0EmqjHy4zI2etNR8v2qjBQE5aSz0ttbTQ1chhRKlLLalqNAvKak3a0k3aT1U+eElIvXxYrn4Ykw4dPMvoIwud3vHjCE7goQ4EbhkPJgZB+Yr13AHZeqWldDq4c0yReciGBmnfNWXxRj0kJl/REmrhQJESFtlJld3/uA2o0u9YdlH/+PZCc+PLBVqbesGg2dqiimcTfW65ZgUAT5Gc/kM7OOt5QDGoylWXcrGCfDX70xfmmhtGFegFC/eMX2KeTqzSUoSMFVVadygHZQAEaUMlO6gzV1Wbd/I3mIEZJeb+iUvNH94qMjePLjA//1e+Hjo88bFMrdfmWcMAWq8ZAcCbHQjit9tB2s6DimFUag1PfjzLnPfMbN21lVKEP72zUIOK7NwOnlai9YkSYqQkgW4I/kd6DktnizlrtpgJhRXaI/XhT1aayAfL9MrUW18r/HT39LQnssxX+kyjwT+GzXYn4v6WgATeJhaP8LAifr5H7ZG90rVG8aTHMrVe8cLBOeZnL8zVsoSkD5aaR2zokVZGL8wsNW/klWmXBDlQtmYzQbcrkT6o67Y0aa2pnNp/O3+D1kIPyigxfVOLTWzSMvNf9kPJL1+cZy4ekmPO7j9LP7TIV/tyUxzhFHEnY/EHCEbgkx3YxNM8tIh7rwQeaRAvAVc6I8hhMgm6UqYgXydLQLps6By9oEG+bpZLGqSv7fNZpVquIDu6k4oqtW5Sdnbnlm7roiC7glJTGaZrdqURv4R96W8qJRxy+G6WfU0Sy6vM5EWV2phfXjMJpFLuIQf1pMb0ptEF5sfD87TeWT5gfMu+9l+zgVR21OU9kfdGbpuS8hHGLOJe+RyBCHyEOcgO2jE8uIids4srAUrCrtRIHtU7XXf8JGDJvfMSfCVwycEzCb+n9svSa3Yl/F79/L9rdaUPrpQ09JmywjzlrjLPzVijh9LGzC3ThvZyOC3dBr4ZKzfr1bzZq6tNTskW/YpcwrGEwoJ1tXqATXYpi8rqPnXhhjptjC/K3+/8/8m/K/+N/Lfya8ivJX145deWnyE/a7r9mVI//In9PcjX8XL5hPQtHZ5ZavonVusutYTOf7y/WHeuJXjKLvaPnsvVsg3pInFC30y93lReC3lN5LWR10heK3nNdg6jXH+K2OGO0SwA4CtSxh7uRNwEDzAiImKoLiFIaAYA8CXSz40esIiIiPRyBfAN0tct4pbyQCMiIgZ6x7WUXq4QHJLi5zjRRAUPNyIiYhC1a3wk/XsEHggWMfdSO8CrecAREREDZTWXEEBwSU78zA7yBh50RETEQNioaztAoImm32wHeysPPCIioq9t1TUdICQlBL93uEYWERHRr8oa/gcCDYSLSOJeHn5EREQfGov3IMhASEsIEslMAoiIiH5qiRXvSYCBkO/Axh9mMkBERPRFcH2Y4AKgO7DxvkwKiIiIXi4VcB8jsAB8tgb2aSYHREREL+642jUaAHa1A+sOZpJARET0lIMJKAC7xRzkRNyhTBSIiIie8DldmwFgDwE25g5iwkBEROzWGtdBBFcAamARERF9YLw/QQRgf5CTjUwiiIiIdBUA8M8hrkQfJhNERMSu0K65ANARJQTxnkwoiIiIndkOi5uzADq6BvZe+3C1M8EgIiJ2qO1OLN6DoAHQKTWwibvsQ9bCRIOIiNgh2jU1/kcCBkCn1sCm32wftkYmHERExAOy0YnEf02wAOgKkuNX24euhokHERFxv5Q19KcECoAurYFNu8Q+eJVMQIiIiPvUCmuj9VKCBEB3kBQ/x4m4pUxGiIiIe+VaXTsBoBu5L36KfRgXMiEhIiJ+oQt1zQQAL5QQTP2qE01kMTEhIiLu0unOA5lfITAAeCrAzjrKPpwfMEEhIiJ+xrFOSsaRBAUAL3Lb2EOcaHw4ExUiIqIYf9ZJSTmYgADg+V1YN+ZwGxciIoZXuTUrQiAA8BMx91b78DYwgSEiYsiUywduJwgA+HIHNnGZfYjLmMgQETEklunaBwA+ZlsrrUImNEREDLiFtMICCAq9so51Yu4kJjZERAykEXeyrnUAECCkE0EkMYRJDhERgxVc7domaxwABLYO9m77sG9lwkNERJ+7Vdc0AAhDgE27yj705Ux8iIjoU8t1LQOAEBFNPdk+/HOZABER0WfO1TUMAEKIXJcXdd9kIkRERJ/4pl6HDgBh34V1o9YWJkVERPSorbpWAQD8O8Cm/dyJuRuZIBER0VPq2mTXKACAzxFLnGonilwmS0RE9Ii5TlLGaSzQALB7ekw5wom4LzJhIiJi95p4Sc9mAADsXRlB4k928qhn8kRExC62XtcgAIB9Jjn1PDuBLGYiRUTELtptXaxrDwDAfnNPxjF2QhnDhIqIiJ3sGF1zAAA6hIj7V8oIEBGxU8oEZI0BAOhwYqnftZNMARMtIiJ2kAW6tgAAdBp6K1dimJ1w2pl0ERFxP23XtYRuAgDQZUTTb+ZSA0RE3L9LB+waAgDQ5UQSJ9qJKJ3JGBER99J0XTsAALqvjCDlYCeaSLYTUhOTMiIi7sYmXStkzQAA8ATaE5bDXIiIuItDWfRuBQBv7sKOPdyJxvvbiaqVyRoRMfS26Zog144DAHiaWPwKO2kVM3EjIobWYl0LAAB8Q6+sY51o4iVaaiEihq0FljtK1wAAAF+SFL+GXVhExFC4Sud8AADfI3dVR90R2+qfmOAREYNX22rneJnrAQACRSxxpRONL2eiR0QMinZOl7kdACCwRGYdZSe8wezCIiL6frd1sM7pAADh2IV1L7UTXz4LACKi78zXORwAIHSkZBzqxOIROxHWshggInpemaujOncDAISaaOrJ9lP8JBYGRESPKnP0ffFTWLAAAHYmkrjFibilLBSIiB5R5mSZmwEAYDdIY+uYO8hOmi0sHIiI3WaLHsjisgEAgL0k5p5rP/EnWEAQEbt8tzWhczAAAOxXiL3VTqYlLCiIiJ1uic65AABwgGhv2PgTdmJtYHFBROxwG3SOpWcrAEBHh9iMM+wkO4GFBhGxw5ygcysAAHQiyfGrueAAEfEALxqQuRQAALqIlJSDnZj7e+phERH3sa416v5B51AAAOgGtB420YdbuhAR93Q7lp0rqWsFAPAISVNPsBPzC/SHRUT8X/1aY/F/6RwJAABe3InNOMOJue/YCbuNRQsRQ2ybzoU9085kYQAA8MVObNqFTsSdzAKGiOEz/rHOgQAA4ENi8SvsZJ7JYoaIITBT5zwAAAgAyfEb7MSey+KGiAHcac3TOQ4AAIKGOchO9Dda57DYIWIAnKNzmsxtAAAQcKLp1zuR+GwWP0T0oTk6hwEAQAiJuL+yC0E2iyEi+sBsJ5a4jokbAAAcJ+Ze60QTLosjInrOiJvQOQoAAODzO7Fpl9jFYhx9YhGx2/u0ylwUcy9lYgYAgD0Tdc+yjrI2sYgiYhfatH3uOYuJGAAA9p1ead92Yu4zdiGpZlFFxE60WucamXMAAAAOPMRmHetEEvc60fhyFllE7MAercudWLyHzjEAAAAdTkrKwTbE3sThLkQ8MO0cInOJzCkAAABdQiT+fbsIjbY2shAj4l7YqHNGsns+EygAAHQfPaZ83QbZnnZRWsHijIi7cIXOETJXAAAAeAb5+i8W/6VdqCZYW1mwEUNtq84FMidQGgAAAJ4nkjjRicb72sVrHYs4Yqhcp89+r4yTmAgBAMCHu7EZhzqR+K/tgvaBdSsLO2Ig3arPuDzr8swDAAAEguTUbzixeMQuckUs9oiBcJE+0/JsAwAABJok93In4r7I5QeIPrxMQJ5deYYBAABCR2TWUXYh/K1dED+irADRw2UBEXeyE0v8Tp9ZAAAAcLa33JJbvNyZ1nYCA2K32q7PojyTtLgCAADYA7HEqU400duJufMIEYhdqD5z9tlLyjiNiQgAAGB/iGSc4cTiDzjReB7hArFTLLCBtY9zf/rZTDgAAAAdiewGRd3o9tKCNkIH4n6XBOToDmvPtDOZWAAAALqCXmnftgvwP52YG7d/bSaQIH6hzduflX9ygQAAAEB30zt+nF2U73CiibfsXzcRVBDVTdufiTv0GQEAAAAPctvYQ5xY/Aq7YD/FgS8M54ErGfv2GZBnAQAAAHxG0tQTnGj8j3ZBf9NaRsDBgFm2bWzbMS5jHQAAAIKEOchJds93Im7MLvhTrfWEH/SZ9Tp2ZQzLWJYxDQAAACEhJeNIJzl+tRON97WBIN3aQDhCj9mwbWzaMSpjVcYsAAAAwLYwO/ZwJyntx07MfWj7zmwN4Qm72BodezIGZSzKmAQAAADYuzCbcagNEZc6sXgPGyjGWFcQrrCDXaFjS8ZYJHGZjjkAAACADkPueY+6NzqxRL/tfTOrCWC4l1brmJGxI2NIxhIAAABAl5KScrANImdt6zPrDrCmOdFEBUEt7OoYSNs+Ju7QMSJjBQAAAMCTRBInOtH0m52I+6j9+/H2r8tsgGkl1AXOFutS6zh9r/U9t+89AAAAgP8D7ayjnFj6xdv6zsb728AzYXvwaSEEet6t1kUaUmPuY7qbKq2qOFAFAAAAoUMC0P3pZzuRxE3be9COdKIJ1/61mGDbxQFVdsgj7hT7+g/bdlAv/Xp9b/6edxgDFQAAAGBPSGjqmTjdibnX2nD7ZxuqUmzIenl7K6+FXLSwTzY60fhy+xpOs3//uvVxG1T/6iTFr9HXmJP+AAAAAF1AZOpX9SvsWOK6bSUJiWQbzAY7kfgb229jmm//uj6gu7gt+mfb9mecuv3PLH/2nvpayGuir03G8QwUAAAAAL/RO36cDXSnOtH0C/TGppj7Gxt2/2RN0lucIokhNgi+aAPgm9ax9p+l2v+dsH/Ns/+70LpyezlD1S5s2U243NW/W7z91yrUX3vbz0jd9jPdMfp7kN+L3n4mvzf7e5Tfq/yek9Iu1D+D/FkAAELE/we3+wbI7vpyMgAAAABJRU5ErkJggg==" vertex="1" parent="1">
          <mxGeometry x="990" y="103" width="187" height="187" as="geometry" />
        </mxCell>
        <mxCell id="UInGQhhdpgO1K5RLCYIn-13" value="delete" style="text;html=1;align=center;verticalAlign=middle;resizable=0;points=[];autosize=1;" vertex="1" parent="1">
          <mxGeometry x="495" y="310" width="50" height="20" as="geometry" />
        </mxCell>
        <mxCell id="UInGQhhdpgO1K5RLCYIn-15" style="edgeStyle=orthogonalEdgeStyle;rounded=0;orthogonalLoop=1;jettySize=auto;html=1;exitX=1;exitY=0.5;exitDx=0;exitDy=0;" edge="1" parent="1" source="UInGQhhdpgO1K5RLCYIn-16">
          <mxGeometry relative="1" as="geometry">
            <mxPoint x="591.5" y="787" as="targetPoint" />
          </mxGeometry>
        </mxCell>
        <mxCell id="UInGQhhdpgO1K5RLCYIn-16" value="USER123&lt;br&gt;&lt;br&gt;MYFIRSTPROJ&lt;br&gt;MFP" style="rounded=0;whiteSpace=wrap;html=1;" vertex="1" parent="1">
          <mxGeometry x="161.5" y="607" width="200" height="300" as="geometry" />
        </mxCell>
        <mxCell id="UInGQhhdpgO1K5RLCYIn-17" value="" style="rounded=0;whiteSpace=wrap;html=1;fillColor=#dae8fc;strokeColor=#6c8ebf;" vertex="1" parent="1">
          <mxGeometry x="601.5" y="607" width="280" height="463" as="geometry" />
        </mxCell>
        <mxCell id="UInGQhhdpgO1K5RLCYIn-18" value="ami: 123&lt;br&gt;ram: 2gb&lt;br&gt;storage: 20gb" style="rounded=0;whiteSpace=wrap;html=1;" vertex="1" parent="1">
          <mxGeometry x="421.5" y="787" width="120" height="140" as="geometry" />
        </mxCell>
        <mxCell id="UInGQhhdpgO1K5RLCYIn-19" value="NODE JS" style="rounded=0;whiteSpace=wrap;html=1;" vertex="1" parent="1">
          <mxGeometry x="621.5" y="647" width="230" height="140" as="geometry" />
        </mxCell>
        <mxCell id="UInGQhhdpgO1K5RLCYIn-20" value="POST" style="text;html=1;align=center;verticalAlign=middle;resizable=0;points=[];autosize=1;" vertex="1" parent="1">
          <mxGeometry x="436.5" y="757" width="50" height="20" as="geometry" />
        </mxCell>
        <mxCell id="UInGQhhdpgO1K5RLCYIn-21" value="TERRAFORM" style="text;html=1;strokeColor=none;fillColor=none;align=center;verticalAlign=middle;whiteSpace=wrap;rounded=0;" vertex="1" parent="1">
          <mxGeometry x="651.5" y="917" width="40" height="20" as="geometry" />
        </mxCell>
        <mxCell id="UInGQhhdpgO1K5RLCYIn-22" value="" style="shape=umlActor;verticalLabelPosition=bottom;verticalAlign=top;html=1;outlineConnect=0;" vertex="1" parent="1">
          <mxGeometry x="241.5" y="677" width="30" height="60" as="geometry" />
        </mxCell>
        <mxCell id="UInGQhhdpgO1K5RLCYIn-23" style="edgeStyle=orthogonalEdgeStyle;rounded=0;orthogonalLoop=1;jettySize=auto;html=1;exitX=1;exitY=0.75;exitDx=0;exitDy=0;" edge="1" parent="1" source="UInGQhhdpgO1K5RLCYIn-24" target="UInGQhhdpgO1K5RLCYIn-26">
          <mxGeometry relative="1" as="geometry" />
        </mxCell>
        <mxCell id="UInGQhhdpgO1K5RLCYIn-24" value="USER123&lt;br&gt;-- MFP&lt;br&gt;" style="rounded=1;whiteSpace=wrap;html=1;" vertex="1" parent="1">
          <mxGeometry x="631.5" y="797" width="220" height="100" as="geometry" />
        </mxCell>
        <mxCell id="UInGQhhdpgO1K5RLCYIn-25" style="edgeStyle=orthogonalEdgeStyle;rounded=0;orthogonalLoop=1;jettySize=auto;html=1;exitX=0.25;exitY=1;exitDx=0;exitDy=0;entryX=1.009;entryY=0.705;entryDx=0;entryDy=0;entryPerimeter=0;" edge="1" parent="1" source="UInGQhhdpgO1K5RLCYIn-26" target="UInGQhhdpgO1K5RLCYIn-17">
          <mxGeometry relative="1" as="geometry" />
        </mxCell>
        <mxCell id="UInGQhhdpgO1K5RLCYIn-26" value="" style="shape=image;verticalLabelPosition=bottom;verticalAlign=top;imageAspect=0;aspect=fixed;image=data:image/png,iVBORw0KGgoAAAANSUhEUgAAAq8AAAKvCAYAAABEYSadAAB94ElEQVR42uydCXiU1dm/x6Xu2ta11lZrrUtbl662Vbva9l9rrXZRu9ja5atttVSSCbsQEEVAEAVFFFcWF0RERCSZmYRsZCEJZIEskEAWCCFk39fn/z4H0iJlSzIzmXfe+76u+/rafgrJmXfO+c2Zc57H5QIAAAAAAACAEGXEmrNc//Zc7IryXuuKiP2uK8JzuyvCe6/L7X3QFemLdkV6Z1v//Tnrf19k/edllh9Y/z+PK9KTaf3nTZYl+622rDvINks5yLZD/HPVB/w5m8yfbf4O6+/Sv1P/bv0Z9GfRn0l/Nv0Zzc9q/cz6s+vvoL8LAAAAANiMkfEfc0XFXG0FvJ+43L4/WP/XbQW+WVb4e3V/INTQudOy+xDh0u527//dNu3/XV81v7sZAzMWP7FC7zWuB7zn8KAAAAAABJro+BNdIz2fdUXG3mx2H/ftjr5gudZys2VzGAbSQNlmjWGxZfy+YO+ZbPkXa3x/aIX/S113LjuBBw4AAADgqAF12UmuB+OudEX4brNCVaTL7Xl2/9foJWG6WxqqdloWWeF2jfUhYa71OoxwuX23mNfmvsyP8KACAACAw0Jq/Cmukb6vWAHpHstplitMWCKg2sEuyy1WsH3L+mAxxfrPd5ujGvrBAwAAAMD2RPguckV5brVCzkTL5ftDag8hMBzP3PoKzGsc4Z1kXnN97QEAAABCkujo463gcoUrwnOX9X9nWMZaYWYPoc7pmmfAehY80/c/G1eYZwUAAAAgqIxYc57ZXXP7pu4/l9pAUMNjtME8M/rs6DOkzxIAAACA39Db5+64r5qLO5Hexa5Iz1YCGPpX80wt3nc5zHrWqHgAAAAAx4zeKB8Ze6MVJsbtu3HubSJcYZBt2v/sjTPPIlUOAAAA4D+MWHOyK8rzPVM7NcLrswJDK+EJQ8zWfc+m9Yzqs6rPLAAAADgI7bbk9kTs78ZEWEX7hdl9z26keZYBAAAgzBgV/4l9bUI9i6wFv4rwg2FmlXm29RnXZx0AAABshl54ifTdsL8JQLZlHwEHHWLf/md+mnkPcPkLAAAgRBmx5qz9tTQXW9YSYhCN+l5YYt4b+h4BAACAYUS/Io3w/WNfIXjTk56wgnh4O817JcJ7Px3AAAAAgsW/PRe7In0jrUU40bKXQII4yOMFEZ406700xhUR/zkmFgAAAH+ii6suspHeDM6vIgbEbJfbO941KvZyJhwAAIDB4PZd4orwjNp/+YRwgRgs3d6N5r2n70EAAAA4Ag94zzHn8SJ9yeywIoZC5QLzXnzA5Y4/lwkKAABAiVh/qrU43u1ye1dZ/7eLwIAYkup78z3zXtX3LAAAgONwx33V5fY8ay2GDQQDRFvZ4IrwPmfewwAAAGFNVMz5+9uy5hIAEMPCXPOe1vc2AABAWKAdfiI8t1uL3EqOBSCG9bGClea9TlcvAACwJVoEPdIXbS1olSzsiI6y0rz3aYQAAAChjxxnLVg/thavFZbdLOKIjrbbzAU6J0RHH8/8CAAAoYOW0Yn0RbkiPVtZsBHxf7XmBlM7lpJbAAAwnER4rrEWpoWW7SzOiHgMtps5Q+cOAACAoKBf/0V6f+Zyez0sxIg4eH1eM5dwpAAAAALC/fFnuCJ8/3JFeItZdBHRb+qconPL6OQzmWgBAGDojFx7obXAzLCsZ6FFxABab+YanXMAAAAGzKjYy12RvuetxaSDRRURg2iHmXt0DgIAADgqEbFfc0V437IWkF4WUUQcRnvNXKRzEgAAwP/g9v5o/wUKFk1EDL3LXTpHAQAAuCK8P7EWhfUsjohoA1PNnAUAAA4kMu6nrghPGoshItqvQoHOXdYcBgAADiDKc6s1+aezACJiGJhh5jQAAAjTndZI7wYWO0QMQzewEwsAEC64PTdZE3siixsiOsBEM+cBAIAtd1qvc0V4V7OYIaIDu3atNnMgAADYgIj4z7nc3tep04qIjq8Tq3OhzokAABCCmDauvvnWhN3NooWI+B+7XW7Ps7SdBQAImZ3W9adaoXWCNUE3s0ghIh7WZjNX6pwJAADDgRzncvt+a03IZSxKiIjHbJkrwvM7V3T08awjAADBIsrzPWsCzmYRQkQctNlmLgUAgAAyyneZNeGuYNFBRPSbK8zcCgAAfkTPaLl9U61Jto2FBhHR77aZOZbzsAAAfsDt+SXnWhERg3QeNtLzKxYeAIBBhVbvFyw9LCaIiMHW5zVzMAAAHAP3x59hTZqzrAm0iwUEEXHY7DJzsc7JAABwGCI8t7sivBUsGoiIIdNqtsIKsXewQAEAHEhkzKetSXIlCwUiYqjqedfM1QAAjiY6/kRXpG8k3bEQEW3TpWukmbsBAJx3RCD2a9ZEmMVigIhoO7PMHA4A4IzQqjVbzYWsHhYARETb2mPmcmrDAkB4B1fvty2LmfQREcPmQlexmdsBAMKKqJjTXZGeedZE18tkj4gYdvaaOZ6yWgAQFkTG3mxNbKVM7oiIYW+pmfMBAGzJ6OQzrYlsgWUfEzoiomPsc0V4nzNrAACAbRgZe6M1gZUwiSMiOtYSl9tzEwsiAIQ20ctOckX4HqOSACIi7lsLPNPN2gAAEHJExVztcns3MlkjIuKH1LVB1wgAgNDYbY0+3hXhdVsTVDuTNCIiHsZ2s1bomgEAMGxE+C6yJiMfkzIiIh6jcWbtAAAYhuB6mzUJ1TARIyLiAI8R7HVFxv2chRQAgsOINSdbk89TlMBCRMQhldTStUTXFACAgOGOuYpLWYiI6NfLXLq2AAD4nUjPX6yJpoXJFhER/WyLWWMAAPyC9qqO9C5hckVExAC7xKw5AACDRuvyRfoKmFARETE4WmsONWEBYJDHBP5oTSStTKSIiBhkW10R3ntZiAHg2NCbn27Ps0yeiIg4zC6gGgEAHJl/ey62JosNTJiIiBgibjBrEwDA/x4TiL15X+FoJktERAy1pgbWGgUA8N/g6htpTRDdTJKIiBiidrvcnggWbACnEx1/ijUhLGZSREREm7jYrF0A4MTd1phPc74VERHtpyfTrGEA4CAivN+2JoBqJkBERLSp1WYtAwAn7Lh6/27ZxcSHiIg2t8sV4fsHCztAuHLnshOsN/kTTHaIiBhW6tqmaxwAhBHaK9rtXcUkh4iIYVpOa5VZ6wAgDNDizm7vRiY3REQMc3NpaABgdyJ811tv5iomNEREdIhVZu0DABvi9v7aehO3MZEhIqLDbDNrIADYacfV67bevL1MYIiI6FB76cgFYAf0tmWkby6TFiIi4v5KBNHRxxMQAEJyt3X9qdYb9R0mK0RExAMrEfjedI1YczJBASCkguvas603aBKTFCIi4qH0rXONTfo4gQEgFND+zpHezUxMiIiIRzTfrJkAMIy4Y65yRXgrmJAQERGP5QystWaO9HyeAAEwLME17qvWG7GGyQgREXFA1rgiYr9GkAAIJlGe71lvvkYmIERExEHZZNZSAAgCEb7brDddOxMPIiLikLTW0rifEywAAkmk9x7LbiYcREREv9ht1lYACEhwfcCyj4kGERHRr/a5Inz/ImgA+PWogGcUkwsiImIgKxFYay0A+GXHdRyTCiIiYhB0e8cTPACGFFw9k5lMEBERgxpgpxBAAAa34zqNSQQREXFYnEYQARjYjuvjTByIiIjDugM7i0ACcCxEeJ9k0kBERAyFS1zWmgwARzwqMJvJAhERMaScTUABOPSO66NMEIiIiJyBBbDDGVeqCiAiIoa01loNABZaU45JARER0Qb6JhBcwOlHBdxMBIiIiLYKsFEEGHDq5awHmAAQERFt6QMEGXDaUYHfWw9+H29+REREW9pn1nIAZ+y4xv3ceui7eeMjIiLa2m6zpgOE+VGB71u28oZHREQMC1tdUb4fEHAgTC9nxX7NesgbeKMjIiKGlQ2uCN/1BB0IszOuMVe5In17eIMjIiKGZQWCPS639wsEHggPRsd/yhXhreCNjYiIGMbqWq9rPoCtGeP5qPVA5/KmRkREdIS5Zu0HsCXRy06yPoX5eCMjIiI6agfWZzIAgL2Q46wHeAlvYkREREe6xGQBANsQ4XuMNy4iIqKTd2CtLABgCyI9/+RNi4iIiK5I3xiCEYR6cP2V9bD28GZFDI4nRPnkI6N8cvLoODnF8tQxcXLa2Hg53fKMcfFypuVZ49fJxyask09EJ8pnHkmWq6anytfmZMh3n8mSnzy/UX7xco78fkm+3LesQCJWFsu497fJw7GlMjNuh8xLqpCFaTvl1Q275PXs3bIid4+s3lIjMYW14ttaJ+u21UliSb2s394gqTsaJL2s8T9mVjQZM8r/+7+lWeo/m1Rab/7dOOvPiC2qlfe37DV/9hsbd8vizCp5wfo7n0mukFnxZfKIZ7s89EGJuFcVyz+WF8gflubLL1/OlZ8u3Cjfn58l1z+ZIV+YkSqffTRFPjk5Sc5+KMH8zvq76xicvn88dFx0jHSsdMx07I5z8wwhBtg+V4TnLgIShCZRcd9w0T0Lcchh9KRR+0KoBi4NYedMTDDB89MPJ5uQ9s2nNsgtVuj8nRU4R6wokikxpTI3qVxeTN9pAubKvD3yQcFeibfCoQbKnF3Nsm1vm+xu6pTG9m7p6O6Vvj4JK7p6+qS5o0eqmzultLZN8qqaTVjWgLy2cK+8m19jgvHLGbtMKH7Uu11GriySP762WW57cZPcOC9Trnk8TS6emiwXWgH4XGvMP2qNvYZffS008J5I2EUcrK0mIwCEFFrXLdK7izco4pHVHT8NpBpGL30kRT5vhdFvzd0gt7+UI39/q0BGvbfV7Ho+kVAmz6dWmsClO5waxiobOqStq1cgMHT29JqAX1DdIgkl9fJWTrXZAX4qsdyE3bGrt8n9bxfKr17JlW8/nSlfnJkql+3f7dWdbf3QQbhFPKxV1ICF0OH++DOo5Yq4T90t1TCjofQbT2aYHVLd3dPQM2b1VhOCdPdPvyrPr2oxO4W94bYN6hBqW7ukaE+r2eFeklUlM+J2mCMX/36nSP78xmb5+f4d3atnppldc/3QQrhFx9eAHbHmLIITDC93LjvBFel5lzckOsXj3T45f1Ki2XXTM6N67vLuRXnmvOjU2FLz1b2eB928u0Xq27pJeA5HjzJsrWkzAXdR5r6A+4D1Qea3i/PMcYUfzM+SL81ONx94dOeW9xiGv1Zm0OwAMGxE+J7gjYjhqH4NrOdLb5qXaQKqni8d//4281W+XljSc6R7mjvNV80Ag6G7t898wNlifdDRDzy6Iz85plTufX2z/OyFTebD0XWz0syHJd6TGGYBdg4BCoYruP6DNyCGQ0j93LQU8xX/na/mmjOnGlD1wtPGyibZXtsue1u6zIUggGCgp0jqrFBbVtduzjp7i2tNtQetuKBVIfQD1ZXT18t5hFq0dw3YfxCkIMjB1ftt6+Hr5A2IdlLPHOr5Q/2aP3ptibyWvduUedKQql/t1vE1P4Q4TR09ppqC7vynbG8w5cUe8203u7VffSLdlAnToy2839EGdrrcvu8QqCCIlQV8e3jjYSiri7h+7arlkF5K32V2r7IqmqS4ptVctAEIJ7QEWsneNvNBTCslLM2qkglrtpk6vlrZgjkBQ7SBwR4qEEDgue+906wHbgNvOAy1oPrDBdky8YMSs2hrUNVzhFr2iNJS4FT0PLaey9ZvFTTQag1grXahVRD0ghhzB4bI+ddMky0AAkak91XeaDicasH4L89Ol7sW5ZmdJS0+r+dS9eILl6cAjoye3dZdWq0ZrJfEtELGPUvz5Ya5G8yxGuYYHJ7zr55FBCwIUHD1jeRNhsEsSaWlg/SmtbYy1QVWy1AVVrdKS2eP6RKlt7UBYPD0WO8h/dCn31DoBTFtzPDP5YUmzGptWm2nq13fmJMw4Lo9EQQt8HNwjb3Zerh6eINhoNTWm/2dp7RXfcTKYlmVX0MRf4BhQN9yDe3dpj6tHsfR8+OfmvLfTmLMWRgAe1wjPT8kcIF/+LfnYi5oYSB2VnUh1AVRy1RFrSo2Xaf060wACD30/GzqjgbTvvh7Vpi9eGqynDMxwbQ8Zk5DP1njcvsuIXjB0IhedpL1MKXyhkJ/eNrYeLnICqvffGqDuK2wumxTtelEBQD2Q6sbaMMO3ZnVMHuJFWbPGBfPXIdDNd1kD4AhnHOdyxsJh6IuZtolSHu9P51cIb6tddLezcUqgHBDd2UXpu2UESuKzNEfrQLCHIiDrEAwjwAGg60scDdvIByMWobnluc3ytjV20w/dy3VAwDOoaqp01z+0na3v3olVy57NIW5EQdYgcD7G4IYDAx3zFXWw9PEGwiPVW1X+bsl+aaOpKeo1nQCAgDQ8lzrtzfI7HVl8pc3tshXnkhnzsRjsdlkEYBjYl8jgs28cfBofmFGqilh9WRiuelexXEAADgSWjlEG4ho17u/vrnFHC9gLsUjuNkVFXM6wQyO5bjAEt4weDjPHBcvd7yUIy+k7TSXrbTgOQDAQGnt7DFHipbnVJsz8RfQxhYP7RKCGRztgtafeKPgodT2q69k7JKcXc1S09LFygsAfkM/BOuH4bdzq+XuRXly8mhqyeKB5199fyagwZHOubbwRsF+vzQ7XeYklEtmRROBFQCCgjZHyKtqNkcLbn42m7kYxWQTzr/C/zBizcnWw5HNG8TZHufeVylg5MoiWVOwV+rauk37SACAYKNdvvTip3b5mrS2xFwK1TmKudqp7WO9G01WATjgnOtTvDmc66lj4uT787Nkum+HlNe3E1gBIKTQi176Yfr51Eq5/aUc+ej4daZLH/O30/TNJbDBPiJ8t1kPRR9vCmd5YpTPtHf89Su5ZpcVAMAupJc1yt+WFcgVj62XUzgf6yT7TGYBhzM69pMut3cvbwhnVQu4emaajHpvq2yvbWcVBADboruxs+LLTMmtcybS0cshxwf2WgH2IgKcU4mOPt56EOJ4MzjDc62J/bvPZJkSV1qiBgAgXNDzse/k7TGd/T41JYk5P/yNMxkGHHnONZI3gDNC689e2GRK0BBaASDcQ2zc1jq59/XN8umHk1kDwttIgpzTiIq52nrh23n4w/sSlna/Wpm3h9AKAI7DZ4XYiJXFND8IX9tNlgGnHBdYdpIpOcGDH5bq5YXfLcmXZZuqTU9xAAAnE1tUK/9cXkiIDU83mUwDjjguMI0HPjxrtP7i5Rxz7qu5g51WAIB+tPyfHifQCgWnjY1nzQgrPdMJduHOyNgbrRe7h4c9vLxh7gZ5LXu37GnuZJUCADgMLZ098kHBXrnjpRzWjvCxx+X23ETAC1fujz/DepFLeNDDR72Q8Exyhexs7GBVAgA4Rva2dMmbG3fLdbPSWEvCwxLX6OQzCXrheVxgAQ94ePiRUT4ZsaJIyuraTecZAAAYONXNnTIzboec/RA1YsPABQS9sAuusTfTRcv+ajtEbeOaVFovnT29rDwAAENEz8Nu3t1iqrOcEEXLWVt339KsA2F1XKCUB9ve6s7AdN8OaeIyFgCA3+m2QuwrGbvk8mnrzQVY1h1bWmoyD4TFcYGneKDt64lRPvnRgmxJK2tkdQEACDA76trlN4vzqEpg3+oD8wh+dkdv4EV6e3mY7dsda8zqrdLezREBAIBgMi+pQi6eSpcuG9pL9QE7E7H+VFeEt5gH2Z5+YUaqqdkKAADDQ3pZo9z8bDZrkt3U7KMZCGx5XGA2D7E9/fUruVJQ3cLKAQAwzNS0dMk/lheY7oWsT7ZyNkHQdruusV+jGYE9z7fqMYH6tm5WDACAEEFbbWtN7Y9PWMdaZafmBZqFwCbcuewE60XL4sG1l6eOiZPnUitN2RYAAAg93ttcY5rDsGbZxiyTicAOxwV8I3lg7eV5kxJleU41KwMAQIizfnuDXPM4nblso9sTQTAM+eAa82nrxWrmgbWPeptVe20DAIA9yN3VLNc/mcEaZg+bTTaCkL6ktZIH1T5eYgXXuK11rAQAADajaE+rfGvuBtYye9R+fZeAGLI1Xb138IDa66iAj+AKAGBbCqtb5cuz01nTbFE+y/cLgmKoMTr5TFeEt4IH1B6ePDpO3s2vYeYHALA5WRVN8tlHU1jbQr/2a4XJShBSu66zeDjtE1wXZ1Yx4wMAhAkJJfXyiehE1jhqv8IxExVztfWCdPNQ2qeOK+1eAQDCi+dTK2lkEPp2m8wEw40c54r0reOBtIe3v5RjurUAAEB40d3bJw++UyQnRPlY70JaKzNpdoLh7KTl+R0Poj381JQkya5sYoYHAAhTdjZ2yA1UILDB+VcrO8EwcX/8GdaLUMmDGPrqV0kz43YwswMAhDmr8mtoIxv6VpoMBcNS03UaD6A9/MH8LGlo72ZWBwBwAH9+YzNrX+iXznqMIBn8S1qXWoPfzgMY+p4xLl7eovUrAIBjyK9qMU1oWAND2g6TpSCYZ119b/Pg2cOfv7hJOqguAADgKP61otBUmGEdDOnd17cJlEGr6er7Dg+dPTx9bLwsoqYrAIDj0Au6Zz+UwFoY6mqmgmCUxvJm8MDZw68+kS5tXey6AgA4jb4+kd8vyZfj3KyFIe4GSmcF/pLWPTxo9vCkUXHycGwpMzgAgEN5c+NuOXUMjQts4D0EzICdc11/qjXAZTxk9rmo5dtax+wNAOBQSmvb5NyJHB2wgWUmY0Egzrp6x/OA2ceLpyZLbSvdtAAAnMz/e24ja6I9Om9NIGj6mwe9F1iD28jDZR/veCmHWRsAwOFM9+1gTbSHjSZrgV/Pui7gwbKXj3i2M2sDADic2KJa1kT7uIDA6S9G+S6zBrSbh8pe0pgAAAA2VjaxJtrHbteo2MsJnn7ZdfUt5YGyn0ml9czaAAAOp6C6hTXRVnpeI3gOObjGXWcNZi8Pk/3MrGhi1gYAcDhba9pYE+1lr8leMJTyWN7VPEiEVwAAsCfb9hJe7dc21speMNjSWJ6beIgIrwAAQHjFYLeNtTIYDKrCQBIPEOEVAAAIrxh0kwiiAz/r+lMeHMIrAAAQXnG4tLIYDGjXdQMPDeEVAAAIrzhsbiCQHitRnlt5YAivAABAeMVhVjMZHNOuazoPDOEVAAAIrzjsZhBMj1phwHcLDwrhFQAACK/I2Veb1HX1pPGQEF4BAIDwiqFS99XKZnDYhgQ/4SEhvAIAAOEVQ63uq+8Wguqhz7qm8oAQXgEAgPCKIWcqQfV/zrp6f8SDQXgFAADCK4bq7quV1eBDu65xPBiEVwAAILxiqOrzElj/E1w93+SBILwCAADhFUN+9/XrBNd94fVdHgjCKwAAEF4x5F1OcHV7v2ANRB8PA+EVAAAIrxjy9lpe4fSzri/zIBBeAQCA8Iq2caFzg+vo2E9aA9DJQ0B4BQAAwivaxk7XyLUXOvWs6+M8AIRXAAAgvKLdtDKc47g//gzrl6/nxSe8AgAA4RVtZ73Jcs66qOUZwQtPeAUAAMIr2rVslpXlHEN0/InWL13CC094BQAAwiva1jKT6RxBhOcuXnDCKwAAEF7R5mqmc0Z49cbzghNeAQCA8Iq2bxm7zgkVBr7MC014BQAAwiuGTeWBL4d7R61XeJEJrwAAQHjFsPHlMA6u8edav2AbLzLhFQAACK8YNraZjBeeRwZ8Y3iBCa8AAEB4xXArm+UdHYblsaKPt3657bzAhFcAACC8Yti53WS98Np19f6MF5bwCgAAhFcMW38WbuWxVvOiEl4BAIDwimFbdeD9MLqo5bvE+qV6eVEJrwAAQHjFsLXXZL4wCa9TeUEJrwAA4Dy21hBenXVxy8p89r+oFX+i9cvs5AV1ninbG5i1AQAcTkF1C2uis9xlsp+9z7p6bueFdKbv5O1h1gYAcDgbK5tYE52mZj+bVxlYyQvpTGfG7WDWBgBwOHFb61gTnedK+wbXqJjzrV+gixfRmd69KI9ZGwDA4TyZWM6a6Dy7XQ96L7BrR60oXkDnetmjKdLY3s3MDQDgYG5/KYc10ZFaGdCmRwbyefGc6xnj4iW5tJ6ZGwDAoexs7JALJyexJjrTfBte1PJdzwvnbE8eHSdzEsqZvQEAHMq7+TVy2th41kTHXtyysqDNjgzM54XDG+ZukK6ePmZwAAAH8rdlBXJClI/10LE1Xz3P2mjXdf2p1g9dzwuHZ41fJytyKZkFAOA0Cqtb5aIpHBlwuA0mE9rkrOvdvGB4YNWB3j52XwEAnMTY1dvkI6PYdUUrE9ojvHre5cXCfj82YZ3EFtUykwMAOISyuna5anoqayCKyYShf2Rg7dnWD9vJi4UHeuvCTdLW1cuMDgDgAB54u5C1D/vtNNkwpHF77uOFwoM9fWy8LEzbyYwOABDmJJbUy/mTEln78MCLW/eF+nnXOF4oPJRfmJEqxTWtzOwAAGFKfVu3/Pi5bNY8PLhhwbrQDa6jYz9p/ZC9vEh4OP/0+mZp7uhhhgcACEMmx5TKSaPiWO/wYK1sGPPpUN11jeQFwqM1LpgVX8YMDwAQZmhDAu2syFqHh25Y4BkVqlUGMnmB8Fhqv67eUsNMDwAQJuTuapYrHlvPGodHMisEqwzEf44XBo9VLVydXFrPjA8AYHNK9rbJjfMyWdvw6I6KvTzEqgx4R/PC4EC8emaa5Fif1gEAwJ7sbOyQ217cxJqGx3pxa0yonXfN4EXBgfqVJ9Jl8+4WVgAAABsG1zteymEtw4GYETrB9d+ei60fqI8XBQfjNY+nSX4VARYAwC6U17fLLc9vZA3DgdrncvsuCZFdV99IXhAcinrQP2V7AysCAECIo2dcfzA/i7ULB9uwICJUjgwk8YLgUP3UlCR5O7ealQEAIETJKG+UbzyZwZqFQzn3mjz8wXXk2gtpTID+LKM1J6Fcunv7WCUAAEKI5TnVctmjKaxVOPSGBZodh7dElvd+Xgj0p8e5vfL3twrMmSoAABhemjp6ZGpsqXx0/DrWKPSXDwx3Y4IYXgQMhD9akG2+ogIAgOFhR1273LM0nzUJ/W3s8AXXMZ6PWj9AFy8CBsrPPpoiC9ZXsoIAAAQZ7YSo5QxZizAAdpkMOUxVBu7kBcBAq72y71qUJxUNHawmAAABpqWzRyJWFst5kxJZgzBwRnjuGq7wupQXAINZTuuVjF3Sx10uAICA4C2uleufzJATo3ysOxjoqgNLgx9c71x2gvWX1zL4GExPHh0nv1mcJ7m7mgmxAAB+QOfSXY0dMnJlkZw5Lp61BoNlrcmSQcXtuYmBx+HywslJ8mRiuext6WLlAQAYJM0dPbI0q8p0OmRtwWFoWHBTkEtk+R5j4HG41a+39FJBfVs3qxAAwDHS1tUryaX1cvtLOawlOIznXq0sGeSuWpsYeAwV73w1V5KsiVgvGgAAwKHRBjB5Vc3y4DtFpqY26wcOs7nB7qrVx6BjKHm82yf/XF4oaWWN0tnTyyoFAHAAeldgckypfHwCzQYwhAxaty237w8MOIaq509KlH+tKJTMiiZWKwBwPFtr2uTh2FK5fNp61ggMwXOvVqYM0pGBxQw4hrpXTl9vahWu397A6gUAjmPL7haZElMq33xqA2sChrKLg5Bc5TjrL6pisNEuXvZoivz7nSKJKaxlNQOAsCe9rFEmflAiX55Ndyy0hVUmWwa2yoDnGgYa7egnJyfJH5bmy8q8PdLTS5FYAAgv4rfVmYtYn5uWwpyP9jLKe22gjwxEMtBoZ7Xl4Y+fy5aX0ndRJxYAbI2WvHo7t1p+/UquXDQliTke7dptKyrQ4fUDBhnDQe0koy1n9eu1oj2trIIAYBsqGzpMo5avPJFO9QAMBz8IXHAdseZk6y9oY5AxnPzIKJ+cMzFBbl24SdYU7JWObspsAUDo0dvXZ0oB/vG1zeYY1Cmj45jDMVxsMxkzIER5vscAYzh70qg4uW5WmkxYs00Kq1tNkO3jeCwADBNas7q8vl3mJJTLt+ZuMIGV5gIYpn4/QEcGfNEMLjrpWMHPX9wkz6dWSkVDh7TSvQsAgoB+aN7T3Clvbtwtv1+SLxdEJzInoxPOvUYH6rxrHIOLTvTiqcnyj+UF8lZOteyoazctFgEA/IV+w7OrscOU9Bv93la55vE05l50mnH+D67Ry06y/uBWBhed7udnpJrC31qWRjvXEGQBYLCUWR+GU7Y3mMtXN8ylmQA6/NyrZk2/MjL2RgYW8b/qubNrH0+T8e9vE29xrTkj29VDkAWAI1Na2yZJpfUyzbtdbpyXKSdz8Qpxf6tYz03+PjIwjoFFPLSnjokzJWv6jxYUVLdwRhYADPrtjAZWrWYStarYBNazH0pg7kT8X8dR3xVxmCoWfG1OhikaPjNuhylt0075LQDHBdb8qhaZn1JhLl1pYP3oeOqxIh7Ftf4LrncuO8H6A5sYVMSBe/m09fKT5zfKA28XytKsKtnZ2MHKDhCG1Ld1y7v5NebC1W0vbjLHio53+5gHEY/dJld0/In+Ca8RsV9jQBGH7scmrJOvPpFudmImrS2RVdZC18LxAgBbohUCEkrq5VHvdvnLG1tMHdbzJ1HWCnFo5169X/fXkYEHGFBE/3pClE/OsxY6DbN/W1Ygs9eViW9rHWdlAUI4rKaXNcrTyRXy73eK5KZ5mabTlXbpY05D9NulrRH+Cq+LGVDEwKqdc7RNrdZ31DD7Uvous6tT29pFagAYBvRbET2zrsd93KuK5fonM8zO6mlj4zkOgBg4F/spvHq2Mpg4mFJSjMPg1IVRw+wZ4+LlU1OS5Jcv58q8pApJ3dFgun1pB55e+tYC+G1HVcvcVTd3SnZlk7y6YZf88bXN8rlpKabTnlYT0W9KmJsQg6GVOYfMiDXnMZA4GP/0+mb5+ARu1/oz0OoCqoupVjOIWFksb+dWmxI8TR095rgBdWYBjoxWAWjr6pVm6z2jlyfXFu6V6LUl8t1nsuTciQlyovUeY1fVf+ou9e0v5TAWODA1ew7tspbvNgYSB2NxTavpHPOD+VlmQWBMAqOW3/nGkxly16I8mfjBvktg2vmrpqXLfO3Z2UOZLnBuUNUPdXr0RjtZaTORx3zb5Q9L8+U7T2dyuSrAfmFGqvmAXdnQwXjgwNTsOcQjA48wkDgYN5Q3mgVEdwVHvbdVLpycxLgEMdDq4vz3twrMrtIrGbvM67G9tt2U8+mhpS2E4Vf/OteU17fLxsomeWPjblMFYMSKIlOqjvknuFVV9Js3/VZIKdnbxrjgAC9t+aYO9bJWLAOJgzGzoulDi4vepP/xc9mcHRvG5gl6GUzLdE2JKZVnkivMrojentbFpbG9mwQEtrlItaOu3cwx+k3D86mVptXqX9/cIl+fk2G+quY9Pzzq+C/JqvrQ67WN8IoDN3bwwTU6+njrD2hgENEf4VXRi0bTfTvkullpjFGIqOeS9diBfpWqoVarHGihdf2wkbOr2Vxi4W4YDAf6df+W3S2ybludvLe5RhZlVpn54/+skPrtpzPlgmi+9g8VL56abM7h7zpEExbCKw7CBpNBB4U75ioGEP0ZXvvZbC1I/1xeaOqcMlahWSlCv/r74sxU+enCjeb4gYaG17N3ywcFeyWptF5yrWC7u4lgC0MPqDof6Pn4mMJaeSunWp5MLJd/rSiUO17KkS/PTjfzBOfmQ9OTR8fJ75bkS7z1AeNwEF5xUD4Yd+UgL2t5fscAYiDCq6KlnmKLauVnL2yirJaNjh5okPjMI8mm9aVexvvt4jzTDlNLeekxhPVWCNGe7vq1bl0bRxGcjh5H0fJuBdUt5oiKfs2/YH2lPPRBidz7+mb5f89tNAH10kdSzE6qlqXivWYPb5i7wdTAPVpjFcIrDu7SlpVBB3nedTYDiIEKr/1UNXXKa9m7TRhi3OxdykubLFz2aIpcPTPNdA7Tr3b1w8k/lheYIwkL03bK6i015kKNfr2owUaPkoB9b/NrySndgdcPLLpz+nLGLnP+VDtQ/eLlHFOCSs9B6nnry6etNzf86Uhlby+akmR2x/Ws/LFAeMXBXdryzhrkzqs3ngHEQIfXfrS8k+7ecSs4fI8iaNMF3V3TgKth5itWwL1xXqb8cEG2CTp6lER35LT95vKcanM8obC6VfY0d5qgBMG7ua9f52s40cYYK/P2yHOplTLZ+gCiX+ff+WquuXyp7VH1Q8q1+4OpvnfPGr+OS5lhqu6KT1izzZyFHwiEVxzczquVQQe588plLQxaeO1fNPXrxYdjS6nB6FD1bOPpY+Pl7IcS5BNW0NWLINrpSEPS957Jklue32g6juk5u7+8scWUQtJQpR989JaznsnVr6f1OdKvq/XoghObN2jY151tLcRftKfVvB/1mI6eW56fUiGPeLabCzZ6+emepfny61dy5daFm+T78/ftlF45fb05HqKBVHfU9YMHO6bOVLv96YeWLOsZGkzdaMIrDvrS1oCJirmUgcNgh9d+NGzop3udMLVmKeOJh9vN1V0+PYuru0IasPR50eCr3ZJ0l1fPUurFM+1Lr2d0b3txk9y9KM+Etsh3i81OrxaufyqxXJ5NqZQX0naaurgahLVWqJ7j1eoLettdg7F+Na7F7vWCSkJJvdkdTrbUHUoNzWpGeaOpq3uw+r/r/1//Wb2gpP+u/hl6m16rO2i41I5PerRC/84VuXvkTetn0HOF2rL0xfSd5rzo3KRymRm3w9TwjVpVbC7UaZjXTkY/WpAt33xqgzm6oTvcGj71nLKOiV7CO2N/u1MdMx07zpvj4dSSY7rLrs+3diUbLIRXHLSaRQdWacB7BwOHwxVeDwyxWipHg4YuvCy06O/gq+pur+4qqhrq+tWb1P2ecgg1BPrLg//sA//uA3+m/p/zxP0/+wn725ny3kB/qd98aKUHDa3+OJNOeMUhnHu9Y4BHBnzRDBwOd3g9EO3WojtMXPhARPT/hzndndez5/6euwmvOHitLDrA864rGDQMpfB6YIgd9/42uWRqMp10EBGHoG4EaPUA7U6mVUACAeEVh+CKgR4bKGTQMBTDaz9aR1TLtehZxrM4F4uIeMzqcZTPz0iVSWtLTMORQEJ4xSFYNIASWetPtf6FHgYNQzm89lPf1m1amuolHNpFIiIeXv2gr40h5iSUy/ba9qDM0YRXHII9JpMeEyN9X2HA0C7h9UD0RviD7xTJdbNoeICI2O9nH00xpeW0ikbLUTpiEV4xtC5txX31WM+73sOAoR3Daz95Vc0yI26HqQfKkQJEdKJakUKbSWg5OC3NNlwQXnFoev54rOF1GoOFdg6v/TS0d8uagr3ywNuFpn86rwsihrtXPLZe/vT6ZlMjWNswDzeEVxySEb7HjjW8vsOAYTiE1360K4x2GdKzsboTQaktRAw3tTPa7HVl5pun5o6ekJl/Ca84RFcea43XAgYLwym8HkhVU6fpdDQrvky+xG4sItpYbeE7Yc02SSypNxVYQhHCKw7tzKu38OjB9b7Mj1j/cDcDhuEaXvvp6e0zX6lpm08tF3P5tPW8bogY8mpVlREriuT9LXtNxQD9ZimUIbziEO022fQoRwauYKDQCeH14Da01c2dsjynWkauLDI94Wm3iYihoM5FGli1WsArGbtMo5b27l7bzK+EVxyyD8ZdeZTwGvdTBgqdFl4P3pGtbe2S17J3m64zX5yZanrPE2YRMVhqE4FLH0mR3yzOk4VpO6WioUO6rbmpr89+cyrhFYeulU2P3FnLM4JBQieH14Pp6O6VVfk1Jsh+5Yl0OXdigilBw2uMiP7cXf34hHXyhRmpJrDqDqtWSwkHCK849HOvVjY9ymWtuQwUEl4PT3pZo4xZvVVumLvBFP4+c1w8rzciDthTRsfJJVOT5avWh+J/LC+QmMJas7sabhBeceha2fTI4dXzPoOEhNdjQ8+e6Vd6dy3Kk2seT5OLpiRxvAARD+v5kxLN7urPXthkKp7kV7WYM/fhDOEVh66VTY9yYauIQULC68Apr28XT1GtTI0tlZ88v9FUL/go3b0QHe3pY+PN2dXvPJ0po97bao4gFde0OmpuJLyiHyw6fHC9c9kJ1j/QxSAh4XVo6E1gPV6gHW4mflAit1hh9lNTknguEB3geZMS5fvzsyTy3WJZnFklSaX1UtfW7dj5kPCKfrDLZNRDEhVzKQOEhFf/o9UL1m2rk3lJFfLgO0Vy24ubzBEDnhNE+3vOxAT54YJs+efyQpkRt0PWFu6VnSHQlpXwimGlZtRDMtLzQwYICa+BZ09zp6zf3mDa1Wpd2V++nCufn5HKc4NoA/WS1a0LN5lLVs8kV0hCSb0pZdXXx9xGeMXAhVffDw4dXiN8f2aAkPAaXLQ7Tk1LlxRUt8jqLTUyJaZUfv7iJrluVpqcxZlZxGFVazzrBav/99xGGf3eVnkrp1pydzXL7qZOaevqZQIjvGKw1Ix6mDJZ0QwQEl6HFy2Vo2G2rK7d3ETWZgn/fqdIrn8yw9xUPt5NjVnEQB4B0A+O2s3qhbSdkmXNY9qCVTvwdXQTVgmvOHzh1TvpcJUGFjJASHgNPXSHRwOtfjW5sbJJlmRVyb9WFMo3rEBLRQPEwXna2Hi59vE0+fMbm03JO71kqVVDNKi2dPYw8RBeMbRceLgarzEMDhJeQx89W6fHDZo7esyuUJq16L6dW20qG+jXm3oZ7COjfKYT2AmW1J5Fp6nPvD77+h7Q94JWAPj205kSsbJYlmbtqwCgJauarPeQ7qj2cmCV8Iqh7trD7bxuYXCQ8GrvUKuLsJbl0UC7bFO1PJ1cYXZpv/tMlgm12hFMO/vogs4RBLS7+gzrs3yy9UyfYT3berRGv5HQds5PJJTJGxt3m6CqZ1R7evu4VEV4Rfu6+XDhtZnBQcJreFc50IV8wfpKmRxTKve/XWhuTV81PVUunJwkH5uwTk4aFcdOLYakGlL1EuMF0YnyuWkppjzV/1kh9aEPSmRuUrlpElLZQIkqwiuGqc2HqDSw9mwGBgmvzj1Tq5fDludUmw5hGmp/szjPHEHQM4GffTTFfO2qO7Y82xhI9cPT2Q8lmHJUX5yZKj+YnyW/fiVX7ltWYEKqfuWvl6ga2rt54xJe0WmOTfr4QQ0KvNcyMEh4hYNptEKCBtt382tkTkK5OTOodWlvnJcpX56dburTarjV3TAtK8Szj0cLp+dOTJDPPJJsdvz1Zv83n9pgGnfo8RYt8q/HXTSganMPILwi/rfWq5VVP7zz6v0JA4OEVzhW9LKY3szWYKsNF7Rne/9xBP0qV8OIXpC5emaa6e2uxxI+PmEdATeM1XOnevTkE9YHGQ2nWh/1W3M3mPbI976+Wca/v810mVuRu0eSS+tNvVS9cFjfxi4q4RXxmGq9/pgGBUh4hYDR1dMnVU2dkmMFFD1nG1NYK+/k7TFf++olsklrS0yHorsX5cmPn8uWr8/JMOcYdVdOA67eEud9FDqXovTIiH740A8iX3kiXW5+Ntt8na8XozSU6q78oswqU/Xig4K9putUdmWT+YBDMX/CK+8j9FOt13s/HF7d3vEMDBJeIdi0d/eam+CF1a2SUd5oLt3oEQU9f7vYCkNaf1Mv4+hZXD2yoLu6d76aKz9akG2+btbdPa2i0H/ZjPfekdUPBXrpSXfCr5y+3nxo0CCqR0G03qk2xNDd8ycTy+W51EoTSPVr/JXWB4+1hXsldUeDbNndIjsbO6iFCoRXDHZ4dR98bOBJBgYJr2CHsKulwPRWuS6KeVXNJvTq7q4GX/1KWkPvi+k7Td953RGc7tthwq/u9o57f5tErSo2l9I0rOnFNG3Hq7u/33k603Qy03OYGuz0LK8GYy2/pJeINPSdPnZfqTENgf4oNXZgqSctmq+lzHSHU//OT1oBU79+v+Kx9XLN42kmaN40L9MEdz2WobvW+nW87mC7rd9Jfzet9fuw9bvq7zx7XZnZ5dYPAK9u2GVam2oATSypN6XUdFdca51q84u9LV3SaoVR6p0C4RVDVrd31sFlspYxMOhPN1iBAiCU0FymtT71SIMGNb2MpkFYOyrtauwwX3HrGUxdbIv2tJodRj3Tq2czN+1sNl+D63OtwU/PbGoIjN9WJ97iWhOc9WiEfmXe75r9Hvi/6T+j/6z+O3Fb68zX6/pn6Y6mhnD9O7SLmgZLDeb6M+iu9NaaNvOz6c+ou576M+uFJv0ddAdUm1bo70b4BMIrhrGvHrzz6mNQ0J/qThgAADibguoW1kT0l7EH7bz68hgU9Kf69S0AADgb/TaBNRH9dGxg48HHBnYzMOhPtV4jAAA4G9/WOtZE9JdVB4fXbgYF/eldi/KYtQEAHI5emmRNRD/Z/d/gOjr5TAYE/e3l09abSzEAAOBc7ngphzUR/eeINWftr/Hqu4QBQX+rJYW08xIAADgTrYqhNYVZE9F/516tzLrvyEDcdQwIBqKHudaZBAAAZ6INR7QuMmsi+k8rs+4rkxX7XQYDA+ENczfQGhIAwKFoR7wTaPWMfu2yZWXWfeHVczsDgoE6OqCfvAEAwFlo9zbtUMdaiP4Nr1Zm3d+g4F4GBAPhcW6vaWEJAADOQlsVs+uK/g+vVmbd36BgJAOCgfKciQmmRSYAADgDba/8+RmprIEYiEYFD+4Pr57JDAgGUi2VAgAAziBiZbH55o31D/2vL7o/vM5hMDDQlQeeTalkRgcACHNiCmspj4UBPDbge6L/2MB8BgQD7dfnZMjWmjZmdgCAMEUb0/zshU2seRjIndf5/a1hlzAYGAz/sDRfOropnQUAEG709vXJ5JhSjgtgoF3SX23gLQYDg1V9QBsX6CQHAADhw8q8PXLepETWOgx0tYG3+sPragYEg+XHJ6yTd6xJDgAAwoP0skaqC2Cwwuvq/mMDCQwIBtNLpiZLQkk9Mz4AgM3Rslg3zstkbcNgmdDfYSuNwcBg+6XZ6ZJV0cTMDwBgUyoaOuTHz2WzpmEwO2yl9e+85jIgOBx+9Yl02VDeyAoAAGAzyuvbqSyAw2Fuf3gtZTBwuLz28TRJ3dHASgAAYBNKa9vk1oUEVxwWS/rDaxmDgcOpHvRP5AwsAEDIo2dcv/00Z1xx2CwjvGLI+LlpKfJufg0rAwBAiLJpZ7M57sWahaEQXusZDAwFL4hOlLlJ5awQAAAhxqr8Grly+nrWKhxu6/rDawODgaHiaWPj5V8rCmVPcyerBQDAMNPd2ycz4nbQgABDxQbCK4akx7t9ctO8TNlY2SQ04wIAGB521LXL3Yvy5COjfKxNSHhFPBY/NSVJXs7YJa2dPawiAABBoqunT2IKa001GNYiDNXw2spgYCj75zc2S2F1KysKAECA2dnYIZPWlsiJUey2Ykja1h9eGQwMeS+emizLNlVLfVs3qwsAgJ9p7+6Vddvq5OtzMlhzMLQlvKLdzsLeszRfcnY1s9IAAPiJbXvbJPLdYvno+HWsNUh4RQxUTdjJMaXm6y0AABgcLZ09Mj+lQr7xJLutSHhFDIo/XJBtLnTp5QIAADh2Vm+pMZUEWEvQruGVC1toW08eHWeOEsQW1bIaAQAchayKJlNL+9yJCawhaOsLW5TKQtt70ZQk+efyQtlQ3sjqBABwENtr22X8+9vkisfokoXUeUUMKT/zSLI88HYhpbUAACyqmjplSkypae2ql15ZJ5DwihiCHufe1+Dg/97cQogFAEey2wqtD31QIp99NEVOGhXH2oCEV0S7lNb6RHSi3Pv6ZnPOCwAg3CnZX/bqMiu00tYVw9C6/vBaxmBguO/Eav3C3y3Zd7FLi3H3UaAAAMKEDmtOy9x/EesC6wM7xwMwjC0jvKLj1J2IWxdukqVZVVJe3y49vaRYALAf+gF8b0uXKXmlFVfOGBfPHI+OCq+lDAY60aump8qs+DLJrmySpo4eVkMACHn0m6OC6hZZmLZTvv10JnM5Os3S/vCay2Cgkz1ldJz89c0tsqZgrzkvBgAQalQ2dMi6bXUy6r2tct6kROZudKq5+8JrhCeNwUDc51efSJfpvh3mglczu7EAMIx09vRKflWLPJ9aaToKnhjFWVZ0uJpZ9++8JjAgiB9Wb+rqObIF6yuluIZyWwAQPHY2dsgbG3ebcn/XPJ7GnIz4XxP277x6VzMYiIf3+icz5L5lBfJKxi7ZZS0qAAD+Rs/dv51bLQ++UyQ/mJ9FbVbEQ+68Wpl1f3h9iwFBPLqnjomTG+dlmhqKGmSrmztZcQFg0LR09siK3D0yYc02+fFz2XL2QwnMtYhHDq9v7T824FvKgCAOzDPHxcvX5mSIe1WxKbullykAAI5GY3u3vJO3RyatLTEfhs+dSGBFHIBL+sPrfAYDcfB+bMI6U3brb8sKZNmmaioWAMCH0ONGWo9VP+x+aXa6CawncPkKcRBamXVfePXMYTAQ/eNZ49fJhZOT5EcLss1lry27W8yNYQBwFqW1bfJ69m751Su58plHkuXj1odcAiviUI8N+J7oD6+TGRBE/3vy6DgTZvW2sF7CiNtaZy5ldPf20Z4WIEzQ97J26mvt7DEtWvU4gF7y1POrek6euRDRrzuv0f3HBkYyGIiB9Tj3vta0l0xNNhczHo8vk5xdzeb8W1tXr/SSZgFsE1a1y5V+EN1a02Y6Xf3i5Ry54rH1pkKAvteZ8xADpNv7YH+1gXsZEMTgq2H2K0+ky++X5Mu8pArZtLNZalq6OGYAEGLotyW1rV1StKfVVBrR8+03zN0gp42NZy5DDG61gXv7O2zdzoAgDr+6a6O9yvVrxyVZVZJcWi9lde1mZxYAgkdXT59pFLChvFHeyqk2XfdueX6jnDGOsIo4vOHVyqz7wmvsdxkQxNDzeLfPlOMaubJIFmVWmb7muju7h/qyAH6lob1bNu9ukSTrA+ObG3fLuPe3yXesD5LsrCKGWni1Muu+M69x1zEg6G9/szhPLn0khbHwo9rXXM/M3v5SjkyJKZWVeXtk/fYGKahuMefvAODodHT3yra9bZJR3ihrCvbKrPgyc3RHy93pJUvmGv+pl9ZuXbiJsUA/amVWg9t3CYOB/lbPhulO4ffnZzEeAdyZ/dSUJHNu9u5FeTI1ttS0l8yubJLy+nZzqQSAr/87JK+q2dRZ1aB67+ub5VtzN5gP11QDCJxaz1brXuvRJ8YD/Xdhy8qshhFrzmJA0N/q19uKdp561LtdPjp+HeMSBPVM3hdmpJqzs3e8lGOKor+YvlNStjeYdrZa0gcgXKlv65asiiZzZlxbrmqN1e8+kyXXzUqj9WoQHbGiSPKrWv6zBjAm6Dc1s/6HSG83g4L+VOsdHohva53c9iJfHw2Hp4yOk88+mmJuR//k+Y1yz9J8mRxTagqoa7kuLoSB3dDb//rtjrZZfcy3Xf78xmb52QubzIe2K6evN+2bee8H3288mWF2WzsO+NZHy4kxNugnu10fItK7m0HBQIZXRXf+tCainttkjIZf7fhzmRVqtaC67tL+35tbzEUV3alNL2s0ZbsAhhOtg7yxskmWZlWZKhx/f6tA7nw113wQ07qqtFkNDbUZyzTvdtlR1/4/r6GeL2aM0E9WHRRefXkMCgY6vPajF4xGv7eVyxEhqAYB3bXSFrefm5YiP5ifJX+1Qu14K9Q+kVBmbmLrmdq6tm6SFfiF5o4ec9NfLyA+lVguEz8okX8sLzDfEnx+RqpcNCXJHDvSusi8R0NP/SZHL452H+ZIEuEV/Xfe1bvxw+E1wutjYDBY4bX/xm9sUa38dOFGOtKEuP3dwfT4gZ6p1bODn3442Vx6+d2SfUcQnkutlOU51RK/rc4EES09RNMw6A+n+tVxYkm9+Zpfd/Z1l06/6tfzqLr7f87EBPOhSZ8xfdb0MiLvvdA/IqBni1s6j1zphPCKfjT24GMDyxgUDGZ4PTDEascaPUrA13/2DLb6umng0CYLGj5OHxtvwq0ubr9+Jdfssj+bUinvb9lrztjqBQ7dudVFT8/b6jOgt8L1MhmBN3TR10ZfI32t9DXTahat1muol6SqmjrNhxaP9YH0pfRd8tAHJab8lJ5B1fPW/cH05P3hVMu+8aHVnhVO9IOGXsJtPMYPqIRX9F+NV8+ig3den2RgcDjC64HnYbV26fmTEgmxYawGFz1re7H1YUW/EtYmDD9+LtscTdAzjbqD+87++rV6IWe3FYr2tnSZsKu7uVrPVnfyNDRpgOom8A4aDaLailg/QOgHCR1bHWMda22Fqu9J3THVLlNaZkpD6SOe7XL/24Wmdqd+ONHKFp95JNmcPeUYUPifkdfjHMU1rQN6zgiv6MdjA7M+HF7d3vEMDA5neO2nsLrVdJTSc26Mo7PV7kZax/bqmWnyzac2yA8XZJsGDb9dnGcul+mO7uPxZfJC2k7TwtNbXGsKz+sOYGltm6kvqTU+NYRpGNMdQt0t0vDbv+uru4ca4Pp3fntDOAn373x27w+dGt71d9Agr7+T/m794VO7sOnvrvV+dSz0faUhVI91rMjdIy9n7JI5CeWmnJQGEt0l1Ut7+kFCL0NpaSn9gEE7VDxvUqI5HqQfKAcD4RX9t/PqdR+08+r7MwODoRBe+9E6sf9cXkhlAhywB1440wYOeunsjv2h94+vbZa/LSuQB94ulIiVxSYAa4DTc7v6VaiGYb00pMcc9DiLlhPTxg/vba6RDwr2moCszTe0jagu5mlljSYUam1RvcimbtyvPsNq/3/PPkD9d/TfTd3RYP4s/TP1z15buNfscmrA1Mtxr27YJc+nVsq8pApTYF/LQj0cW2q+lh+zeqtEvlss/1pRaG7h/+n1zSZk/PLlXBP0vz4nw5SN6r/wxDcaOBD1WzBtfqJHQYYC4RX9GF7vPfjYwE8YGAyl8NqPLu66OGsQYVwxVM756pnN/jO+ukOsgVnLBWlI/NiEferFNrX/v+v/T/8Z/Wf1XPCBZ0A5/4mhon7w0534Vfk1fpnDCa/ov/Dq+/GHw2uU91oGBkMxvPaju1TateWax9MYX0REP6tnl7V17pqCvX6duwmv6Dc1q35453Xt2QwMhnJ47Udvq2vNUS2szzgjIg5NvXSnR7S0lFkgILyi3xyb9HHX/xDpbWZwMNTDaz9643V+SoUpxcN4IyIOzC/NTjfnp/VcdiAvKhJe0U82uw5JpHcLg4N2Ca/9aDtCPZv1q1dyuZCCiHgU9QLja9m7TQWKYEB4RT+5+TDh1RPD4KDdwms/Wgs0vazR3MLWW7K8BoiI+zx1TJwpiaal0nY1dgR1bia8on+0Muphdl4XMjho1/Daj9a/LKhuMaWFdIeB1wIRneqXZ6eb8mpa//hobVwJrxjiLjxMePVFMzho9/B6YPcg7RikLUm1/qXepKUcESKGszrHaVMBbcu8JKvKNK3QphbDCeEV/WKEd9KhwyuNCjCMwuvBQVY7Dj2RUGY6NWmbQ87HImK4BFbthHbt42mmEouGxeEOrIRX9H94tTLqIRnp+SEDhOEYXg9Vbku7K31+RqopIs+OLCLaTW160V+bNVBlrgivGDJG+X5w6PAaFXMpA4ROCK/9aD97vcCgFxm0jea5ExN47RAxZNVObZ99NMW0bV2Zt2fYzrESXjH44dXKqIfkzmUnWP9AF4OETgmvB7KzscMsBvctKzBFu3VXg9cREYdbPRKg7bE1sOo5Vq1xbScIr+gHu0xGPSyR3iIGCZ0YXg9ugLAos0oi3y2Wr8/JMIsHrykiBsuTRsXJ1TPT5O9vFcgLaTslu9K+8ynhFf1gkeuIRHreZ5DQ6eH1QLbXtsvSrCpTP/aW5zeay168vojob08eHSffeTrTfGjWwJpX1RwWcyjhFYeulU2PHF59cxkkJLwempqWLlN6a0pMqfxhab5c8dh6XmtEHLQXTUmSO1/NlXHvb5O3cqqlvL497OZNwisOXSubHhG3ZwSDhITXo9Pa2WO+ytMdkt8vyZdrHk8zX/Xx2iPikdQPvb94OceU7lu/vUHq27rDeq4kvOKQ1Wx65J3XuJ8yUEh4HRi6+BTtaTXlaqZ5t5vOXudQuQARLc8cFy/XP5lharDGFtXKlt0tpu60UyC84tC1sumRw6v3CgYJCa+Dp7evT6qaOqWwulViCmtl4gclZuH6yCiaIiA6Ra1YMnJlkalgkl/VIpUNHaZ1tRMhvOKQfTDuyiOH1/syP2L9g90MFhJe/YMuWHtbumRjZZOsyN1jdl++NocwixhOap3of60olDc27pb0skapbu6Utq5eJkDCKw7dbpNNj0qkr4DBQsJr4BojNHX0mC5f/VUMbn4221QxODHKJ8e7CbWIoai+N/U9qqXzvjV3g0StKpYX03eac6t1bd2O3VklvGJgz7t6C13HRKT3HQYMCa/Bo69PzNeKettYd2a1GPkXZ+5rlKDlc3ieEIOvXsDU86ra0er2l3JMCauX0nfJ1po26entM+9bILxiwF15rOF1GoOFhNfhRb9yzChvNDeS71maby6B6VeT501KlFMItIh+VY/xnP1QggmqN83LlLusD5BTY0slbmtd2FcDILxiSBvhe+zYwqvb9wcGDAmvoUdDe7es21YnM+J2mN3ZG+ZuMDu0n344WU4fSxcwxGNRP/x9cnKSfH5GqrlMqbuqerHyvc01srupk4mG8IohpeePxxhe477KYCHh1R6VDbRxQsr2BpmfUiH3v10o35+fJV+anS6XT9u3S3ucm2cRnWv/buq1j6fJt5/OlL+8scV8m+EtrpVdjR2cUyW8YsifebUy6TERsf5U61/oYdCQ8GrP6gba0nZDeaMp0zMrvkz++uYW+eGCbLPT9LEJ6wi0GJbqRarPTUuR7z6TZRqHPOLZLss2VUvqjgZzTrWls4cJgvCK9rLHZNJjJtJbxKAh4TV80NvQWRX7ynUtTNtpjh5ErCyWX76ca0p3XRCdyHOLttlNvW5WmvzshU3ywNuF8qh3uzyXWilvbtxtgipf/RNeMVzOu3qLXQMi0ruCgUPCa/jT2N4tBdUt5mLKa9m75fH4Mhm7eps5gqAtLDXY6vEDnmkMplppQ7/q14D697cKZNR7W2W6b4e8krHLdKnKq2qW2tYu3sCEVwxvVwwwvPqiGTQkvDqX7t5952m17a3uZq3Kr5G5SeUm2GqY+M3iPPnxc9nmwpgeReCZx4GoFwz1XLZW0bjz1Vz5vze3mLqps9eVyfKcakkurTdtVHUXtaObc6mEV3SmVhYdEG7vHQwaEl7hUKFWzw7qMQS98KJnCbV7mLbCfSFtpzwcW2rO2N724ib53jNZ8pUn0uWyR1PkrPEEXKd4mhVML5mabL7a17JTty7cJH98bbO50a8XC1dvqTFnsvWDkdY31g50zR09XJ4ivCIedFnLyqIDIirmUgYOCa8wUPo7iGkg0RaZO62AW17fLoXVrWY3TXfVnkmukHHvb5N7X98sP1qQbUKOBlwtX6TnGaljG3pqswzdYf9EdKK5vX/1zDTz4eS3i/PEvapY5iSUm9aoWspt8+4W2VHXbl573TnVZ0GPpxBOCa+IA1Kz6ICJ9DYweEh4BX+jJb40yLR29phQo2cXNeBUWUFHQ4/uyGmDhve37JXFmVXmq+Qxq7ear5Z1R1fr235hRqpcNCXJBCr9ClrDlbbu5L13ZE+wxkg7R+nuqO6Gaxi9avq+eqe3PL/RfKDQMKrnS1/dsMvUPtX2p1v2B1LdbdfjJPqaad1h3YXXr/W14xQA4RX9aINrUER44xk8JLzCcKItODXsajjSXV0NvRqWNPhq4NWvnXVxzK9qMdUU9HxuQkm9OcaglRW0neeTieXmOINe+tHzulpGSQvT666v1v7US2l6dld3FLXhgwa6cyYmmEtDWn5Jg5566pi4D6k7xP7w4D9X1b/v9P0BU3ejz5+UKJ+ywvqlj6SYkmd6HOPGeZly87PZJtDrDujflhWYFqbRa0tM4NeqEtpyeG3hXonfVmdCqL4v9bJTcU2r2RHf09xpAmi7NaY6tjrGejREx5z2p0B4xWGsNBA/uPAa6Z3NAOJg1TNtAHbaCW7ZvxOsgU6DXYm16GolhtxdzSYYp5U1moYQiVY41oCsFRq02L2nqNaEZQ2JHxT8V905Vtcc8L/pP6P/rKr/ns/6MxL2/3l6rELDtwbMHOvv1N1OXfj1Z9Gv37VNqZ4NZacT7ISei2dNxEGcd501yJ1Xz+8YQBysuhADAICz0Q+ArIk48J1XK4MOCnfMVQwgDtZ38vYwawMAOJxNO5tZE3HgPhh35eDCa3T08VzawsE6M24HszYAgMPR4zWsiTjgy1qaQQdNpDeWQcTBqEXsAQDA2TyVWM6aiAM11jUkIj2PMIg4GPXmtl4uAQAA53LHSzmsiTjAy1q+qUMLrxG+2xhIHGz7R72dDQAAzkSrZGjpOdZEHNhlLSt7DokRa85jIHEwaiH0JxLKmL0BAByKtgKmYx4OWM2eQybSs5XBxMGonZC06DkAADgPbZxxvJvOdzgQrczpFyK9ixlMHIzaoYiSWQAAzmPz7hbTFY61EAfoYv+E1wjfvxhMHKzaipM2kwAAzmLCmm1yYhS7rjhg/+2f8Or2fp3BxMGqPdlX5dcwkwMAOITS2ja5cvp61kAcTFvYr/snvN657ATrD2xiUHGw/uLlHNOPHQAAwhv9pu3Bd4rkODdrHw7YJld0/IkuvxHpXcug4mA9c1y8PJdayawOABDmJJXWy6cfTmbtw8G41uVXIr3jGFQcip+fkWq+SgIAgPCkob1bbn42mzUPB3tkYLx/w+vI2BsZWPTH5a3WTrpuAQCEG3pc4OHYUjmBS1o46PDqucm/4TV62UnWH9zG4OJQPHl0nMyKp3EBAEC4sTJvj5w3iW5aOGjbTNb0O5HeOAYXh+o5ExOo/QoAEEZs2tkslz2awhqHQzHOFRAifdEMLvrDS6YmS3JpPTM+AIDN0bsMX56dztqGQ+2sNTlA4dX7fQYX/eVnHkmWnF3NzPwAADZld1OnfPeZLNY09IffD0x4HbHmZM69oj+9emaa+boJAADsRXVzp/y/5zaylqGfzrvGn+IKGJHeDxhk9KdfeSKdHVgAABtR1dQpP39xE2sYhmh914OJ8LoZZPS3l09bL5kVTawIAAAhTkVDh3zvmSw6aKEf9UUFNrxGea9lkDEQXhCdKGsL90pPbx+rAwBACJJX1SzXPJ7GmoX+VbNlYJHjrL+oisHGQHjGuHh5NqWSRgYAACFEd2+frMqvkYun0vYV/W6VyZYBJ9K7mMHGQKlfRUWsLJadjR2sGAAAw4y2fH0ioUzOHBfPGoWBcLErKLh9f2CwMdBqf+yU7Q2sHAAAw0Rhdavc+/pm1iQMYEtYK1MGhZFrL7T+wj4GHQOtfkWlxwg6untZRQAAgshbOdWmGgxrEQbU0bGfdAWNSG8ug47B8s9vbKYeLABAENAjW2NWb5XTx3JMAANuriuoRPgeY9Ax2A0NnkutlK4eqhEAAASC5TnV8u2nM1lzMDhqlgwqbs9NDDwGW90J+M3iPCmobmGVAQDwEzUtXeJeVSznTkxgrcEgnne1smRQuXPZCdZfXMvg43B4xWPrZUpMqSnfAgAAg2dh2k65blYaTQcw2NaaLBl0In1LGXwcLk8aFSffmrtBlm2qZvUBABggCSX1cuvCTaa+NmsKDkNXraWuYSHCcxeDj8Ot1h7UHtvrtzdIHxuxAABHRMtf/d+bWzgigMN83tXKkMPCGM9HrR+gixcBQ8Gzxq+Tvy0rMO0LudQFAPBftO12RUOHTFpbIp+cnMQRARxuu0yGHDYiPTG8CBhKftQKsWNXbzMhlvqwAOD00FpW1y6z15XR2hVDyVjXsBLpfYAXAUO1MoGG2NxdzdLS2cMqBgCOQb992lrTJnMSyuXCyUmsCRhqPjC84XVft61eXggMVT82YZ088HahbChvND26AQDClfbuXvOt0+SYUvn0w+y0Ykjaa7LjsBPpS+bFQDuE2HuW5ssHBXtlb0sXqxwAhA367VLK9gYZsaJILuF4AIZ2lYFkV0jg9kTwYqBdPG1svNzxUo7MS6qQ8vp2Vj0AsC31bd2yOLPKfDC/IDqROR7t0JggIkTCq+8S6wfq40VBu/mdpzNlamypJJbUswoCgG3Qs/x6nvVnL2wyNa+Zz9Em9pnMGDJEejN4UdCuXvpIiql7+Fr2bo4UAEBIoudZV+XXyOj3tsrVM9OYu9GOZrhCikjfGF4UtLsfn7BOrn8yQ6b7dsimnc2slgAw7GhTgfkpFfL9+Vly/iSOBqCtz7uOCa3wOir2cl4UDBdPHh1naiLe/Gy2vJKxS/Y0d7KCAkDQ0AtYusv6q1dyzTdDWvqPuRltr2bFkCPSk8mLg+Gm9v3WkjO6iLy3ucZ8dQcA4G+0vbW2uf7rm1vks4+mmAopzMEYPhe1vBtdIUmkL4oXCMO9UsGV09fLn17fLO9v2WuCrHawAQAYKL1WWtVmAlriauTKIrn28TSzw3q828d8i+FnhGdUiIbXmE/TsACdoi4wX5qdLv9YXiDv5tdIbWsX7WgB4Ih09vRKY3u3rNtWJ5HvFsuN8zLlxCjCKjqgMYFmxJAl0reOFwmd6OdnpJrdk9ezd5u2jM0dtKQFAJG2rl6paOgwZ1gnrNkm33xqA3MmOu2i1jpXSOP23MeLhE5Xi4X/5Y0tsjBtp6TuaJCdjR3mPBsAOAO95Jld2WQaCOiH2s9NS2FuRCc3JrgvtMNrxNqzrR+0kxcLcZ8nRPnke89kyaPe7ZJQUm/K3ujXhgAQXrur2/a2SVpZo8xNKpfbX8oxlz2ZAxGtTKjZMOSJ9LzLi4X4v546Js6ck9VWjlq3US9qVDZ0SDeXvgBsx+6mTsmsaDLl9O5bViDfeDLD1IpmrkM8UCsT2oJI7928WIhH91NTkuSHC7JN9YJ5SfvCbAO7sgAhSWtnj2ysbJIX03fKP5cXyi3Pb5TLp61nLkM8snfbI7xGrD/V+mEbeMEQB6bWdtQFUes8Ph5fJp6iWqlvI8wCDAdaCk/rrj6TXGGqitz24ib54sxUSlkhHrsNJhPaBrfnWV40xKF50ZQk+c7TmebyV/TaEnlj427ZXttOqgAIAFVNnaYiwDTvdrOzqh32LrM+UFLKCnHQLnDZigjf9bxozlYD1ycnJzEWfvI4t1fOfijBlOTSHSAtufNsSqV4i2uljt1ZgAEfAdBd1RfSdsrkmFK5a1GeXPN4mpw/KdFcsmTO8d85/98uzmMsHNuYwMqCtiPSm8+L51zzq1oko7zR7BwyHv5Xd4O0G48uttr1S9vXPubbLivz9phx57gBwD60EkDOrmbT3nlOQrn8fkm+CaqfiE6UM8fFy0dGEVYDVfta56Mdde2MhzPNd9kS2sU6Wr3YoGi9w0c82ykbEwRPHh1nFmO98fyZR5Ll1oWb5KEPSsxXobnW4q1fi9LOFsKZmpYuU45Ov5GY7tshv3w5V654bL2cMzFBzhq/Tk6x3iPMFYEvD6jVFzS0KoRXxzYmiLJneI2KOd/6Bbp4AZ2plpDpRwOT/netd8ouR/AXEg21p42Nl/MmJcrX5mSYIx1aqiu5tN40UGjq6DGXU7TPei/dFCBE0UdTn1F9VrWDXXXzf0tVPfB2odwwd4NcODnJfFDWZ56zqsGfa66anirvb9lrXqd+tP4t4+M4u10Pei9w2ZZI70peRMJrPx3WoqM3dy99JMWc4WScQuMcrXb/0YVfQ60WWNcqByXWglPb2mVCgoYFrUVLroVgoM+azhUtnT3mPHdZXbskltSbjnX/WlFoPgTrURk9MsPN/9BQd7bHv7/tkMeVCK+OdKXL1kR4budFJLwejJ6H1dqmGpwYq9BUv2K9blaa3L0oT9yris15Wq1vGb+tTor+f3tnAl5lda7tz3k4WjvYwTr2d6rWOtSh9dSqbbWtY+v/O7S29nQ4bT1WNHvvACpqUBxABhHQoogjTsigiEiyv50ACYSQEEIIMwRCgJAEQsgcMqx/vS9g8QgyZfiG+76u+9JaJbD3+tZ69trveldFve7YSrCQkEGohf1Bduekr7GUs0jAkT7HY+aWaZu4Xh8tN398e6E2/pdvDHgmvanU3Ut7v2l2XtgdhNcwHtSy2c/XpGQcav8g63gzCa+7Ytz8cnPtyHz9io/XzD9KTe0PhuSY214vNA9+vEIPwbySs95MKKzQHTL5cCJ1bhvrtmq4hfCGU9mJW7O50SzaUGeyV1ebD4sqzRt5ZbrD/+jUlXrbnOz6fzOFgOq3b22kBEk6nuwJwmvoXK/Zz/fEEv14Mwmvu6O5tc0MnbHGXDZ0Dq9bAJSvcaU/reyY3fpaoblv4lIzIH211iVKuE1dskl3aXLXbNEd3PVbmrRtEfgLKSWRmtPllQ0mf22NfmiRcpOJCyp093TwtBLdsZc2ST8ZkacHCPmQGgzlogY5CCqH4/YGwmvIlMwXCGKJU+0fqI03lfD6RaytbtKdGJkYef2CqxzYk5KEU/pl6c7Nr16aZ/7rnYUm+uEyPR0uO7gSgKYu2aghV3pxSjiSnbtSO0a2NLZoTSR0LHJQT+qb5cOEnNaXbiGyUzrdhtI0G0plx/T13PVmUEaJ6fnRcq2Pln7DP3ouV2+G+3KfaebwnoTTICvPrFzesKCsdp/GFuE1VLZp5gsM0fjHvKmE171BFs3ek5frRMnrGE6lnZHUQ8slF3K4T/pFSpmCHNT59SvztU+nnC6XixokTMlBnrfzN2hLsB27utLXUwKvLJxy4EdCmZQxSPhtDGApg3yDIV0j5M+4oaZZv6qXQ3eLy+u0TZo8j5nFm/UkuNzUJs35pdxDPjDK7vhdbxVpW6lrRubrh4pz7WsuoVR20eUwjnSrYGyGU/lgIldWf1FdK+EVt2mzXqCIujfyphJe9wXZ9ZEQy2EN3JtSBTk4crwNWafaDz1yEv28Z2abCwfnaBCT3cErhudp+JVwJgdMJKhJveXfxi42PSYs1bH2WGqxljgMmV5iRmSVmpey1+pu4zs2GEt9tuw+Tlm8Ub8el4Nr8lW5tBuTsSoXQ8iYl11iUT6ESYAW5+30z+TfkXA9u2SLHlCSX0NCgfyan9hfW37G+MJyDZhSGyrBXDp0SNCU31u/tGKtM77fBk7ppSmHmqQ84/pR87R+XP6M8jX95cNyzaX2z36RfQ2kIb+0MJIPAnJCX1pJ0UYK9+ZDpOywJ5ZXHVDtOuE1TAe1EjcFK7ympBxs/2CreHMJr/vaMkcWeqmvojMBdtVBlEN36o0rJQ5yQE2CsQQ/uZVJdiNPfjxLg7LUcsoO5enWM5+a9anSGF9CtCh/v+OfyV+lNZn8N/Lfyq8h3zLIryk9SuVnyM+Snyk/W0L5jp6ltJfDrlDG2t3jFusHKyklOVAIr6FxlWa9wBFN9ObNJbzu76nlufbXk10n+SqZ1xcRsWM9qne6lpBM76DQSngN20Ett5cTSGIZx9s/YANvMuH1QEKs1PA96a7Sr4V5nRERD0zZEJBDeFLK0rC14+vBCa+hsEEzXmCJua/xJhNeO6KcQNr0yGEdOcxzCPV7iIj7VCd+0mPbQuuqTY164K+zILyGYtf1NSfQROMX8UYTXjvyrnPZKZDDND8enqcHUbguEhFx10oNtbQjlMsF5Hazti64Ho/wGoouAxc5gSeamMYbTXjtjD6VOSVbzH+/t0gPv0j9Fu8DIoZd6b8rBwGlzZx0tJDyq66E8Bp4pzuhIBK/nTeb8NqZLKusN8/NWKPXTtKlABHDqHSrkF3WvqnF2qatuyC8Br09ls10oUDuvI26JbzphNfORkoK3p9frn08pc8lrYYQMehKCzbp/zs6Z51eWNHdEF4DbYlmutAQi/fgTSe8diULN9SZpxOrzP97rZB2W4gYKOUWrF++OM888slKvTjDSxBeg2wiyQkV92QcY//gm3njCa/dcYd76pJN5qGPV+hNS8c9NI33CxF9p1wmIDeqyTdL8g1TR/ZmJbziXrhZs1zoiMYH8uYTXrsTuQde7nqXxtxX2UXgsJ50KkBEb3vZ0Dl6MPWtuWWmtLrJ8/Ms4TWwHQYGOqEkkjjRvgDNDADCa3cj3WJWVzVqkL1n/BJz/sDZ1MciomeUa4bveqvIvJO/QQ+kNrW0+WZ+JbwG0manV9q3ndDCpQWEV48hh7yWVzaY9OVVJnnSMr2znvcTEbtaaW8lO6yTF1XqzYLSl9WPEF4D6Sgn1MTcc+2L0M5AILx6kcaWNrPSTrxSI9svrdhcPCSH9xYRO035sCy3Xk1cUGEWbagzNR6tYyW8hto261lO6Im5kxgMhFevI429pUY2sbzKDEhfrQ2/v8RhL0Q8AKXOXg5dpUxdaSYVVZqymmb90BwkCK+BcxzBVUhyL2cwEF79RGtbuy4wS8rrzbDMNeb3Y4q0j6zcZMP1tIi4K6WOXsLqqf2yzP99tdA85a4yc+08KaVKLW3tgZ0vCa8BM+ZeSnD9tPOAm86gILz6GTlAIbuy909caq4YnqdX1Mo94hz8Qgyvck31t1JmaIeAP7+70IwvLNfa1fb28MyNhNcAGXETBNbPlg5cy8AgvAaJyrqtZmxBufnTOwvNhYNzzMmPZ1FmgBhw5QOrXIJy7oBsvRBl1Ox12skkzBBegxReE78gsH5+9zWbwUF4DSJSLysdDN7IK9PdlwsGzTbfeWKm+erD0xkriD5WPpCe0i/LfO+ZbHP7GwvMiKxSU7i+1tQ3tzLxEV6DZjZBdZe7r4nrGByE1zCwuaHF5K+t0Z3Z2KRl5qcvzNVTxl/pw84sopeVG/mkZvXyYbnm72MXm9fmrDezS7aY8tpmJjbCa8BrXW1Gg93uvuYwSAivYUMOf8kC+N68DWZQRon53ZsLzKXPzjHHP8LOLGJ3h1X5pkQOWD0RX2Xezt9gpq/cbDbVb2XiIryGyRwC6heG1/TrGSSEVzBaZiDNyV/KXmsenbrS3PHGAq2dlQMgjC/EjveQ5IR2DfnNK/PNA5NXmH/NXGsmFFaYorI67TAChNfQmhy/gYC6593XOQwWwit8Fqmhk0X0o4WV5unEKr155+bRBeYiG2iPfiCDMYe4j0FVDlXdMKpAD1X2TS024+aXazmPlPUA4RU/dQ7BdG+QhM9gIbzCFyK9IaXOTnrNyteYL2avNfdOWGJ+8WK+fs0pV0syDhFdrSWXA1VXPT/X/NV+6Ht2+hq9NU8+DMqlALVNHK4ivCK7rh2z+5rLoCG8wr4HWlmM5UrbBWW1ZuqSjWbI9BLzl3cXmUuenWNO6JtpjuxF2QEGU7kkRD60fX/gbPPbNxfoJQAfFlWa+etrNUCtrW4KxHWrhFfsQnMdxxxEKKX2lfAKXUpbe7su2BJqpd+khNr40k3a0uee8UvMT0bk6YLPzWDoJ6XNnHwgk9ZzcshRrladt7ZGP7it29KkFwG0UKdKeEV2Xbth9zWTwUN4hc4LtdLlQBb59XaxL1hXazJWVGndn9TU/uGtIr0VSG4HOjQ5wU1h2KXKeJOAKjXdt75WaFKmrtST/vLBS65UXbO5UWtTpRackEp4xU4xkyC6X31f41cweAiv0D3BVi5WkCtvpa5W3kv5+vWVnPW6yyVX4F4/ap4575lttbVyYOyIXul6b7schJFdXMIu7qyMCRkbMkZkrMiYkVrUs/vPMj//V775x/uL9UOT3EglV6jOXFWtX/PLGJSxyGl/wit2dV9Xm8FgP4m4kxlEhFfwJrLjJbu2c9ZsMe/O22AG2mDbZ8oK88/xS8ydY4o0lMhBGbku82uPTNfbiKTVFzu5wdsllWAq9dTHPpihO6ayY3/mU7O0LEVunrp73GLz4McrzID01eb13PUmq3izlrFIOAXCK3pMyV5wQLWvF9gXso3BRHgFfyLhRHbQZDxMXFBhhmeWmt6Tl5u/jV2sAVd6akrIlRIF6bF52hNZn4ZdCUKyS0fQ7b4DUMfsFEblZikJpBcPydFb4W4aXaAHo+QEf/TDZXo4UC7amLWq2qza1GjquCIVCK9+tN1JSruQAHrA5QPuOwwmwisEm/Z2o7cWyUIn4UeCrnyFLF8l9/xouQYkueXoVy/N0+D0n8Ny9RYyqYk8f+DszwTf47fv8spOoOwIhvmr+iO274bKhwHpNiEB9KynZ+mJfHntJIj+6LlcbSMlbdakd7D0PZUwKjdKjZy1VuugpR3b4vI6U1HbTI0pEF6D7bsEz46gZ9qZ9sVsYUARXgF2BF3Z0ZUuChvrturpcglWcsVu2tJNWjMpd87LLm//xGo97CNhTO6iv+utIj0AdJ0NwbLjK6FtRxCWG8ykjlfqMM94aqb5zhMzNeyd/HiWOemxTA3GEgBlF/Kb1q8/uk0Jy1/bruxSilLPubM7/rn8O8dvd8d/L7+W/Jrya8vPkJ8lP1N+tvweTn9ypgZOKcGQHr5yyl5+z1eOyDM/s0FeAr0Ee9nJlssrkj5Yah7+ZKW2iho6Y40ZnbPOjC0oN58s3qgfDKS/aWl1k6m0r92WxhZtsUZNKRBeUbOWZC7osM4DIxlUhFeAjkLCmoQ26bYgh9JKqhrNssp6bSUmYzd7dbXWZU5bUWXSl1cZd9kmbWwvAXCKVa7ulfZMcpDtgwUVeo2oKMFZlN3Knd3xz+XfkV1lUf47+TXk1/p40Ub9teVnyM+Snyk/O9P+HiRw5q7ZYgrX15qlFfVaK7qhptlUNbToV/PshALhFTvIkQTOjuR+95v2Ra1hYPlHOS0MAADhRr4VYU30hTVOz4xvETg7fPc10YfB5R9lVwkAAMKNXB7BmugHbcaCzmibNeso+wKXMMD84TPpq5m1AQBCjpTAsCZ63jWasaCzOg8k7mKQ+UNpoQMAAOHmuRlrWBM9fyGBzVbQmZiD7Audy2DzvnJCWk6DAwBAeLnl1fmsid42V7MVdPru65UMNu8rzc3ltDYAAIQTaWMnbeBYE718m1baVQTLrmudNYFB5/3beQZPK2H2BgAIKdJK7ugHMlgTvesEAmVXkpz6HfuiNzHwvO3lw3JNcyt3lwMAhBG5NENuemM99KRNTs/E6QTKLu8+kHiawedt5YpOacIOAADhYnllg94Yx1ro1XIBm6GgG7gn4xj7BqxlEHrXg2KuXlnZ1s4NQAAAYeLBj1eYw3qy6+pR12qGgu7afY3fySD0tnKfu1x3CQAA4UCuMD5nQDZroGd3XW12gm5vnTWdwehtbx5dQO0rAEBISPpgqX7zxvrnSafTGssbh7fOs29GCwPS222zRuesY0YHAAg40iKR9lietUUzE3imddZgBqW3PXdAtllWWc/MDgAQULY0tpgbRhWw5nn3kNYQAqOX6JV1rBNxSxmc3vbP7y40dc3cugUAEEQeTyvWHt+sdx49pCVZCTzXOusWBqf3Ly4YlMHFBQAAQeODBRXaHpG1zrO7rrcQFL1KzJ3EIPV+71eZ5AAAIBjkldaYM56ayRrnVSUbgZdrX1NPtm9ULYPV237j0Rkms3gzMz4AgM+Rsww/HDqHtc271jr3xU8hIHr/8FaUwep9v9s/28xfX8vMDwDgU0qrm8x1L81jTfO2UYKhH7ht7CH2zcpnwHrfHwzJMUVldawAAAA+Y92WJnPLq/NZy7xtvpOScSjB0D+1r5faN62Vget9LxqcY/LX1rASAAD4hDWbG82vXyG4etxWzUJA71fsvBICamABALzPkvJ684sX81m7vO9ggqAvW2fNOsqJuMsYwP7w230zzaSiSlYGAACPkr262lzyLIezvN8Wy2YfyUDg1wDr/sS+ke0MZn/4lT7TzIisUrO1tZ1VAgDAQ0iLw9OfpB2WD2x3ImlXEQD9Xz4wgsHsH4/slW7uHrfYVNZtZbUAAOhmmlraTL+0YnP8I9NZo/zhCIJfELgn4xj7ZhYzoP3lNSPzzaxV1awcAADdxOqqRnPnmCJzWM8E65I/LNbMA0HZfU37OeUD/vPkx7PM8MxSVhAAgC5m4oIK871nslmL/FQuIFkHAlc+MJLB7T+PfiDD/N5+8pfWLAAA0LnUNbea2KRlegaBNchXjiToBZFeWcfaN3clA9x/HhRzzTkDss2YuWWmpY3DXAAAHU1be7txl20yVz8/1xyaTJmAz1ypGQeCenlB/AouL/Cvh9gJ9S/vLjJLK+pNKyEWAKBDkNuyHvlkpTm8ZzprjS8vI7DZBoJePhDvz2D3t994dIYZlrmGjgQAAAfA5oYWM25+uX6zxdriV22mgRCQMvZw+4YXMOD972VD52jvwSo7AQMAwN5R39xqZq6qNje+XMBa4m8LNNNASEhOPc++6U0M/GD4uzcXmIwVVdqPEAAAdk/Bulpz38SlehiW9cPXNmmWgZARcWMM/uD45T7TTI8JS3U3AQAAPktRWZ1JmbrSnNIvizUjGFfAxghyoSwfSDnYDoB0HoJgeaqdmCMfLDOZxZtZrQCA0GpD62Opxeb8gbNZI4JjumYYCOvua+JEJ+Zu5EEInqc9kaW9ChPLq1i9ACB05K+t0dB6wSBCa6CUzNIr4yQCHAH2Jm7fCvYtXf8cv8TklGxhNQOAwLO4vM70taGVDgJBvUUr/WaCG+xonzWchyLYfueJmebW1wrZiQWAQDJ/fa35x/uLzXf7Z5uDY1wyENC2WMMJbPBvekw5wom583gwgu+3UmaYK0fkmdE56+hOAAC+Z1JRpblhVAEHscLQFkuyCsBniKV+1w6OOh6QcPgfD2SY856ZbZInLTPLKutZAQHAN2yoaTZPJ1aZi4fkmOMemsacHnzrNKMA7Kb+9c88JOG7cvabKTPMnWOKzPvzy03D1ja94xsAwCvIlLS1tV3Lnv4+drE5/cmZ5rCelAaEqFzgLwQ02EP9qzuGByWcSp3YD4fOMYOnlZi5pTV6Cw0AQHfR2NJmFm2oMy9lrzXXj5qnH7aZq8Nm4i2CGeyZ5NT/sANmIQ9MuJVdjd++ucCMLyzXsgKCLAB0Bc2tbaakqtF8snij+Z9xSygLCLcLNZMA7EP9ay0PDopff3SGuXfCEpO2dJMGWQ56AUBHIqVKq21glctVHp260pzx1EzmXqx1kuLnEMhgX8sH7uDhwf/tmU/NMtEPl5m4DbJLK+p1lwQAYH8o3tSggVUuE5DDV8yx+O/LCBK/I4jBfgZY+r/irj28Z7q5aHCOXoDwYVGlKa1uYiUGgD1SWbdVD171nrzc/OewXPMlygLw844ggMH+kzL2cDuIcniQ8Is8ole6+dkLc02PCUvNy7PX6QELAIAdyIfbd+dt0NZ8N75cYL72yHTmTtydczR7ABwQ98VPsYOpkgcK97ZjgezI/vd7i8zAjBLdYaFGFiB8yJXUwzLXaL38FcPzzNEPZDBH4h5KBdyNTixxKsELOoak+DV2YLXycOG+evLjWeaakfl6CEN2XlZsbGBVBwggcnHAxAUVZkD6avObV+broStaW+E+2GrD67UELujgDgTxCA8X7q8HxVzz1Yenm7P7zzK3v7HAPJ9VarKKN5tN9VtZ9QF8iLTPk93VV+esN399b5E5f+Bs7UzC5QG4n0YJWtA5ROJv8IBhR11PKzd7SfcC6Sf7ml0ApVa2tol+sgBeRDqLrNzYoDfxyS1XElZP6JvJgSvsCN8kYEHn8fePjnai8TweNOxopR5Odmbl2kfZmZWDX0vKacUF0F3IdayrNjWasQXl5m82rH7vmWxz/CPTzTEPZmhtO/MWdtDVr3maLQA6lV4ZJznRRAUPHHb2DV+yO3vOgGxz3UvzTL+0Yi0z2NzQoldGysIq950DwIHR0tauhyrlW4/562v1kNUtr87XndUv95mmbfGk7Id5CTvh6lebJVJPJlhBF9W/Jq60A6+ZBw+7um72/zw5U+84l7Zcr+euN4V2sd1Yt1Xr7yTQAsAXB9WGrW2myn4IlNvypARA+q3KASvZWaVeFbvQZs0SAF1b/5q4m4cPvdBj9gdDtrXmkt3Zt+aWmXlra8za6ibqZyH0yIe6sppmrScfX1iunQCkddWVI/LMsQ/Sugq7tVzgfwhS0D1E48/yAKIXA+0lz87ROr0RWaVm6pKNJnfNFrO4vM5U1Dab1jZ2aCF4SOeO5ZUNJq+0xrjLNpnROevMfROXmp/YoHoch6rQS0bcoQQo6D5uG3uIDbAf8jCiH7obSGcD+Xr0wY9XaMnBtBVVJn9tjVlaUa9XVgL4gerGFu2XLN8wZBZvNu/N22AeSy02d7yxwHx/4GxO/6PXd1w/1OwA0K30mPIlOyALeSDRb8rXplJDK7u0EmqjHy4zI2etNR8v2qjBQE5aSz0ttbTQ1chhRKlLLalqNAvKak3a0k3aT1U+eElIvXxYrn4Ykw4dPMvoIwud3vHjCE7goQ4EbhkPJgZB+Yr13AHZeqWldDq4c0yReciGBmnfNWXxRj0kJl/REmrhQJESFtlJld3/uA2o0u9YdlH/+PZCc+PLBVqbesGg2dqiimcTfW65ZgUAT5Gc/kM7OOt5QDGoylWXcrGCfDX70xfmmhtGFegFC/eMX2KeTqzSUoSMFVVadygHZQAEaUMlO6gzV1Wbd/I3mIEZJeb+iUvNH94qMjePLjA//1e+Hjo88bFMrdfmWcMAWq8ZAcCbHQjit9tB2s6DimFUag1PfjzLnPfMbN21lVKEP72zUIOK7NwOnlai9YkSYqQkgW4I/kd6DktnizlrtpgJhRXaI/XhT1aayAfL9MrUW18r/HT39LQnssxX+kyjwT+GzXYn4v6WgATeJhaP8LAifr5H7ZG90rVG8aTHMrVe8cLBOeZnL8zVsoSkD5aaR2zokVZGL8wsNW/klWmXBDlQtmYzQbcrkT6o67Y0aa2pnNp/O3+D1kIPyigxfVOLTWzSMvNf9kPJL1+cZy4ekmPO7j9LP7TIV/tyUxzhFHEnY/EHCEbgkx3YxNM8tIh7rwQeaRAvAVc6I8hhMgm6UqYgXydLQLps6By9oEG+bpZLGqSv7fNZpVquIDu6k4oqtW5Sdnbnlm7roiC7glJTGaZrdqURv4R96W8qJRxy+G6WfU0Sy6vM5EWV2phfXjMJpFLuIQf1pMb0ptEF5sfD87TeWT5gfMu+9l+zgVR21OU9kfdGbpuS8hHGLOJe+RyBCHyEOcgO2jE8uIids4srAUrCrtRIHtU7XXf8JGDJvfMSfCVwycEzCb+n9svSa3Yl/F79/L9rdaUPrpQ09JmywjzlrjLPzVijh9LGzC3ThvZyOC3dBr4ZKzfr1bzZq6tNTskW/YpcwrGEwoJ1tXqATXYpi8rqPnXhhjptjC/K3+/8/8m/K/+N/Lfya8ivJX145deWnyE/a7r9mVI//In9PcjX8XL5hPQtHZ5ZavonVusutYTOf7y/WHeuJXjKLvaPnsvVsg3pInFC30y93lReC3lN5LWR10heK3nNdg6jXH+K2OGO0SwA4CtSxh7uRNwEDzAiImKoLiFIaAYA8CXSz40esIiIiPRyBfAN0tct4pbyQCMiIgZ6x7WUXq4QHJLi5zjRRAUPNyIiYhC1a3wk/XsEHggWMfdSO8CrecAREREDZTWXEEBwSU78zA7yBh50RETEQNioaztAoImm32wHeysPPCIioq9t1TUdICQlBL93uEYWERHRr8oa/gcCDYSLSOJeHn5EREQfGov3IMhASEsIEslMAoiIiH5qiRXvSYCBkO/Axh9mMkBERPRFcH2Y4AKgO7DxvkwKiIiIXi4VcB8jsAB8tgb2aSYHREREL+642jUaAHa1A+sOZpJARET0lIMJKAC7xRzkRNyhTBSIiIie8DldmwFgDwE25g5iwkBEROzWGtdBBFcAamARERF9YLw/QQRgf5CTjUwiiIiIdBUA8M8hrkQfJhNERMSu0K65ANARJQTxnkwoiIiIndkOi5uzADq6BvZe+3C1M8EgIiJ2qO1OLN6DoAHQKTWwibvsQ9bCRIOIiNgh2jU1/kcCBkCn1sCm32wftkYmHERExAOy0YnEf02wAOgKkuNX24euhokHERFxv5Q19KcECoAurYFNu8Q+eJVMQIiIiPvUCmuj9VKCBEB3kBQ/x4m4pUxGiIiIe+VaXTsBoBu5L36KfRgXMiEhIiJ+oQt1zQQAL5QQTP2qE01kMTEhIiLu0unOA5lfITAAeCrAzjrKPpwfMEEhIiJ+xrFOSsaRBAUAL3Lb2EOcaHw4ExUiIqIYf9ZJSTmYgADg+V1YN+ZwGxciIoZXuTUrQiAA8BMx91b78DYwgSEiYsiUywduJwgA+HIHNnGZfYjLmMgQETEklunaBwA+ZlsrrUImNEREDLiFtMICCAq9so51Yu4kJjZERAykEXeyrnUAECCkE0EkMYRJDhERgxVc7domaxwABLYO9m77sG9lwkNERJ+7Vdc0AAhDgE27yj705Ux8iIjoU8t1LQOAEBFNPdk+/HOZABER0WfO1TUMAEKIXJcXdd9kIkRERJ/4pl6HDgBh34V1o9YWJkVERPSorbpWAQD8O8Cm/dyJuRuZIBER0VPq2mTXKACAzxFLnGonilwmS0RE9Ii5TlLGaSzQALB7ekw5wom4LzJhIiJi95p4Sc9mAADsXRlB4k928qhn8kRExC62XtcgAIB9Jjn1PDuBLGYiRUTELtptXaxrDwDAfnNPxjF2QhnDhIqIiJ3sGF1zAAA6hIj7V8oIEBGxU8oEZI0BAOhwYqnftZNMARMtIiJ2kAW6tgAAdBp6K1dimJ1w2pl0ERFxP23XtYRuAgDQZUTTb+ZSA0RE3L9LB+waAgDQ5UQSJ9qJKJ3JGBER99J0XTsAALqvjCDlYCeaSLYTUhOTMiIi7sYmXStkzQAA8ATaE5bDXIiIuItDWfRuBQBv7sKOPdyJxvvbiaqVyRoRMfS26Zog144DAHiaWPwKO2kVM3EjIobWYl0LAAB8Q6+sY51o4iVaaiEihq0FljtK1wAAAF+SFL+GXVhExFC4Sud8AADfI3dVR90R2+qfmOAREYNX22rneJnrAQACRSxxpRONL2eiR0QMinZOl7kdACCwRGYdZSe8wezCIiL6frd1sM7pAADh2IV1L7UTXz4LACKi78zXORwAIHSkZBzqxOIROxHWshggInpemaujOncDAISaaOrJ9lP8JBYGRESPKnP0ffFTWLAAAHYmkrjFibilLBSIiB5R5mSZmwEAYDdIY+uYO8hOmi0sHIiI3WaLHsjisgEAgL0k5p5rP/EnWEAQEbt8tzWhczAAAOxXiL3VTqYlLCiIiJ1uic65AABwgGhv2PgTdmJtYHFBROxwG3SOpWcrAEBHh9iMM+wkO4GFBhGxw5ygcysAAHQiyfGrueAAEfEALxqQuRQAALqIlJSDnZj7e+phERH3sa416v5B51AAAOgGtB420YdbuhAR93Q7lp0rqWsFAPAISVNPsBPzC/SHRUT8X/1aY/F/6RwJAABe3InNOMOJue/YCbuNRQsRQ2ybzoU9085kYQAA8MVObNqFTsSdzAKGiOEz/rHOgQAA4ENi8SvsZJ7JYoaIITBT5zwAAAgAyfEb7MSey+KGiAHcac3TOQ4AAIKGOchO9Dda57DYIWIAnKNzmsxtAAAQcKLp1zuR+GwWP0T0oTk6hwEAQAiJuL+yC0E2iyEi+sBsJ5a4jokbAAAcJ+Ze60QTLosjInrOiJvQOQoAAODzO7Fpl9jFYhx9YhGx2/u0ylwUcy9lYgYAgD0Tdc+yjrI2sYgiYhfatH3uOYuJGAAA9p1ead92Yu4zdiGpZlFFxE60WucamXMAAAAOPMRmHetEEvc60fhyFllE7MAercudWLyHzjEAAAAdTkrKwTbE3sThLkQ8MO0cInOJzCkAAABdQiT+fbsIjbY2shAj4l7YqHNGsns+EygAAHQfPaZ83QbZnnZRWsHijIi7cIXOETJXAAAAeAb5+i8W/6VdqCZYW1mwEUNtq84FMidQGgAAAJ4nkjjRicb72sVrHYs4Yqhcp89+r4yTmAgBAMCHu7EZhzqR+K/tgvaBdSsLO2Ig3arPuDzr8swDAAAEguTUbzixeMQuckUs9oiBcJE+0/JsAwAABJok93In4r7I5QeIPrxMQJ5deYYBAABCR2TWUXYh/K1dED+irADRw2UBEXeyE0v8Tp9ZAAAAcLa33JJbvNyZ1nYCA2K32q7PojyTtLgCAADYA7HEqU400duJufMIEYhdqD5z9tlLyjiNiQgAAGB/iGSc4cTiDzjReB7hArFTLLCBtY9zf/rZTDgAAAAdiewGRd3o9tKCNkIH4n6XBOToDmvPtDOZWAAAALqCXmnftgvwP52YG7d/bSaQIH6hzduflX9ygQAAAEB30zt+nF2U73CiibfsXzcRVBDVTdufiTv0GQEAAAAPctvYQ5xY/Aq7YD/FgS8M54ErGfv2GZBnAQAAAHxG0tQTnGj8j3ZBf9NaRsDBgFm2bWzbMS5jHQAAAIKEOchJds93Im7MLvhTrfWEH/SZ9Tp2ZQzLWJYxDQAAACEhJeNIJzl+tRON97WBIN3aQDhCj9mwbWzaMSpjVcYsAAAAwLYwO/ZwJyntx07MfWj7zmwN4Qm72BodezIGZSzKmAQAAADYuzCbcagNEZc6sXgPGyjGWFcQrrCDXaFjS8ZYJHGZjjkAAACADkPueY+6NzqxRL/tfTOrCWC4l1brmJGxI2NIxhIAAABAl5KScrANImdt6zPrDrCmOdFEBUEt7OoYSNs+Ju7QMSJjBQAAAMCTRBInOtH0m52I+6j9+/H2r8tsgGkl1AXOFutS6zh9r/U9t+89AAAAgP8D7ayjnFj6xdv6zsb728AzYXvwaSEEet6t1kUaUmPuY7qbKq2qOFAFAAAAoUMC0P3pZzuRxE3be9COdKIJ1/61mGDbxQFVdsgj7hT7+g/bdlAv/Xp9b/6edxgDFQAAAGBPSGjqmTjdibnX2nD7ZxuqUmzIenl7K6+FXLSwTzY60fhy+xpOs3//uvVxG1T/6iTFr9HXmJP+AAAAAF1AZOpX9SvsWOK6bSUJiWQbzAY7kfgb229jmm//uj6gu7gt+mfb9mecuv3PLH/2nvpayGuir03G8QwUAAAAAL/RO36cDXSnOtH0C/TGppj7Gxt2/2RN0lucIokhNgi+aAPgm9ax9p+l2v+dsH/Ns/+70LpyezlD1S5s2U243NW/W7z91yrUX3vbz0jd9jPdMfp7kN+L3n4mvzf7e5Tfq/yek9Iu1D+D/FkAAELE/we3+wbI7vpyMgAAAABJRU5ErkJggg==" vertex="1" parent="1">
          <mxGeometry x="991.5" y="550" width="187" height="187" as="geometry" />
        </mxCell>
        <mxCell id="UInGQhhdpgO1K5RLCYIn-27" value="delete" style="text;html=1;align=center;verticalAlign=middle;resizable=0;points=[];autosize=1;" vertex="1" parent="1">
          <mxGeometry x="496.5" y="757" width="50" height="20" as="geometry" />
        </mxCell>
        <mxCell id="UInGQhhdpgO1K5RLCYIn-28" value="EC2" style="shape=internalStorage;whiteSpace=wrap;html=1;backgroundOutline=1;" vertex="1" parent="1">
          <mxGeometry x="760" y="910" width="100" height="107" as="geometry" />
        </mxCell>
        <mxCell id="UInGQhhdpgO1K5RLCYIn-29" style="edgeStyle=orthogonalEdgeStyle;rounded=0;orthogonalLoop=1;jettySize=auto;html=1;exitX=1;exitY=0.5;exitDx=0;exitDy=0;" edge="1" parent="1" source="UInGQhhdpgO1K5RLCYIn-30">
          <mxGeometry relative="1" as="geometry">
            <mxPoint x="560" y="1547" as="targetPoint" />
          </mxGeometry>
        </mxCell>
        <mxCell id="UInGQhhdpgO1K5RLCYIn-30" value="USER123&lt;br&gt;&lt;br&gt;MYFIRSTPROJ&lt;br&gt;MFP" style="rounded=0;whiteSpace=wrap;html=1;" vertex="1" parent="1">
          <mxGeometry x="130" y="1367" width="200" height="300" as="geometry" />
        </mxCell>
        <mxCell id="UInGQhhdpgO1K5RLCYIn-31" value="" style="rounded=0;whiteSpace=wrap;html=1;fillColor=#dae8fc;strokeColor=#6c8ebf;" vertex="1" parent="1">
          <mxGeometry x="570" y="1367" width="280" height="463" as="geometry" />
        </mxCell>
        <mxCell id="UInGQhhdpgO1K5RLCYIn-32" value="ami: 123&lt;br&gt;ram: 2gb&lt;br&gt;storage: 20gb" style="rounded=0;whiteSpace=wrap;html=1;" vertex="1" parent="1">
          <mxGeometry x="390" y="1547" width="120" height="140" as="geometry" />
        </mxCell>
        <mxCell id="UInGQhhdpgO1K5RLCYIn-33" value="NODE JS" style="rounded=0;whiteSpace=wrap;html=1;" vertex="1" parent="1">
          <mxGeometry x="590" y="1407" width="230" height="140" as="geometry" />
        </mxCell>
        <mxCell id="UInGQhhdpgO1K5RLCYIn-34" value="POST" style="text;html=1;align=center;verticalAlign=middle;resizable=0;points=[];autosize=1;" vertex="1" parent="1">
          <mxGeometry x="405" y="1517" width="50" height="20" as="geometry" />
        </mxCell>
        <mxCell id="UInGQhhdpgO1K5RLCYIn-35" value="TERRAFORM" style="text;html=1;strokeColor=none;fillColor=none;align=center;verticalAlign=middle;whiteSpace=wrap;rounded=0;" vertex="1" parent="1">
          <mxGeometry x="620" y="1677" width="40" height="20" as="geometry" />
        </mxCell>
        <mxCell id="UInGQhhdpgO1K5RLCYIn-36" value="" style="shape=umlActor;verticalLabelPosition=bottom;verticalAlign=top;html=1;outlineConnect=0;" vertex="1" parent="1">
          <mxGeometry x="210" y="1437" width="30" height="60" as="geometry" />
        </mxCell>
        <mxCell id="UInGQhhdpgO1K5RLCYIn-37" style="edgeStyle=orthogonalEdgeStyle;rounded=0;orthogonalLoop=1;jettySize=auto;html=1;exitX=1;exitY=0.75;exitDx=0;exitDy=0;" edge="1" parent="1" source="UInGQhhdpgO1K5RLCYIn-38" target="UInGQhhdpgO1K5RLCYIn-40">
          <mxGeometry relative="1" as="geometry" />
        </mxCell>
        <mxCell id="UInGQhhdpgO1K5RLCYIn-38" value="USER123&lt;br&gt;-- MFP&lt;br&gt;terraform apply&lt;br&gt;tfstate" style="rounded=1;whiteSpace=wrap;html=1;" vertex="1" parent="1">
          <mxGeometry x="600" y="1557" width="220" height="100" as="geometry" />
        </mxCell>
        <mxCell id="UInGQhhdpgO1K5RLCYIn-39" style="edgeStyle=orthogonalEdgeStyle;rounded=0;orthogonalLoop=1;jettySize=auto;html=1;exitX=0.25;exitY=1;exitDx=0;exitDy=0;entryX=1.009;entryY=0.705;entryDx=0;entryDy=0;entryPerimeter=0;" edge="1" parent="1" source="UInGQhhdpgO1K5RLCYIn-40" target="UInGQhhdpgO1K5RLCYIn-31">
          <mxGeometry relative="1" as="geometry" />
        </mxCell>
        <mxCell id="UInGQhhdpgO1K5RLCYIn-40" value="" style="shape=image;verticalLabelPosition=bottom;verticalAlign=top;imageAspect=0;aspect=fixed;image=data:image/png,iVBORw0KGgoAAAANSUhEUgAAAq8AAAKvCAYAAABEYSadAAB94ElEQVR42uydCXiU1dm/x6Xu2ta11lZrrUtbl662Vbva9l9rrXZRu9ja5atttVSSCbsQEEVAEAVFFFcWF0RERCSZmYRsZCEJZIEskEAWCCFk39fn/z4H0iJlSzIzmXfe+76u+/rafgrJmXfO+c2Zc57H5QIAAAAAAACAEGXEmrNc//Zc7IryXuuKiP2uK8JzuyvCe6/L7X3QFemLdkV6Z1v//Tnrf19k/edllh9Y/z+PK9KTaf3nTZYl+622rDvINks5yLZD/HPVB/w5m8yfbf4O6+/Sv1P/bv0Z9GfRn0l/Nv0Zzc9q/cz6s+vvoL8LAAAAANiMkfEfc0XFXG0FvJ+43L4/WP/XbQW+WVb4e3V/INTQudOy+xDh0u527//dNu3/XV81v7sZAzMWP7FC7zWuB7zn8KAAAAAABJro+BNdIz2fdUXG3mx2H/ftjr5gudZys2VzGAbSQNlmjWGxZfy+YO+ZbPkXa3x/aIX/S113LjuBBw4AAADgqAF12UmuB+OudEX4brNCVaTL7Xl2/9foJWG6WxqqdloWWeF2jfUhYa71OoxwuX23mNfmvsyP8KACAACAw0Jq/Cmukb6vWAHpHstplitMWCKg2sEuyy1WsH3L+mAxxfrPd5ujGvrBAwAAAMD2RPguckV5brVCzkTL5ftDag8hMBzP3PoKzGsc4Z1kXnN97QEAAABCkujo463gcoUrwnOX9X9nWMZaYWYPoc7pmmfAehY80/c/G1eYZwUAAAAgqIxYc57ZXXP7pu4/l9pAUMNjtME8M/rs6DOkzxIAAACA39Db5+64r5qLO5Hexa5Iz1YCGPpX80wt3nc5zHrWqHgAAAAAx4zeKB8Ze6MVJsbtu3HubSJcYZBt2v/sjTPPIlUOAAAA4D+MWHOyK8rzPVM7NcLrswJDK+EJQ8zWfc+m9Yzqs6rPLAAAADgI7bbk9kTs78ZEWEX7hdl9z26keZYBAAAgzBgV/4l9bUI9i6wFv4rwg2FmlXm29RnXZx0AAABshl54ifTdsL8JQLZlHwEHHWLf/md+mnkPcPkLAAAgRBmx5qz9tTQXW9YSYhCN+l5YYt4b+h4BAACAYUS/Io3w/WNfIXjTk56wgnh4O817JcJ7Px3AAAAAgsW/PRe7In0jrUU40bKXQII4yOMFEZ406700xhUR/zkmFgAAAH+ii6suspHeDM6vIgbEbJfbO941KvZyJhwAAIDB4PZd4orwjNp/+YRwgRgs3d6N5r2n70EAAAA4Ag94zzHn8SJ9yeywIoZC5QLzXnzA5Y4/lwkKAABAiVh/qrU43u1ye1dZ/7eLwIAYkup78z3zXtX3LAAAgONwx33V5fY8ay2GDQQDRFvZ4IrwPmfewwAAAGFNVMz5+9uy5hIAEMPCXPOe1vc2AABAWKAdfiI8t1uL3EqOBSCG9bGClea9TlcvAACwJVoEPdIXbS1olSzsiI6y0rz3aYQAAAChjxxnLVg/thavFZbdLOKIjrbbzAU6J0RHH8/8CAAAoYOW0Yn0RbkiPVtZsBHxf7XmBlM7lpJbAAAwnER4rrEWpoWW7SzOiHgMtps5Q+cOAACAoKBf/0V6f+Zyez0sxIg4eH1eM5dwpAAAAALC/fFnuCJ8/3JFeItZdBHRb+qconPL6OQzmWgBAGDojFx7obXAzLCsZ6FFxABab+YanXMAAAAGzKjYy12RvuetxaSDRRURg2iHmXt0DgIAADgqEbFfc0V437IWkF4WUUQcRnvNXKRzEgAAwP/g9v5o/wUKFk1EDL3LXTpHAQAAuCK8P7EWhfUsjohoA1PNnAUAAA4kMu6nrghPGoshItqvQoHOXdYcBgAADiDKc6s1+aezACJiGJhh5jQAAAjTndZI7wYWO0QMQzewEwsAEC64PTdZE3siixsiOsBEM+cBAIAtd1qvc0V4V7OYIaIDu3atNnMgAADYgIj4z7nc3tep04qIjq8Tq3OhzokAABCCmDauvvnWhN3NooWI+B+7XW7Ps7SdBQAImZ3W9adaoXWCNUE3s0ghIh7WZjNX6pwJAADDgRzncvt+a03IZSxKiIjHbJkrwvM7V3T08awjAADBIsrzPWsCzmYRQkQctNlmLgUAgAAyyneZNeGuYNFBRPSbK8zcCgAAfkTPaLl9U61Jto2FBhHR77aZOZbzsAAAfsDt+SXnWhERg3QeNtLzKxYeAIBBhVbvFyw9LCaIiMHW5zVzMAAAHAP3x59hTZqzrAm0iwUEEXHY7DJzsc7JAABwGCI8t7sivBUsGoiIIdNqtsIKsXewQAEAHEhkzKetSXIlCwUiYqjqedfM1QAAjiY6/kRXpG8k3bEQEW3TpWukmbsBAJx3RCD2a9ZEmMVigIhoO7PMHA4A4IzQqjVbzYWsHhYARETb2mPmcmrDAkB4B1fvty2LmfQREcPmQlexmdsBAMKKqJjTXZGeedZE18tkj4gYdvaaOZ6yWgAQFkTG3mxNbKVM7oiIYW+pmfMBAGzJ6OQzrYlsgWUfEzoiomPsc0V4nzNrAACAbRgZe6M1gZUwiSMiOtYSl9tzEwsiAIQ20ctOckX4HqOSACIi7lsLPNPN2gAAEHJExVztcns3MlkjIuKH1LVB1wgAgNDYbY0+3hXhdVsTVDuTNCIiHsZ2s1bomgEAMGxE+C6yJiMfkzIiIh6jcWbtAAAYhuB6mzUJ1TARIyLiAI8R7HVFxv2chRQAgsOINSdbk89TlMBCRMQhldTStUTXFACAgOGOuYpLWYiI6NfLXLq2AAD4nUjPX6yJpoXJFhER/WyLWWMAAPyC9qqO9C5hckVExAC7xKw5AACDRuvyRfoKmFARETE4WmsONWEBYJDHBP5oTSStTKSIiBhkW10R3ntZiAHg2NCbn27Ps0yeiIg4zC6gGgEAHJl/ey62JosNTJiIiBgibjBrEwDA/x4TiL15X+FoJktERAy1pgbWGgUA8N/g6htpTRDdTJKIiBiidrvcnggWbACnEx1/ijUhLGZSREREm7jYrF0A4MTd1phPc74VERHtpyfTrGEA4CAivN+2JoBqJkBERLSp1WYtAwAn7Lh6/27ZxcSHiIg2t8sV4fsHCztAuHLnshOsN/kTTHaIiBhW6tqmaxwAhBHaK9rtXcUkh4iIYVpOa5VZ6wAgDNDizm7vRiY3REQMc3NpaABgdyJ811tv5iomNEREdIhVZu0DABvi9v7aehO3MZEhIqLDbDNrIADYacfV67bevL1MYIiI6FB76cgFYAf0tmWkby6TFiIi4v5KBNHRxxMQAEJyt3X9qdYb9R0mK0RExAMrEfjedI1YczJBASCkguvas603aBKTFCIi4qH0rXONTfo4gQEgFND+zpHezUxMiIiIRzTfrJkAMIy4Y65yRXgrmJAQERGP5QystWaO9HyeAAEwLME17qvWG7GGyQgREXFA1rgiYr9GkAAIJlGe71lvvkYmIERExEHZZNZSAAgCEb7brDddOxMPIiLikLTW0rifEywAAkmk9x7LbiYcREREv9ht1lYACEhwfcCyj4kGERHRr/a5Inz/ImgA+PWogGcUkwsiImIgKxFYay0A+GXHdRyTCiIiYhB0e8cTPACGFFw9k5lMEBERgxpgpxBAAAa34zqNSQQREXFYnEYQARjYjuvjTByIiIjDugM7i0ACcCxEeJ9k0kBERAyFS1zWmgwARzwqMJvJAhERMaScTUABOPSO66NMEIiIiJyBBbDDGVeqCiAiIoa01loNABZaU45JARER0Qb6JhBcwOlHBdxMBIiIiLYKsFEEGHDq5awHmAAQERFt6QMEGXDaUYHfWw9+H29+REREW9pn1nIAZ+y4xv3ceui7eeMjIiLa2m6zpgOE+VGB71u28oZHREQMC1tdUb4fEHAgTC9nxX7NesgbeKMjIiKGlQ2uCN/1BB0IszOuMVe5In17eIMjIiKGZQWCPS639wsEHggPRsd/yhXhreCNjYiIGMbqWq9rPoCtGeP5qPVA5/KmRkREdIS5Zu0HsCXRy06yPoX5eCMjIiI6agfWZzIAgL2Q46wHeAlvYkREREe6xGQBANsQ4XuMNy4iIqKTd2CtLABgCyI9/+RNi4iIiK5I3xiCEYR6cP2V9bD28GZFDI4nRPnkI6N8cvLoODnF8tQxcXLa2Hg53fKMcfFypuVZ49fJxyask09EJ8pnHkmWq6anytfmZMh3n8mSnzy/UX7xco78fkm+3LesQCJWFsu497fJw7GlMjNuh8xLqpCFaTvl1Q275PXs3bIid4+s3lIjMYW14ttaJ+u21UliSb2s394gqTsaJL2s8T9mVjQZM8r/+7+lWeo/m1Rab/7dOOvPiC2qlfe37DV/9hsbd8vizCp5wfo7n0mukFnxZfKIZ7s89EGJuFcVyz+WF8gflubLL1/OlZ8u3Cjfn58l1z+ZIV+YkSqffTRFPjk5Sc5+KMH8zvq76xicvn88dFx0jHSsdMx07I5z8wwhBtg+V4TnLgIShCZRcd9w0T0Lcchh9KRR+0KoBi4NYedMTDDB89MPJ5uQ9s2nNsgtVuj8nRU4R6wokikxpTI3qVxeTN9pAubKvD3yQcFeibfCoQbKnF3Nsm1vm+xu6pTG9m7p6O6Vvj4JK7p6+qS5o0eqmzultLZN8qqaTVjWgLy2cK+8m19jgvHLGbtMKH7Uu11GriySP762WW57cZPcOC9Trnk8TS6emiwXWgH4XGvMP2qNvYZffS008J5I2EUcrK0mIwCEFFrXLdK7izco4pHVHT8NpBpGL30kRT5vhdFvzd0gt7+UI39/q0BGvbfV7Ho+kVAmz6dWmsClO5waxiobOqStq1cgMHT29JqAX1DdIgkl9fJWTrXZAX4qsdyE3bGrt8n9bxfKr17JlW8/nSlfnJkql+3f7dWdbf3QQbhFPKxV1ICF0OH++DOo5Yq4T90t1TCjofQbT2aYHVLd3dPQM2b1VhOCdPdPvyrPr2oxO4W94bYN6hBqW7ukaE+r2eFeklUlM+J2mCMX/36nSP78xmb5+f4d3atnppldc/3QQrhFx9eAHbHmLIITDC93LjvBFel5lzckOsXj3T45f1Ki2XXTM6N67vLuRXnmvOjU2FLz1b2eB928u0Xq27pJeA5HjzJsrWkzAXdR5r6A+4D1Qea3i/PMcYUfzM+SL81ONx94dOeW9xiGv1Zm0OwAMGxE+J7gjYjhqH4NrOdLb5qXaQKqni8d//4281W+XljSc6R7mjvNV80Ag6G7t898wNlifdDRDzy6Iz85plTufX2z/OyFTebD0XWz0syHJd6TGGYBdg4BCoYruP6DNyCGQ0j93LQU8xX/na/mmjOnGlD1wtPGyibZXtsue1u6zIUggGCgp0jqrFBbVtduzjp7i2tNtQetuKBVIfQD1ZXT18t5hFq0dw3YfxCkIMjB1ftt6+Hr5A2IdlLPHOr5Q/2aP3ptibyWvduUedKQql/t1vE1P4Q4TR09ppqC7vynbG8w5cUe8203u7VffSLdlAnToy2839EGdrrcvu8QqCCIlQV8e3jjYSiri7h+7arlkF5K32V2r7IqmqS4ptVctAEIJ7QEWsneNvNBTCslLM2qkglrtpk6vlrZgjkBQ7SBwR4qEEDgue+906wHbgNvOAy1oPrDBdky8YMSs2hrUNVzhFr2iNJS4FT0PLaey9ZvFTTQag1grXahVRD0ghhzB4bI+ddMky0AAkak91XeaDicasH4L89Ol7sW5ZmdJS0+r+dS9eILl6cAjoye3dZdWq0ZrJfEtELGPUvz5Ya5G8yxGuYYHJ7zr55FBCwIUHD1jeRNhsEsSaWlg/SmtbYy1QVWy1AVVrdKS2eP6RKlt7UBYPD0WO8h/dCn31DoBTFtzPDP5YUmzGptWm2nq13fmJMw4Lo9EQQt8HNwjb3Zerh6eINhoNTWm/2dp7RXfcTKYlmVX0MRf4BhQN9yDe3dpj6tHsfR8+OfmvLfTmLMWRgAe1wjPT8kcIF/+LfnYi5oYSB2VnUh1AVRy1RFrSo2Xaf060wACD30/GzqjgbTvvh7Vpi9eGqynDMxwbQ8Zk5DP1njcvsuIXjB0IhedpL1MKXyhkJ/eNrYeLnICqvffGqDuK2wumxTtelEBQD2Q6sbaMMO3ZnVMHuJFWbPGBfPXIdDNd1kD4AhnHOdyxsJh6IuZtolSHu9P51cIb6tddLezcUqgHBDd2UXpu2UESuKzNEfrQLCHIiDrEAwjwAGg60scDdvIByMWobnluc3ytjV20w/dy3VAwDOoaqp01z+0na3v3olVy57NIW5EQdYgcD7G4IYDAx3zFXWw9PEGwiPVW1X+bsl+aaOpKeo1nQCAgDQ8lzrtzfI7HVl8pc3tshXnkhnzsRjsdlkEYBjYl8jgs28cfBofmFGqilh9WRiuelexXEAADgSWjlEG4ho17u/vrnFHC9gLsUjuNkVFXM6wQyO5bjAEt4weDjPHBcvd7yUIy+k7TSXrbTgOQDAQGnt7DFHipbnVJsz8RfQxhYP7RKCGRztgtafeKPgodT2q69k7JKcXc1S09LFygsAfkM/BOuH4bdzq+XuRXly8mhqyeKB5199fyagwZHOubbwRsF+vzQ7XeYklEtmRROBFQCCgjZHyKtqNkcLbn42m7kYxWQTzr/C/zBizcnWw5HNG8TZHufeVylg5MoiWVOwV+rauk37SACAYKNdvvTip3b5mrS2xFwK1TmKudqp7WO9G01WATjgnOtTvDmc66lj4uT787Nkum+HlNe3E1gBIKTQi176Yfr51Eq5/aUc+ej4daZLH/O30/TNJbDBPiJ8t1kPRR9vCmd5YpTPtHf89Su5ZpcVAMAupJc1yt+WFcgVj62XUzgf6yT7TGYBhzM69pMut3cvbwhnVQu4emaajHpvq2yvbWcVBADboruxs+LLTMmtcybS0cshxwf2WgH2IgKcU4mOPt56EOJ4MzjDc62J/bvPZJkSV1qiBgAgXNDzse/k7TGd/T41JYk5P/yNMxkGHHnONZI3gDNC689e2GRK0BBaASDcQ2zc1jq59/XN8umHk1kDwttIgpzTiIq52nrh23n4w/sSlna/Wpm3h9AKAI7DZ4XYiJXFND8IX9tNlgGnHBdYdpIpOcGDH5bq5YXfLcmXZZuqTU9xAAAnE1tUK/9cXkiIDU83mUwDjjguMI0HPjxrtP7i5Rxz7qu5g51WAIB+tPyfHifQCgWnjY1nzQgrPdMJduHOyNgbrRe7h4c9vLxh7gZ5LXu37GnuZJUCADgMLZ098kHBXrnjpRzWjvCxx+X23ETAC1fujz/DepFLeNDDR72Q8Exyhexs7GBVAgA4Rva2dMmbG3fLdbPSWEvCwxLX6OQzCXrheVxgAQ94ePiRUT4ZsaJIyuraTecZAAAYONXNnTIzboec/RA1YsPABQS9sAuusTfTRcv+ajtEbeOaVFovnT29rDwAAENEz8Nu3t1iqrOcEEXLWVt339KsA2F1XKCUB9ve6s7AdN8OaeIyFgCA3+m2QuwrGbvk8mnrzQVY1h1bWmoyD4TFcYGneKDt64lRPvnRgmxJK2tkdQEACDA76trlN4vzqEpg3+oD8wh+dkdv4EV6e3mY7dsda8zqrdLezREBAIBgMi+pQi6eSpcuG9pL9QE7E7H+VFeEt5gH2Z5+YUaqqdkKAADDQ3pZo9z8bDZrkt3U7KMZCGx5XGA2D7E9/fUruVJQ3cLKAQAwzNS0dMk/lheY7oWsT7ZyNkHQdruusV+jGYE9z7fqMYH6tm5WDACAEEFbbWtN7Y9PWMdaZafmBZqFwCbcuewE60XL4sG1l6eOiZPnUitN2RYAAAg93ttcY5rDsGbZxiyTicAOxwV8I3lg7eV5kxJleU41KwMAQIizfnuDXPM4nblso9sTQTAM+eAa82nrxWrmgbWPeptVe20DAIA9yN3VLNc/mcEaZg+bTTaCkL6ktZIH1T5eYgXXuK11rAQAADajaE+rfGvuBtYye9R+fZeAGLI1Xb138IDa66iAj+AKAGBbCqtb5cuz01nTbFE+y/cLgmKoMTr5TFeEt4IH1B6ePDpO3s2vYeYHALA5WRVN8tlHU1jbQr/2a4XJShBSu66zeDjtE1wXZ1Yx4wMAhAkJJfXyiehE1jhqv8IxExVztfWCdPNQ2qeOK+1eAQDCi+dTK2lkEPp2m8wEw40c54r0reOBtIe3v5RjurUAAEB40d3bJw++UyQnRPlY70JaKzNpdoLh7KTl+R0Poj381JQkya5sYoYHAAhTdjZ2yA1UILDB+VcrO8EwcX/8GdaLUMmDGPrqV0kz43YwswMAhDmr8mtoIxv6VpoMBcNS03UaD6A9/MH8LGlo72ZWBwBwAH9+YzNrX+iXznqMIBn8S1qXWoPfzgMY+p4xLl7eovUrAIBjyK9qMU1oWAND2g6TpSCYZ119b/Pg2cOfv7hJOqguAADgKP61otBUmGEdDOnd17cJlEGr6er7Dg+dPTx9bLwsoqYrAIDj0Au6Zz+UwFoY6mqmgmCUxvJm8MDZw68+kS5tXey6AgA4jb4+kd8vyZfj3KyFIe4GSmcF/pLWPTxo9vCkUXHycGwpMzgAgEN5c+NuOXUMjQts4D0EzICdc11/qjXAZTxk9rmo5dtax+wNAOBQSmvb5NyJHB2wgWUmY0Egzrp6x/OA2ceLpyZLbSvdtAAAnMz/e24ja6I9Om9NIGj6mwe9F1iD28jDZR/veCmHWRsAwOFM9+1gTbSHjSZrgV/Pui7gwbKXj3i2M2sDADic2KJa1kT7uIDA6S9G+S6zBrSbh8pe0pgAAAA2VjaxJtrHbteo2MsJnn7ZdfUt5YGyn0ml9czaAAAOp6C6hTXRVnpeI3gOObjGXWcNZi8Pk/3MrGhi1gYAcDhba9pYE+1lr8leMJTyWN7VPEiEVwAAsCfb9hJe7dc21speMNjSWJ6beIgIrwAAQHjFYLeNtTIYDKrCQBIPEOEVAAAIrxh0kwiiAz/r+lMeHMIrAAAQXnG4tLIYDGjXdQMPDeEVAAAIrzhsbiCQHitRnlt5YAivAABAeMVhVjMZHNOuazoPDOEVAAAIrzjsZhBMj1phwHcLDwrhFQAACK/I2Veb1HX1pPGQEF4BAIDwiqFS99XKZnDYhgQ/4SEhvAIAAOEVQ63uq+8Wguqhz7qm8oAQXgEAgPCKIWcqQfV/zrp6f8SDQXgFAADCK4bq7quV1eBDu65xPBiEVwAAILxiqOrzElj/E1w93+SBILwCAADhFUN+9/XrBNd94fVdHgjCKwAAEF4x5F1OcHV7v2ANRB8PA+EVAAAIrxjy9lpe4fSzri/zIBBeAQCA8Iq2caFzg+vo2E9aA9DJQ0B4BQAAwivaxk7XyLUXOvWs6+M8AIRXAAAgvKLdtDKc47g//gzrl6/nxSe8AgAA4RVtZ73Jcs66qOUZwQtPeAUAAMIr2rVslpXlHEN0/InWL13CC094BQAAwiva1jKT6RxBhOcuXnDCKwAAEF7R5mqmc0Z49cbzghNeAQCA8Iq2bxm7zgkVBr7MC014BQAAwiuGTeWBL4d7R61XeJEJrwAAQHjFsPHlMA6u8edav2AbLzLhFQAACK8YNraZjBeeRwZ8Y3iBCa8AAEB4xXArm+UdHYblsaKPt3657bzAhFcAACC8Yti53WS98Np19f6MF5bwCgAAhFcMW38WbuWxVvOiEl4BAIDwimFbdeD9MLqo5bvE+qV6eVEJrwAAQHjFsLXXZL4wCa9TeUEJrwAA4Dy21hBenXVxy8p89r+oFX+i9cvs5AV1ninbG5i1AQAcTkF1C2uis9xlsp+9z7p6bueFdKbv5O1h1gYAcDgbK5tYE52mZj+bVxlYyQvpTGfG7WDWBgBwOHFb61gTnedK+wbXqJjzrV+gixfRmd69KI9ZGwDA4TyZWM6a6Dy7XQ96L7BrR60oXkDnetmjKdLY3s3MDQDgYG5/KYc10ZFaGdCmRwbyefGc6xnj4iW5tJ6ZGwDAoexs7JALJyexJjrTfBte1PJdzwvnbE8eHSdzEsqZvQEAHMq7+TVy2th41kTHXtyysqDNjgzM54XDG+ZukK6ePmZwAAAH8rdlBXJClI/10LE1Xz3P2mjXdf2p1g9dzwuHZ41fJytyKZkFAOA0Cqtb5aIpHBlwuA0mE9rkrOvdvGB4YNWB3j52XwEAnMTY1dvkI6PYdUUrE9ojvHre5cXCfj82YZ3EFtUykwMAOISyuna5anoqayCKyYShf2Rg7dnWD9vJi4UHeuvCTdLW1cuMDgDgAB54u5C1D/vtNNkwpHF77uOFwoM9fWy8LEzbyYwOABDmJJbUy/mTEln78MCLW/eF+nnXOF4oPJRfmJEqxTWtzOwAAGFKfVu3/Pi5bNY8PLhhwbrQDa6jYz9p/ZC9vEh4OP/0+mZp7uhhhgcACEMmx5TKSaPiWO/wYK1sGPPpUN11jeQFwqM1LpgVX8YMDwAQZmhDAu2syFqHh25Y4BkVqlUGMnmB8Fhqv67eUsNMDwAQJuTuapYrHlvPGodHMisEqwzEf44XBo9VLVydXFrPjA8AYHNK9rbJjfMyWdvw6I6KvTzEqgx4R/PC4EC8emaa5Fif1gEAwJ7sbOyQ217cxJqGx3pxa0yonXfN4EXBgfqVJ9Jl8+4WVgAAABsG1zteymEtw4GYETrB9d+ei60fqI8XBQfjNY+nSX4VARYAwC6U17fLLc9vZA3DgdrncvsuCZFdV99IXhAcinrQP2V7AysCAECIo2dcfzA/i7ULB9uwICJUjgwk8YLgUP3UlCR5O7ealQEAIETJKG+UbzyZwZqFQzn3mjz8wXXk2gtpTID+LKM1J6Fcunv7WCUAAEKI5TnVctmjKaxVOPSGBZodh7dElvd+Xgj0p8e5vfL3twrMmSoAABhemjp6ZGpsqXx0/DrWKPSXDwx3Y4IYXgQMhD9akG2+ogIAgOFhR1273LM0nzUJ/W3s8AXXMZ6PWj9AFy8CBsrPPpoiC9ZXsoIAAAQZ7YSo5QxZizAAdpkMOUxVBu7kBcBAq72y71qUJxUNHawmAAABpqWzRyJWFst5kxJZgzBwRnjuGq7wupQXAINZTuuVjF3Sx10uAICA4C2uleufzJATo3ysOxjoqgNLgx9c71x2gvWX1zL4GExPHh0nv1mcJ7m7mgmxAAB+QOfSXY0dMnJlkZw5Lp61BoNlrcmSQcXtuYmBx+HywslJ8mRiuext6WLlAQAYJM0dPbI0q8p0OmRtwWFoWHBTkEtk+R5j4HG41a+39FJBfVs3qxAAwDHS1tUryaX1cvtLOawlOIznXq0sGeSuWpsYeAwV73w1V5KsiVgvGgAAwKHRBjB5Vc3y4DtFpqY26wcOs7nB7qrVx6BjKHm82yf/XF4oaWWN0tnTyyoFAHAAeldgckypfHwCzQYwhAxaty237w8MOIaq509KlH+tKJTMiiZWKwBwPFtr2uTh2FK5fNp61ggMwXOvVqYM0pGBxQw4hrpXTl9vahWu397A6gUAjmPL7haZElMq33xqA2sChrKLg5Bc5TjrL6pisNEuXvZoivz7nSKJKaxlNQOAsCe9rFEmflAiX55Ndyy0hVUmWwa2yoDnGgYa7egnJyfJH5bmy8q8PdLTS5FYAAgv4rfVmYtYn5uWwpyP9jLKe22gjwxEMtBoZ7Xl4Y+fy5aX0ndRJxYAbI2WvHo7t1p+/UquXDQliTke7dptKyrQ4fUDBhnDQe0koy1n9eu1oj2trIIAYBsqGzpMo5avPJFO9QAMBz8IXHAdseZk6y9oY5AxnPzIKJ+cMzFBbl24SdYU7JWObspsAUDo0dvXZ0oB/vG1zeYY1Cmj45jDMVxsMxkzIER5vscAYzh70qg4uW5WmkxYs00Kq1tNkO3jeCwADBNas7q8vl3mJJTLt+ZuMIGV5gIYpn4/QEcGfNEMLjrpWMHPX9wkz6dWSkVDh7TSvQsAgoB+aN7T3Clvbtwtv1+SLxdEJzInoxPOvUYH6rxrHIOLTvTiqcnyj+UF8lZOteyoazctFgEA/IV+w7OrscOU9Bv93la55vE05l50mnH+D67Ry06y/uBWBhed7udnpJrC31qWRjvXEGQBYLCUWR+GU7Y3mMtXN8ylmQA6/NyrZk2/MjL2RgYW8b/qubNrH0+T8e9vE29xrTkj29VDkAWAI1Na2yZJpfUyzbtdbpyXKSdz8Qpxf6tYz03+PjIwjoFFPLSnjokzJWv6jxYUVLdwRhYADPrtjAZWrWYStarYBNazH0pg7kT8X8dR3xVxmCoWfG1OhikaPjNuhylt0075LQDHBdb8qhaZn1JhLl1pYP3oeOqxIh7Ftf4LrncuO8H6A5sYVMSBe/m09fKT5zfKA28XytKsKtnZ2MHKDhCG1Ld1y7v5NebC1W0vbjLHio53+5gHEY/dJld0/In+Ca8RsV9jQBGH7scmrJOvPpFudmImrS2RVdZC18LxAgBbohUCEkrq5VHvdvnLG1tMHdbzJ1HWCnFo5169X/fXkYEHGFBE/3pClE/OsxY6DbN/W1Ygs9eViW9rHWdlAUI4rKaXNcrTyRXy73eK5KZ5mabTlXbpY05D9NulrRH+Cq+LGVDEwKqdc7RNrdZ31DD7Uvous6tT29pFagAYBvRbET2zrsd93KuK5fonM8zO6mlj4zkOgBg4F/spvHq2Mpg4mFJSjMPg1IVRw+wZ4+LlU1OS5Jcv58q8pApJ3dFgun1pB55e+tYC+G1HVcvcVTd3SnZlk7y6YZf88bXN8rlpKabTnlYT0W9KmJsQg6GVOYfMiDXnMZA4GP/0+mb5+ARu1/oz0OoCqoupVjOIWFksb+dWmxI8TR095rgBdWYBjoxWAWjr6pVm6z2jlyfXFu6V6LUl8t1nsuTciQlyovUeY1fVf+ou9e0v5TAWODA1ew7tspbvNgYSB2NxTavpHPOD+VlmQWBMAqOW3/nGkxly16I8mfjBvktg2vmrpqXLfO3Z2UOZLnBuUNUPdXr0RjtZaTORx3zb5Q9L8+U7T2dyuSrAfmFGqvmAXdnQwXjgwNTsOcQjA48wkDgYN5Q3mgVEdwVHvbdVLpycxLgEMdDq4vz3twrMrtIrGbvM67G9tt2U8+mhpS2E4Vf/OteU17fLxsomeWPjblMFYMSKIlOqjvknuFVV9Js3/VZIKdnbxrjgAC9t+aYO9bJWLAOJgzGzoulDi4vepP/xc9mcHRvG5gl6GUzLdE2JKZVnkivMrojentbFpbG9mwQEtrlItaOu3cwx+k3D86mVptXqX9/cIl+fk2G+quY9Pzzq+C/JqvrQ67WN8IoDN3bwwTU6+njrD2hgENEf4VXRi0bTfTvkullpjFGIqOeS9diBfpWqoVarHGihdf2wkbOr2Vxi4W4YDAf6df+W3S2ybludvLe5RhZlVpn54/+skPrtpzPlgmi+9g8VL56abM7h7zpEExbCKw7CBpNBB4U75ioGEP0ZXvvZbC1I/1xeaOqcMlahWSlCv/r74sxU+enCjeb4gYaG17N3ywcFeyWptF5yrWC7u4lgC0MPqDof6Pn4mMJaeSunWp5MLJd/rSiUO17KkS/PTjfzBOfmQ9OTR8fJ75bkS7z1AeNwEF5xUD4Yd+UgL2t5fscAYiDCq6KlnmKLauVnL2yirJaNjh5okPjMI8mm9aVexvvt4jzTDlNLeekxhPVWCNGe7vq1bl0bRxGcjh5H0fJuBdUt5oiKfs2/YH2lPPRBidz7+mb5f89tNAH10kdSzE6qlqXivWYPb5i7wdTAPVpjFcIrDu7SlpVBB3nedTYDiIEKr/1UNXXKa9m7TRhi3OxdykubLFz2aIpcPTPNdA7Tr3b1w8k/lheYIwkL03bK6i015kKNfr2owUaPkoB9b/NrySndgdcPLLpz+nLGLnP+VDtQ/eLlHFOCSs9B6nnry6etNzf86Uhlby+akmR2x/Ws/LFAeMXBXdryzhrkzqs3ngHEQIfXfrS8k+7ecSs4fI8iaNMF3V3TgKth5itWwL1xXqb8cEG2CTp6lER35LT95vKcanM8obC6VfY0d5qgBMG7ua9f52s40cYYK/P2yHOplTLZ+gCiX+ff+WquuXyp7VH1Q8q1+4OpvnfPGr+OS5lhqu6KT1izzZyFHwiEVxzczquVQQe588plLQxaeO1fNPXrxYdjS6nB6FD1bOPpY+Pl7IcS5BNW0NWLINrpSEPS957Jklue32g6juk5u7+8scWUQtJQpR989JaznsnVr6f1OdKvq/XoghObN2jY151tLcRftKfVvB/1mI6eW56fUiGPeLabCzZ6+emepfny61dy5daFm+T78/ftlF45fb05HqKBVHfU9YMHO6bOVLv96YeWLOsZGkzdaMIrDvrS1oCJirmUgcNgh9d+NGzop3udMLVmKeOJh9vN1V0+PYuru0IasPR50eCr3ZJ0l1fPUurFM+1Lr2d0b3txk9y9KM+Etsh3i81OrxaufyqxXJ5NqZQX0naaurgahLVWqJ7j1eoLettdg7F+Na7F7vWCSkJJvdkdTrbUHUoNzWpGeaOpq3uw+r/r/1//Wb2gpP+u/hl6m16rO2i41I5PerRC/84VuXvkTetn0HOF2rL0xfSd5rzo3KRymRm3w9TwjVpVbC7UaZjXTkY/WpAt33xqgzm6oTvcGj71nLKOiV7CO2N/u1MdMx07zpvj4dSSY7rLrs+3diUbLIRXHLSaRQdWacB7BwOHwxVeDwyxWipHg4YuvCy06O/gq+pur+4qqhrq+tWb1P2ecgg1BPrLg//sA//uA3+m/p/zxP0/+wn725ny3kB/qd98aKUHDa3+OJNOeMUhnHu9Y4BHBnzRDBwOd3g9EO3WojtMXPhARPT/hzndndez5/6euwmvOHitLDrA864rGDQMpfB6YIgd9/42uWRqMp10EBGHoG4EaPUA7U6mVUACAeEVh+CKgR4bKGTQMBTDaz9aR1TLtehZxrM4F4uIeMzqcZTPz0iVSWtLTMORQEJ4xSFYNIASWetPtf6FHgYNQzm89lPf1m1amuolHNpFIiIeXv2gr40h5iSUy/ba9qDM0YRXHII9JpMeEyN9X2HA0C7h9UD0RviD7xTJdbNoeICI2O9nH00xpeW0ikbLUTpiEV4xtC5txX31WM+73sOAoR3Daz95Vc0yI26HqQfKkQJEdKJakUKbSWg5OC3NNlwQXnFoev54rOF1GoOFdg6v/TS0d8uagr3ywNuFpn86rwsihrtXPLZe/vT6ZlMjWNswDzeEVxySEb7HjjW8vsOAYTiE1360K4x2GdKzsboTQaktRAw3tTPa7HVl5pun5o6ekJl/Ca84RFcea43XAgYLwym8HkhVU6fpdDQrvky+xG4sItpYbeE7Yc02SSypNxVYQhHCKw7tzKu38OjB9b7Mj1j/cDcDhuEaXvvp6e0zX6lpm08tF3P5tPW8bogY8mpVlREriuT9LXtNxQD9ZimUIbziEO022fQoRwauYKDQCeH14Da01c2dsjynWkauLDI94Wm3iYihoM5FGli1WsArGbtMo5b27l7bzK+EVxyyD8ZdeZTwGvdTBgqdFl4P3pGtbe2S17J3m64zX5yZanrPE2YRMVhqE4FLH0mR3yzOk4VpO6WioUO6rbmpr89+cyrhFYeulU2P3FnLM4JBQieH14Pp6O6VVfk1Jsh+5Yl0OXdigilBw2uMiP7cXf34hHXyhRmpJrDqDqtWSwkHCK849HOvVjY9ymWtuQwUEl4PT3pZo4xZvVVumLvBFP4+c1w8rzciDthTRsfJJVOT5avWh+J/LC+QmMJas7sabhBeceha2fTI4dXzPoOEhNdjQ8+e6Vd6dy3Kk2seT5OLpiRxvAARD+v5kxLN7urPXthkKp7kV7WYM/fhDOEVh66VTY9yYauIQULC68Apr28XT1GtTI0tlZ88v9FUL/go3b0QHe3pY+PN2dXvPJ0po97bao4gFde0OmpuJLyiHyw6fHC9c9kJ1j/QxSAh4XVo6E1gPV6gHW4mflAit1hh9lNTknguEB3geZMS5fvzsyTy3WJZnFklSaX1UtfW7dj5kPCKfrDLZNRDEhVzKQOEhFf/o9UL1m2rk3lJFfLgO0Vy24ubzBEDnhNE+3vOxAT54YJs+efyQpkRt0PWFu6VnSHQlpXwimGlZtRDMtLzQwYICa+BZ09zp6zf3mDa1Wpd2V++nCufn5HKc4NoA/WS1a0LN5lLVs8kV0hCSb0pZdXXx9xGeMXAhVffDw4dXiN8f2aAkPAaXLQ7Tk1LlxRUt8jqLTUyJaZUfv7iJrluVpqcxZlZxGFVazzrBav/99xGGf3eVnkrp1pydzXL7qZOaevqZQIjvGKw1Ix6mDJZ0QwQEl6HFy2Vo2G2rK7d3ETWZgn/fqdIrn8yw9xUPt5NjVnEQB4B0A+O2s3qhbSdkmXNY9qCVTvwdXQTVgmvOHzh1TvpcJUGFjJASHgNPXSHRwOtfjW5sbJJlmRVyb9WFMo3rEBLRQPEwXna2Hi59vE0+fMbm03JO71kqVVDNKi2dPYw8RBeMbRceLgarzEMDhJeQx89W6fHDZo7esyuUJq16L6dW20qG+jXm3oZ7COjfKYT2AmW1J5Fp6nPvD77+h7Q94JWAPj205kSsbJYlmbtqwCgJauarPeQ7qj2cmCV8Iqh7trD7bxuYXCQ8GrvUKuLsJbl0UC7bFO1PJ1cYXZpv/tMlgm12hFMO/vogs4RBLS7+gzrs3yy9UyfYT3berRGv5HQds5PJJTJGxt3m6CqZ1R7evu4VEV4Rfu6+XDhtZnBQcJreFc50IV8wfpKmRxTKve/XWhuTV81PVUunJwkH5uwTk4aFcdOLYakGlL1EuMF0YnyuWkppjzV/1kh9aEPSmRuUrlpElLZQIkqwiuGqc2HqDSw9mwGBgmvzj1Tq5fDludUmw5hGmp/szjPHEHQM4GffTTFfO2qO7Y82xhI9cPT2Q8lmHJUX5yZKj+YnyW/fiVX7ltWYEKqfuWvl6ga2rt54xJe0WmOTfr4QQ0KvNcyMEh4hYNptEKCBtt382tkTkK5OTOodWlvnJcpX56dburTarjV3TAtK8Szj0cLp+dOTJDPPJJsdvz1Zv83n9pgGnfo8RYt8q/HXTSganMPILwi/rfWq5VVP7zz6v0JA4OEVzhW9LKY3szWYKsNF7Rne/9xBP0qV8OIXpC5emaa6e2uxxI+PmEdATeM1XOnevTkE9YHGQ2nWh/1W3M3mPbI976+Wca/v810mVuRu0eSS+tNvVS9cFjfxi4q4RXxmGq9/pgGBUh4hYDR1dMnVU2dkmMFFD1nG1NYK+/k7TFf++olsklrS0yHorsX5cmPn8uWr8/JMOcYdVdOA67eEud9FDqXovTIiH740A8iX3kiXW5+Ntt8na8XozSU6q78oswqU/Xig4K9putUdmWT+YBDMX/CK+8j9FOt13s/HF7d3vEMDBJeIdi0d/eam+CF1a2SUd5oLt3oEQU9f7vYCkNaf1Mv4+hZXD2yoLu6d76aKz9akG2+btbdPa2i0H/ZjPfekdUPBXrpSXfCr5y+3nxo0CCqR0G03qk2xNDd8ycTy+W51EoTSPVr/JXWB4+1hXsldUeDbNndIjsbO6iFCoRXDHZ4dR98bOBJBgYJr2CHsKulwPRWuS6KeVXNJvTq7q4GX/1KWkPvi+k7Td953RGc7tthwq/u9o57f5tErSo2l9I0rOnFNG3Hq7u/33k603Qy03OYGuz0LK8GYy2/pJeINPSdPnZfqTENgf4oNXZgqSctmq+lzHSHU//OT1oBU79+v+Kx9XLN42kmaN40L9MEdz2WobvW+nW87mC7rd9Jfzet9fuw9bvq7zx7XZnZ5dYPAK9u2GVam2oATSypN6XUdFdca51q84u9LV3SaoVR6p0C4RVDVrd31sFlspYxMOhPN1iBAiCU0FymtT71SIMGNb2MpkFYOyrtauwwX3HrGUxdbIv2tJodRj3Tq2czN+1sNl+D63OtwU/PbGoIjN9WJ97iWhOc9WiEfmXe75r9Hvi/6T+j/6z+O3Fb68zX6/pn6Y6mhnD9O7SLmgZLDeb6M+iu9NaaNvOz6c+ou576M+uFJv0ddAdUm1bo70b4BMIrhrGvHrzz6mNQ0J/qThgAADibguoW1kT0l7EH7bz68hgU9Kf69S0AADgb/TaBNRH9dGxg48HHBnYzMOhPtV4jAAA4G9/WOtZE9JdVB4fXbgYF/eldi/KYtQEAHI5emmRNRD/Z/d/gOjr5TAYE/e3l09abSzEAAOBc7ngphzUR/eeINWftr/Hqu4QBQX+rJYW08xIAADgTrYqhNYVZE9F/516tzLrvyEDcdQwIBqKHudaZBAAAZ6INR7QuMmsi+k8rs+4rkxX7XQYDA+ENczfQGhIAwKFoR7wTaPWMfu2yZWXWfeHVczsDgoE6OqCfvAEAwFlo9zbtUMdaiP4Nr1Zm3d+g4F4GBAPhcW6vaWEJAADOQlsVs+uK/g+vVmbd36BgJAOCgfKciQmmRSYAADgDba/8+RmprIEYiEYFD+4Pr57JDAgGUi2VAgAAziBiZbH55o31D/2vL7o/vM5hMDDQlQeeTalkRgcACHNiCmspj4UBPDbge6L/2MB8BgQD7dfnZMjWmjZmdgCAMEUb0/zshU2seRjIndf5/a1hlzAYGAz/sDRfOropnQUAEG709vXJ5JhSjgtgoF3SX23gLQYDg1V9QBsX6CQHAADhw8q8PXLepETWOgx0tYG3+sPragYEg+XHJ6yTd6xJDgAAwoP0skaqC2Cwwuvq/mMDCQwIBtNLpiZLQkk9Mz4AgM3Rslg3zstkbcNgmdDfYSuNwcBg+6XZ6ZJV0cTMDwBgUyoaOuTHz2WzpmEwO2yl9e+85jIgOBx+9Yl02VDeyAoAAGAzyuvbqSyAw2Fuf3gtZTBwuLz28TRJ3dHASgAAYBNKa9vk1oUEVxwWS/rDaxmDgcOpHvRP5AwsAEDIo2dcv/00Z1xx2CwjvGLI+LlpKfJufg0rAwBAiLJpZ7M57sWahaEQXusZDAwFL4hOlLlJ5awQAAAhxqr8Grly+nrWKhxu6/rDawODgaHiaWPj5V8rCmVPcyerBQDAMNPd2ycz4nbQgABDxQbCK4akx7t9ctO8TNlY2SQ04wIAGB521LXL3Yvy5COjfKxNSHhFPBY/NSVJXs7YJa2dPawiAABBoqunT2IKa001GNYiDNXw2spgYCj75zc2S2F1KysKAECA2dnYIZPWlsiJUey2Ykja1h9eGQwMeS+emizLNlVLfVs3qwsAgJ9p7+6Vddvq5OtzMlhzMLQlvKLdzsLeszRfcnY1s9IAAPiJbXvbJPLdYvno+HWsNUh4RQxUTdjJMaXm6y0AABgcLZ09Mj+lQr7xJLutSHhFDIo/XJBtLnTp5QIAADh2Vm+pMZUEWEvQruGVC1toW08eHWeOEsQW1bIaAQAchayKJlNL+9yJCawhaOsLW5TKQtt70ZQk+efyQtlQ3sjqBABwENtr22X8+9vkisfokoXUeUUMKT/zSLI88HYhpbUAACyqmjplSkypae2ql15ZJ5DwihiCHufe1+Dg/97cQogFAEey2wqtD31QIp99NEVOGhXH2oCEV0S7lNb6RHSi3Pv6ZnPOCwAg3CnZX/bqMiu00tYVw9C6/vBaxmBguO/Eav3C3y3Zd7FLi3H3UaAAAMKEDmtOy9x/EesC6wM7xwMwjC0jvKLj1J2IWxdukqVZVVJe3y49vaRYALAf+gF8b0uXKXmlFVfOGBfPHI+OCq+lDAY60aump8qs+DLJrmySpo4eVkMACHn0m6OC6hZZmLZTvv10JnM5Os3S/vCay2Cgkz1ldJz89c0tsqZgrzkvBgAQalQ2dMi6bXUy6r2tct6kROZudKq5+8JrhCeNwUDc51efSJfpvh3mglczu7EAMIx09vRKflWLPJ9aaToKnhjFWVZ0uJpZ9++8JjAgiB9Wb+rqObIF6yuluIZyWwAQPHY2dsgbG3ebcn/XPJ7GnIz4XxP277x6VzMYiIf3+icz5L5lBfJKxi7ZZS0qAAD+Rs/dv51bLQ++UyQ/mJ9FbVbEQ+68Wpl1f3h9iwFBPLqnjomTG+dlmhqKGmSrmztZcQFg0LR09siK3D0yYc02+fFz2XL2QwnMtYhHDq9v7T824FvKgCAOzDPHxcvX5mSIe1WxKbullykAAI5GY3u3vJO3RyatLTEfhs+dSGBFHIBL+sPrfAYDcfB+bMI6U3brb8sKZNmmaioWAMCH0ONGWo9VP+x+aXa6CawncPkKcRBamXVfePXMYTAQ/eNZ49fJhZOT5EcLss1lry27W8yNYQBwFqW1bfJ69m751Su58plHkuXj1odcAiviUI8N+J7oD6+TGRBE/3vy6DgTZvW2sF7CiNtaZy5ldPf20Z4WIEzQ97J26mvt7DEtWvU4gF7y1POrek6euRDRrzuv0f3HBkYyGIiB9Tj3vta0l0xNNhczHo8vk5xdzeb8W1tXr/SSZgFsE1a1y5V+EN1a02Y6Xf3i5Ry54rH1pkKAvteZ8xADpNv7YH+1gXsZEMTgq2H2K0+ky++X5Mu8pArZtLNZalq6OGYAEGLotyW1rV1StKfVVBrR8+03zN0gp42NZy5DDG61gXv7O2zdzoAgDr+6a6O9yvVrxyVZVZJcWi9lde1mZxYAgkdXT59pFLChvFHeyqk2XfdueX6jnDGOsIo4vOHVyqz7wmvsdxkQxNDzeLfPlOMaubJIFmVWmb7muju7h/qyAH6lob1bNu9ukSTrA+ObG3fLuPe3yXesD5LsrCKGWni1Muu+M69x1zEg6G9/szhPLn0khbHwo9rXXM/M3v5SjkyJKZWVeXtk/fYGKahuMefvAODodHT3yra9bZJR3ihrCvbKrPgyc3RHy93pJUvmGv+pl9ZuXbiJsUA/amVWg9t3CYOB/lbPhulO4ffnZzEeAdyZ/dSUJHNu9u5FeTI1ttS0l8yubJLy+nZzqQSAr/87JK+q2dRZ1aB67+ub5VtzN5gP11QDCJxaz1brXuvRJ8YD/Xdhy8qshhFrzmJA0N/q19uKdp561LtdPjp+HeMSBPVM3hdmpJqzs3e8lGOKor+YvlNStjeYdrZa0gcgXKlv65asiiZzZlxbrmqN1e8+kyXXzUqj9WoQHbGiSPKrWv6zBjAm6Dc1s/6HSG83g4L+VOsdHohva53c9iJfHw2Hp4yOk88+mmJuR//k+Y1yz9J8mRxTagqoa7kuLoSB3dDb//rtjrZZfcy3Xf78xmb52QubzIe2K6evN+2bee8H3288mWF2WzsO+NZHy4kxNugnu10fItK7m0HBQIZXRXf+tCainttkjIZf7fhzmRVqtaC67tL+35tbzEUV3alNL2s0ZbsAhhOtg7yxskmWZlWZKhx/f6tA7nw113wQ07qqtFkNDbUZyzTvdtlR1/4/r6GeL2aM0E9WHRRefXkMCgY6vPajF4xGv7eVyxEhqAYB3bXSFrefm5YiP5ifJX+1Qu14K9Q+kVBmbmLrmdq6tm6SFfiF5o4ec9NfLyA+lVguEz8okX8sLzDfEnx+RqpcNCXJHDvSusi8R0NP/SZHL452H+ZIEuEV/Xfe1bvxw+E1wutjYDBY4bX/xm9sUa38dOFGOtKEuP3dwfT4gZ6p1bODn3442Vx6+d2SfUcQnkutlOU51RK/rc4EES09RNMw6A+n+tVxYkm9+Zpfd/Z1l06/6tfzqLr7f87EBPOhSZ8xfdb0MiLvvdA/IqBni1s6j1zphPCKfjT24GMDyxgUDGZ4PTDEascaPUrA13/2DLb6umng0CYLGj5OHxtvwq0ubr9+Jdfssj+bUinvb9lrztjqBQ7dudVFT8/b6jOgt8L1MhmBN3TR10ZfI32t9DXTahat1muol6SqmjrNhxaP9YH0pfRd8tAHJab8lJ5B1fPW/cH05P3hVMu+8aHVnhVO9IOGXsJtPMYPqIRX9F+NV8+ig3den2RgcDjC64HnYbV26fmTEgmxYawGFz1re7H1YUW/EtYmDD9+LtscTdAzjbqD+87++rV6IWe3FYr2tnSZsKu7uVrPVnfyNDRpgOom8A4aDaLailg/QOgHCR1bHWMda22Fqu9J3THVLlNaZkpD6SOe7XL/24Wmdqd+ONHKFp95JNmcPeUYUPifkdfjHMU1rQN6zgiv6MdjA7M+HF7d3vEMDA5neO2nsLrVdJTSc26Mo7PV7kZax/bqmWnyzac2yA8XZJsGDb9dnGcul+mO7uPxZfJC2k7TwtNbXGsKz+sOYGltm6kvqTU+NYRpGNMdQt0t0vDbv+uru4ca4Pp3fntDOAn373x27w+dGt71d9Agr7+T/m794VO7sOnvrvV+dSz0faUhVI91rMjdIy9n7JI5CeWmnJQGEt0l1Ut7+kFCL0NpaSn9gEE7VDxvUqI5HqQfKAcD4RX9t/PqdR+08+r7MwODoRBe+9E6sf9cXkhlAhywB1440wYOeunsjv2h94+vbZa/LSuQB94ulIiVxSYAa4DTc7v6VaiGYb00pMcc9DiLlhPTxg/vba6RDwr2moCszTe0jagu5mlljSYUam1RvcimbtyvPsNq/3/PPkD9d/TfTd3RYP4s/TP1z15buNfscmrA1Mtxr27YJc+nVsq8pApTYF/LQj0cW2q+lh+zeqtEvlss/1pRaG7h/+n1zSZk/PLlXBP0vz4nw5SN6r/wxDcaOBD1WzBtfqJHQYYC4RX9GF7vPfjYwE8YGAyl8NqPLu66OGsQYVwxVM756pnN/jO+ukOsgVnLBWlI/NiEferFNrX/v+v/T/8Z/Wf1XPCBZ0A5/4mhon7w0534Vfk1fpnDCa/ov/Dq+/GHw2uU91oGBkMxvPaju1TateWax9MYX0REP6tnl7V17pqCvX6duwmv6Dc1q35453Xt2QwMhnJ47Udvq2vNUS2szzgjIg5NvXSnR7S0lFkgILyi3xyb9HHX/xDpbWZwMNTDaz9643V+SoUpxcN4IyIOzC/NTjfnp/VcdiAvKhJe0U82uw5JpHcLg4N2Ca/9aDtCPZv1q1dyuZCCiHgU9QLja9m7TQWKYEB4RT+5+TDh1RPD4KDdwms/Wgs0vazR3MLWW7K8BoiI+zx1TJwpiaal0nY1dgR1bia8on+0Muphdl4XMjho1/Daj9a/LKhuMaWFdIeB1wIRneqXZ6eb8mpa//hobVwJrxjiLjxMePVFMzho9/B6YPcg7RikLUm1/qXepKUcESKGszrHaVMBbcu8JKvKNK3QphbDCeEV/WKEd9KhwyuNCjCMwuvBQVY7Dj2RUGY6NWmbQ87HImK4BFbthHbt42mmEouGxeEOrIRX9H94tTLqIRnp+SEDhOEYXg9Vbku7K31+RqopIs+OLCLaTW160V+bNVBlrgivGDJG+X5w6PAaFXMpA4ROCK/9aD97vcCgFxm0jea5ExN47RAxZNVObZ99NMW0bV2Zt2fYzrESXjH44dXKqIfkzmUnWP9AF4OETgmvB7KzscMsBvctKzBFu3VXg9cREYdbPRKg7bE1sOo5Vq1xbScIr+gHu0xGPSyR3iIGCZ0YXg9ugLAos0oi3y2Wr8/JMIsHrykiBsuTRsXJ1TPT5O9vFcgLaTslu9K+8ynhFf1gkeuIRHreZ5DQ6eH1QLbXtsvSrCpTP/aW5zeay168vojob08eHSffeTrTfGjWwJpX1RwWcyjhFYeulU2PHF59cxkkJLwempqWLlN6a0pMqfxhab5c8dh6XmtEHLQXTUmSO1/NlXHvb5O3cqqlvL497OZNwisOXSubHhG3ZwSDhITXo9Pa2WO+ytMdkt8vyZdrHk8zX/Xx2iPikdQPvb94OceU7lu/vUHq27rDeq4kvOKQ1Wx65J3XuJ8yUEh4HRi6+BTtaTXlaqZ5t5vOXudQuQARLc8cFy/XP5lharDGFtXKlt0tpu60UyC84tC1sumRw6v3CgYJCa+Dp7evT6qaOqWwulViCmtl4gclZuH6yCiaIiA6Ra1YMnJlkalgkl/VIpUNHaZ1tRMhvOKQfTDuyiOH1/syP2L9g90MFhJe/YMuWHtbumRjZZOsyN1jdl++NocwixhOap3of60olDc27pb0skapbu6Utq5eJkDCKw7dbpNNj0qkr4DBQsJr4BojNHX0mC5f/VUMbn4221QxODHKJ8e7CbWIoai+N/U9qqXzvjV3g0StKpYX03eac6t1bd2O3VklvGJgz7t6C13HRKT3HQYMCa/Bo69PzNeKettYd2a1GPkXZ+5rlKDlc3ieEIOvXsDU86ra0er2l3JMCauX0nfJ1po26entM+9bILxiwF15rOF1GoOFhNfhRb9yzChvNDeS71maby6B6VeT501KlFMItIh+VY/xnP1QggmqN83LlLusD5BTY0slbmtd2FcDILxiSBvhe+zYwqvb9wcGDAmvoUdDe7es21YnM+J2mN3ZG+ZuMDu0n344WU4fSxcwxGNRP/x9cnKSfH5GqrlMqbuqerHyvc01srupk4mG8IohpeePxxhe477KYCHh1R6VDbRxQsr2BpmfUiH3v10o35+fJV+anS6XT9u3S3ucm2cRnWv/buq1j6fJt5/OlL+8scV8m+EtrpVdjR2cUyW8YsifebUy6TERsf5U61/oYdCQ8GrP6gba0nZDeaMp0zMrvkz++uYW+eGCbLPT9LEJ6wi0GJbqRarPTUuR7z6TZRqHPOLZLss2VUvqjgZzTrWls4cJgvCK9rLHZNJjJtJbxKAh4TV80NvQWRX7ynUtTNtpjh5ErCyWX76ca0p3XRCdyHOLttlNvW5WmvzshU3ywNuF8qh3uzyXWilvbtxtgipf/RNeMVzOu3qLXQMi0ruCgUPCa/jT2N4tBdUt5mLKa9m75fH4Mhm7eps5gqAtLDXY6vEDnmkMplppQ7/q14D697cKZNR7W2W6b4e8krHLdKnKq2qW2tYu3sCEVwxvVwwwvPqiGTQkvDqX7t5952m17a3uZq3Kr5G5SeUm2GqY+M3iPPnxc9nmwpgeReCZx4GoFwz1XLZW0bjz1Vz5vze3mLqps9eVyfKcakkurTdtVHUXtaObc6mEV3SmVhYdEG7vHQwaEl7hUKFWzw7qMQS98KJnCbV7mLbCfSFtpzwcW2rO2N724ib53jNZ8pUn0uWyR1PkrPEEXKd4mhVML5mabL7a17JTty7cJH98bbO50a8XC1dvqTFnsvWDkdY31g50zR09XJ4ivCIedFnLyqIDIirmUgYOCa8wUPo7iGkg0RaZO62AW17fLoXVrWY3TXfVnkmukHHvb5N7X98sP1qQbUKOBlwtX6TnGaljG3pqswzdYf9EdKK5vX/1zDTz4eS3i/PEvapY5iSUm9aoWspt8+4W2VHXbl573TnVZ0GPpxBOCa+IA1Kz6ICJ9DYweEh4BX+jJb40yLR29phQo2cXNeBUWUFHQ4/uyGmDhve37JXFmVXmq+Qxq7ear5Z1R1fr235hRqpcNCXJBCr9ClrDlbbu5L13ZE+wxkg7R+nuqO6Gaxi9avq+eqe3PL/RfKDQMKrnS1/dsMvUPtX2p1v2B1LdbdfjJPqaad1h3YXXr/W14xQA4RX9aINrUER44xk8JLzCcKItODXsajjSXV0NvRqWNPhq4NWvnXVxzK9qMdUU9HxuQkm9OcaglRW0neeTieXmOINe+tHzulpGSQvT666v1v7US2l6dld3FLXhgwa6cyYmmEtDWn5Jg5566pi4D6k7xP7w4D9X1b/v9P0BU3ejz5+UKJ+ywvqlj6SYkmd6HOPGeZly87PZJtDrDujflhWYFqbRa0tM4NeqEtpyeG3hXonfVmdCqL4v9bJTcU2r2RHf09xpAmi7NaY6tjrGejREx5z2p0B4xWGsNBA/uPAa6Z3NAOJg1TNtAHbaCW7ZvxOsgU6DXYm16GolhtxdzSYYp5U1moYQiVY41oCsFRq02L2nqNaEZQ2JHxT8V905Vtcc8L/pP6P/rKr/ns/6MxL2/3l6rELDtwbMHOvv1N1OXfj1Z9Gv37VNqZ4NZacT7ISei2dNxEGcd501yJ1Xz+8YQBysuhADAICz0Q+ArIk48J1XK4MOCnfMVQwgDtZ38vYwawMAOJxNO5tZE3HgPhh35eDCa3T08VzawsE6M24HszYAgMPR4zWsiTjgy1qaQQdNpDeWQcTBqEXsAQDA2TyVWM6aiAM11jUkIj2PMIg4GPXmtl4uAQAA53LHSzmsiTjAy1q+qUMLrxG+2xhIHGz7R72dDQAAzkSrZGjpOdZEHNhlLSt7DokRa85jIHEwaiH0JxLKmL0BAByKtgKmYx4OWM2eQybSs5XBxMGonZC06DkAADgPbZxxvJvOdzgQrczpFyK9ixlMHIzaoYiSWQAAzmPz7hbTFY61EAfoYv+E1wjfvxhMHKzaipM2kwAAzmLCmm1yYhS7rjhg/+2f8Or2fp3BxMGqPdlX5dcwkwMAOITS2ja5cvp61kAcTFvYr/snvN657ATrD2xiUHGw/uLlHNOPHQAAwhv9pu3Bd4rkODdrHw7YJld0/IkuvxHpXcug4mA9c1y8PJdayawOABDmJJXWy6cfTmbtw8G41uVXIr3jGFQcip+fkWq+SgIAgPCkob1bbn42mzUPB3tkYLx/w+vI2BsZWPTH5a3WTrpuAQCEG3pc4OHYUjmBS1o46PDqucm/4TV62UnWH9zG4OJQPHl0nMyKp3EBAEC4sTJvj5w3iW5aOGjbTNb0O5HeOAYXh+o5ExOo/QoAEEZs2tkslz2awhqHQzHOFRAifdEMLvrDS6YmS3JpPTM+AIDN0bsMX56dztqGQ+2sNTlA4dX7fQYX/eVnHkmWnF3NzPwAADZld1OnfPeZLNY09IffD0x4HbHmZM69oj+9emaa+boJAADsRXVzp/y/5zaylqGfzrvGn+IKGJHeDxhk9KdfeSKdHVgAABtR1dQpP39xE2sYhmh914OJ8LoZZPS3l09bL5kVTawIAAAhTkVDh3zvmSw6aKEf9UUFNrxGea9lkDEQXhCdKGsL90pPbx+rAwBACJJX1SzXPJ7GmoX+VbNlYJHjrL+oisHGQHjGuHh5NqWSRgYAACFEd2+frMqvkYun0vYV/W6VyZYBJ9K7mMHGQKlfRUWsLJadjR2sGAAAw4y2fH0ioUzOHBfPGoWBcLErKLh9f2CwMdBqf+yU7Q2sHAAAw0Rhdavc+/pm1iQMYEtYK1MGhZFrL7T+wj4GHQOtfkWlxwg6untZRQAAgshbOdWmGgxrEQbU0bGfdAWNSG8ug47B8s9vbKYeLABAENAjW2NWb5XTx3JMAANuriuoRPgeY9Ax2A0NnkutlK4eqhEAAASC5TnV8u2nM1lzMDhqlgwqbs9NDDwGW90J+M3iPCmobmGVAQDwEzUtXeJeVSznTkxgrcEgnne1smRQuXPZCdZfXMvg43B4xWPrZUpMqSnfAgAAg2dh2k65blYaTQcw2NaaLBl0In1LGXwcLk8aFSffmrtBlm2qZvUBABggCSX1cuvCTaa+NmsKDkNXraWuYSHCcxeDj8Ot1h7UHtvrtzdIHxuxAABHRMtf/d+bWzgigMN83tXKkMPCGM9HrR+gixcBQ8Gzxq+Tvy0rMO0LudQFAPBftO12RUOHTFpbIp+cnMQRARxuu0yGHDYiPTG8CBhKftQKsWNXbzMhlvqwAOD00FpW1y6z15XR2hVDyVjXsBLpfYAXAUO1MoGG2NxdzdLS2cMqBgCOQb992lrTJnMSyuXCyUmsCRhqPjC84XVft61eXggMVT82YZ088HahbChvND26AQDClfbuXvOt0+SYUvn0w+y0Ykjaa7LjsBPpS+bFQDuE2HuW5ssHBXtlb0sXqxwAhA367VLK9gYZsaJILuF4AIZ2lYFkV0jg9kTwYqBdPG1svNzxUo7MS6qQ8vp2Vj0AsC31bd2yOLPKfDC/IDqROR7t0JggIkTCq+8S6wfq40VBu/mdpzNlamypJJbUswoCgG3Qs/x6nvVnL2wyNa+Zz9Em9pnMGDJEejN4UdCuXvpIiql7+Fr2bo4UAEBIoudZV+XXyOj3tsrVM9OYu9GOZrhCikjfGF4UtLsfn7BOrn8yQ6b7dsimnc2slgAw7GhTgfkpFfL9+Vly/iSOBqCtz7uOCa3wOir2cl4UDBdPHh1naiLe/Gy2vJKxS/Y0d7KCAkDQ0AtYusv6q1dyzTdDWvqPuRltr2bFkCPSk8mLg+Gm9v3WkjO6iLy3ucZ8dQcA4G+0vbW2uf7rm1vks4+mmAopzMEYPhe1vBtdIUmkL4oXCMO9UsGV09fLn17fLO9v2WuCrHawAQAYKL1WWtVmAlriauTKIrn28TSzw3q828d8i+FnhGdUiIbXmE/TsACdoi4wX5qdLv9YXiDv5tdIbWsX7WgB4Ih09vRKY3u3rNtWJ5HvFsuN8zLlxCjCKjqgMYFmxJAl0reOFwmd6OdnpJrdk9ezd5u2jM0dtKQFAJG2rl6paOgwZ1gnrNkm33xqA3MmOu2i1jpXSOP23MeLhE5Xi4X/5Y0tsjBtp6TuaJCdjR3mPBsAOAO95Jld2WQaCOiH2s9NS2FuRCc3JrgvtMNrxNqzrR+0kxcLcZ8nRPnke89kyaPe7ZJQUm/K3ujXhgAQXrur2/a2SVpZo8xNKpfbX8oxlz2ZAxGtTKjZMOSJ9LzLi4X4v546Js6ck9VWjlq3US9qVDZ0SDeXvgBsx+6mTsmsaDLl9O5bViDfeDLD1IpmrkM8UCsT2oJI7928WIhH91NTkuSHC7JN9YJ5SfvCbAO7sgAhSWtnj2ysbJIX03fKP5cXyi3Pb5TLp61nLkM8snfbI7xGrD/V+mEbeMEQB6bWdtQFUes8Ph5fJp6iWqlvI8wCDAdaCk/rrj6TXGGqitz24ib54sxUSlkhHrsNJhPaBrfnWV40xKF50ZQk+c7TmebyV/TaEnlj427ZXttOqgAIAFVNnaYiwDTvdrOzqh32LrM+UFLKCnHQLnDZigjf9bxozlYD1ycnJzEWfvI4t1fOfijBlOTSHSAtufNsSqV4i2uljt1ZgAEfAdBd1RfSdsrkmFK5a1GeXPN4mpw/KdFcsmTO8d85/98uzmMsHNuYwMqCtiPSm8+L51zzq1oko7zR7BwyHv5Xd4O0G48uttr1S9vXPubbLivz9phx57gBwD60EkDOrmbT3nlOQrn8fkm+CaqfiE6UM8fFy0dGEVYDVfta56Mdde2MhzPNd9kS2sU6Wr3YoGi9w0c82ykbEwRPHh1nFmO98fyZR5Ll1oWb5KEPSsxXobnW4q1fi9LOFsKZmpYuU45Ov5GY7tshv3w5V654bL2cMzFBzhq/Tk6x3iPMFYEvD6jVFzS0KoRXxzYmiLJneI2KOd/6Bbp4AZ2plpDpRwOT/netd8ouR/AXEg21p42Nl/MmJcrX5mSYIx1aqiu5tN40UGjq6DGXU7TPei/dFCBE0UdTn1F9VrWDXXXzf0tVPfB2odwwd4NcODnJfFDWZ56zqsGfa66anirvb9lrXqd+tP4t4+M4u10Pei9w2ZZI70peRMJrPx3WoqM3dy99JMWc4WScQuMcrXb/0YVfQ60WWNcqByXWglPb2mVCgoYFrUVLroVgoM+azhUtnT3mPHdZXbskltSbjnX/WlFoPgTrURk9MsPN/9BQd7bHv7/tkMeVCK+OdKXL1kR4budFJLwejJ6H1dqmGpwYq9BUv2K9blaa3L0oT9yris15Wq1vGb+tTor+f3tnAl5lda7tz3k4WjvYwTr2d6rWOtSh9dSqbbWtY+v/O7S29nQ4bT1WNHvvACpqUBxABhHQoogjTsigiEiyv50ACYSQEEIIMwRCgJAEQsgcMqx/vS9g8QgyZfiG+76u+9JaJbD3+tZ69trveldFve7YSrCQkEGohf1Bduekr7GUs0jAkT7HY+aWaZu4Xh8tN398e6E2/pdvDHgmvanU3Ut7v2l2XtgdhNcwHtSy2c/XpGQcav8g63gzCa+7Ytz8cnPtyHz9io/XzD9KTe0PhuSY214vNA9+vEIPwbySs95MKKzQHTL5cCJ1bhvrtmq4hfCGU9mJW7O50SzaUGeyV1ebD4sqzRt5ZbrD/+jUlXrbnOz6fzOFgOq3b22kBEk6nuwJwmvoXK/Zz/fEEv14Mwmvu6O5tc0MnbHGXDZ0Dq9bAJSvcaU/reyY3fpaoblv4lIzIH211iVKuE1dskl3aXLXbNEd3PVbmrRtEfgLKSWRmtPllQ0mf22NfmiRcpOJCyp093TwtBLdsZc2ST8ZkacHCPmQGgzlogY5CCqH4/YGwmvIlMwXCGKJU+0fqI03lfD6RaytbtKdGJkYef2CqxzYk5KEU/pl6c7Nr16aZ/7rnYUm+uEyPR0uO7gSgKYu2aghV3pxSjiSnbtSO0a2NLZoTSR0LHJQT+qb5cOEnNaXbiGyUzrdhtI0G0plx/T13PVmUEaJ6fnRcq2Pln7DP3ouV2+G+3KfaebwnoTTICvPrFzesKCsdp/GFuE1VLZp5gsM0fjHvKmE171BFs3ek5frRMnrGE6lnZHUQ8slF3K4T/pFSpmCHNT59SvztU+nnC6XixokTMlBnrfzN2hLsB27utLXUwKvLJxy4EdCmZQxSPhtDGApg3yDIV0j5M+4oaZZv6qXQ3eLy+u0TZo8j5nFm/UkuNzUJs35pdxDPjDK7vhdbxVpW6lrRubrh4pz7WsuoVR20eUwjnSrYGyGU/lgIldWf1FdK+EVt2mzXqCIujfyphJe9wXZ9ZEQy2EN3JtSBTk4crwNWafaDz1yEv28Z2abCwfnaBCT3cErhudp+JVwJgdMJKhJveXfxi42PSYs1bH2WGqxljgMmV5iRmSVmpey1+pu4zs2GEt9tuw+Tlm8Ub8el4Nr8lW5tBuTsSoXQ8iYl11iUT6ESYAW5+30z+TfkXA9u2SLHlCSX0NCgfyan9hfW37G+MJyDZhSGyrBXDp0SNCU31u/tGKtM77fBk7ppSmHmqQ84/pR87R+XP6M8jX95cNyzaX2z36RfQ2kIb+0MJIPAnJCX1pJ0UYK9+ZDpOywJ5ZXHVDtOuE1TAe1EjcFK7ympBxs/2CreHMJr/vaMkcWeqmvojMBdtVBlEN36o0rJQ5yQE2CsQQ/uZVJdiNPfjxLg7LUcsoO5enWM5+a9anSGF9CtCh/v+OfyV+lNZn8N/Lfyq8h3zLIryk9SuVnyM+Snyk/W0L5jp6ltJfDrlDG2t3jFusHKyklOVAIr6FxlWa9wBFN9ObNJbzu76nlufbXk10n+SqZ1xcRsWM9qne6lpBM76DQSngN20Ett5cTSGIZx9s/YANvMuH1QEKs1PA96a7Sr4V5nRERD0zZEJBDeFLK0rC14+vBCa+hsEEzXmCJua/xJhNeO6KcQNr0yGEdOcxzCPV7iIj7VCd+0mPbQuuqTY164K+zILyGYtf1NSfQROMX8UYTXjvyrnPZKZDDND8enqcHUbguEhFx10oNtbQjlMsF5Hazti64Ho/wGoouAxc5gSeamMYbTXjtjD6VOSVbzH+/t0gPv0j9Fu8DIoZd6b8rBwGlzZx0tJDyq66E8Bp4pzuhIBK/nTeb8NqZLKusN8/NWKPXTtKlABHDqHSrkF3WvqnF2qatuyC8Br09ls10oUDuvI26JbzphNfORkoK3p9frn08pc8lrYYQMehKCzbp/zs6Z51eWNHdEF4DbYlmutAQi/fgTSe8diULN9SZpxOrzP97rZB2W4gYKOUWrF++OM888slKvTjDSxBeg2wiyQkV92QcY//gm3njCa/dcYd76pJN5qGPV+hNS8c9NI33CxF9p1wmIDeqyTdL8g1TR/ZmJbziXrhZs1zoiMYH8uYTXrsTuQde7nqXxtxX2UXgsJ50KkBEb3vZ0Dl6MPWtuWWmtLrJ8/Ms4TWwHQYGOqEkkjjRvgDNDADCa3cj3WJWVzVqkL1n/BJz/sDZ1MciomeUa4bveqvIvJO/QQ+kNrW0+WZ+JbwG0manV9q3ndDCpQWEV48hh7yWVzaY9OVVJnnSMr2znvcTEbtaaW8lO6yTF1XqzYLSl9WPEF4D6Sgn1MTcc+2L0M5AILx6kcaWNrPSTrxSI9svrdhcPCSH9xYRO035sCy3Xk1cUGEWbagzNR6tYyW8hto261lO6Im5kxgMhFevI429pUY2sbzKDEhfrQ2/v8RhL0Q8AKXOXg5dpUxdaSYVVZqymmb90BwkCK+BcxzBVUhyL2cwEF79RGtbuy4wS8rrzbDMNeb3Y4q0j6zcZMP1tIi4K6WOXsLqqf2yzP99tdA85a4yc+08KaVKLW3tgZ0vCa8BM+ZeSnD9tPOAm86gILz6GTlAIbuy909caq4YnqdX1Mo94hz8Qgyvck31t1JmaIeAP7+70IwvLNfa1fb28MyNhNcAGXETBNbPlg5cy8AgvAaJyrqtZmxBufnTOwvNhYNzzMmPZ1FmgBhw5QOrXIJy7oBsvRBl1Ox12skkzBBegxReE78gsH5+9zWbwUF4DSJSLysdDN7IK9PdlwsGzTbfeWKm+erD0xkriD5WPpCe0i/LfO+ZbHP7GwvMiKxSU7i+1tQ3tzLxEV6DZjZBdZe7r4nrGByE1zCwuaHF5K+t0Z3Z2KRl5qcvzNVTxl/pw84sopeVG/mkZvXyYbnm72MXm9fmrDezS7aY8tpmJjbCa8BrXW1Gg93uvuYwSAivYUMOf8kC+N68DWZQRon53ZsLzKXPzjHHP8LOLGJ3h1X5pkQOWD0RX2Xezt9gpq/cbDbVb2XiIryGyRwC6heG1/TrGSSEVzBaZiDNyV/KXmsenbrS3PHGAq2dlQMgjC/EjveQ5IR2DfnNK/PNA5NXmH/NXGsmFFaYorI67TAChNfQmhy/gYC6593XOQwWwit8Fqmhk0X0o4WV5unEKr155+bRBeYiG2iPfiCDMYe4j0FVDlXdMKpAD1X2TS024+aXazmPlPUA4RU/dQ7BdG+QhM9gIbzCFyK9IaXOTnrNyteYL2avNfdOWGJ+8WK+fs0pV0syDhFdrSWXA1VXPT/X/NV+6Ht2+hq9NU8+DMqlALVNHK4ivCK7rh2z+5rLoCG8wr4HWlmM5UrbBWW1ZuqSjWbI9BLzl3cXmUuenWNO6JtpjuxF2QEGU7kkRD60fX/gbPPbNxfoJQAfFlWa+etrNUCtrW4KxHWrhFfsQnMdxxxEKKX2lfAKXUpbe7su2BJqpd+khNr40k3a0uee8UvMT0bk6YLPzWDoJ6XNnHwgk9ZzcshRrladt7ZGP7it29KkFwG0UKdKeEV2Xbth9zWTwUN4hc4LtdLlQBb59XaxL1hXazJWVGndn9TU/uGtIr0VSG4HOjQ5wU1h2KXKeJOAKjXdt75WaFKmrtST/vLBS65UXbO5UWtTpRackEp4xU4xkyC6X31f41cweAiv0D3BVi5WkCtvpa5W3kv5+vWVnPW6yyVX4F4/ap4575lttbVyYOyIXul6b7schJFdXMIu7qyMCRkbMkZkrMiYkVrUs/vPMj//V775x/uL9UOT3EglV6jOXFWtX/PLGJSxyGl/wit2dV9Xm8FgP4m4kxlEhFfwJrLjJbu2c9ZsMe/O22AG2mDbZ8oK88/xS8ydY4o0lMhBGbku82uPTNfbiKTVFzu5wdsllWAq9dTHPpihO6ayY3/mU7O0LEVunrp73GLz4McrzID01eb13PUmq3izlrFIOAXCK3pMyV5wQLWvF9gXso3BRHgFfyLhRHbQZDxMXFBhhmeWmt6Tl5u/jV2sAVd6akrIlRIF6bF52hNZn4ZdCUKyS0fQ7b4DUMfsFEblZikJpBcPydFb4W4aXaAHo+QEf/TDZXo4UC7amLWq2qza1GjquCIVCK9+tN1JSruQAHrA5QPuOwwmwisEm/Z2o7cWyUIn4UeCrnyFLF8l9/xouQYkueXoVy/N0+D0n8Ny9RYyqYk8f+DszwTf47fv8spOoOwIhvmr+iO274bKhwHpNiEB9KynZ+mJfHntJIj+6LlcbSMlbdakd7D0PZUwKjdKjZy1VuugpR3b4vI6U1HbTI0pEF6D7bsEz46gZ9qZ9sVsYUARXgF2BF3Z0ZUuChvrturpcglWcsVu2tJNWjMpd87LLm//xGo97CNhTO6iv+utIj0AdJ0NwbLjK6FtRxCWG8ykjlfqMM94aqb5zhMzNeyd/HiWOemxTA3GEgBlF/Kb1q8/uk0Jy1/bruxSilLPubM7/rn8O8dvd8d/L7+W/Jrya8vPkJ8lP1N+tvweTn9ypgZOKcGQHr5yyl5+z1eOyDM/s0FeAr0Ee9nJlssrkj5Yah7+ZKW2iho6Y40ZnbPOjC0oN58s3qgfDKS/aWl1k6m0r92WxhZtsUZNKRBeUbOWZC7osM4DIxlUhFeAjkLCmoQ26bYgh9JKqhrNssp6bSUmYzd7dbXWZU5bUWXSl1cZd9kmbWwvAXCKVa7ulfZMcpDtgwUVeo2oKMFZlN3Knd3xz+XfkV1lUf47+TXk1/p40Ub9teVnyM+Snyk/O9P+HiRw5q7ZYgrX15qlFfVaK7qhptlUNbToV/PshALhFTvIkQTOjuR+95v2Ra1hYPlHOS0MAADhRr4VYU30hTVOz4xvETg7fPc10YfB5R9lVwkAAMKNXB7BmugHbcaCzmibNeso+wKXMMD84TPpq5m1AQBCjpTAsCZ63jWasaCzOg8k7mKQ+UNpoQMAAOHmuRlrWBM9fyGBzVbQmZiD7Audy2DzvnJCWk6DAwBAeLnl1fmsid42V7MVdPru65UMNu8rzc3ltDYAAIQTaWMnbeBYE718m1baVQTLrmudNYFB5/3beQZPK2H2BgAIKdJK7ugHMlgTvesEAmVXkpz6HfuiNzHwvO3lw3JNcyt3lwMAhBG5NENuemM99KRNTs/E6QTKLu8+kHiawedt5YpOacIOAADhYnllg94Yx1ro1XIBm6GgG7gn4xj7BqxlEHrXg2KuXlnZ1s4NQAAAYeLBj1eYw3qy6+pR12qGgu7afY3fySD0tnKfu1x3CQAA4UCuMD5nQDZroGd3XW12gm5vnTWdwehtbx5dQO0rAEBISPpgqX7zxvrnSafTGssbh7fOs29GCwPS222zRuesY0YHAAg40iKR9lietUUzE3imddZgBqW3PXdAtllWWc/MDgAQULY0tpgbRhWw5nn3kNYQAqOX6JV1rBNxSxmc3vbP7y40dc3cugUAEEQeTyvWHt+sdx49pCVZCTzXOusWBqf3Ly4YlMHFBQAAQeODBRXaHpG1zrO7rrcQFL1KzJ3EIPV+71eZ5AAAIBjkldaYM56ayRrnVSUbgZdrX1NPtm9ULYPV237j0Rkms3gzMz4AgM+Rsww/HDqHtc271jr3xU8hIHr/8FaUwep9v9s/28xfX8vMDwDgU0qrm8x1L81jTfO2UYKhH7ht7CH2zcpnwHrfHwzJMUVldawAAAA+Y92WJnPLq/NZy7xtvpOScSjB0D+1r5faN62Vget9LxqcY/LX1rASAAD4hDWbG82vXyG4etxWzUJA71fsvBICamABALzPkvJ684sX81m7vO9ggqAvW2fNOsqJuMsYwP7w230zzaSiSlYGAACPkr262lzyLIezvN8Wy2YfyUDg1wDr/sS+ke0MZn/4lT7TzIisUrO1tZ1VAgDAQ0iLw9OfpB2WD2x3ImlXEQD9Xz4wgsHsH4/slW7uHrfYVNZtZbUAAOhmmlraTL+0YnP8I9NZo/zhCIJfELgn4xj7ZhYzoP3lNSPzzaxV1awcAADdxOqqRnPnmCJzWM8E65I/LNbMA0HZfU37OeUD/vPkx7PM8MxSVhAAgC5m4oIK871nslmL/FQuIFkHAlc+MJLB7T+PfiDD/N5+8pfWLAAA0LnUNbea2KRlegaBNchXjiToBZFeWcfaN3clA9x/HhRzzTkDss2YuWWmpY3DXAAAHU1be7txl20yVz8/1xyaTJmAz1ypGQeCenlB/AouL/Cvh9gJ9S/vLjJLK+pNKyEWAKBDkNuyHvlkpTm8ZzprjS8vI7DZBoJePhDvz2D3t994dIYZlrmGjgQAAAfA5oYWM25+uX6zxdriV22mgRCQMvZw+4YXMOD972VD52jvwSo7AQMAwN5R39xqZq6qNje+XMBa4m8LNNNASEhOPc++6U0M/GD4uzcXmIwVVdqPEAAAdk/Bulpz38SlehiW9cPXNmmWgZARcWMM/uD45T7TTI8JS3U3AQAAPktRWZ1JmbrSnNIvizUjGFfAxghyoSwfSDnYDoB0HoJgeaqdmCMfLDOZxZtZrQCA0GpD62Opxeb8gbNZI4JjumYYCOvua+JEJ+Zu5EEInqc9kaW9ChPLq1i9ACB05K+t0dB6wSBCa6CUzNIr4yQCHAH2Jm7fCvYtXf8cv8TklGxhNQOAwLO4vM70taGVDgJBvUUr/WaCG+xonzWchyLYfueJmebW1wrZiQWAQDJ/fa35x/uLzXf7Z5uDY1wyENC2WMMJbPBvekw5wom583gwgu+3UmaYK0fkmdE56+hOAAC+Z1JRpblhVAEHscLQFkuyCsBniKV+1w6OOh6QcPgfD2SY856ZbZInLTPLKutZAQHAN2yoaTZPJ1aZi4fkmOMemsacHnzrNKMA7Kb+9c88JOG7cvabKTPMnWOKzPvzy03D1ja94xsAwCvIlLS1tV3Lnv4+drE5/cmZ5rCelAaEqFzgLwQ02EP9qzuGByWcSp3YD4fOMYOnlZi5pTV6Cw0AQHfR2NJmFm2oMy9lrzXXj5qnH7aZq8Nm4i2CGeyZ5NT/sANmIQ9MuJVdjd++ucCMLyzXsgKCLAB0Bc2tbaakqtF8snij+Z9xSygLCLcLNZMA7EP9ay0PDopff3SGuXfCEpO2dJMGWQ56AUBHIqVKq21glctVHp260pzx1EzmXqx1kuLnEMhgX8sH7uDhwf/tmU/NMtEPl5m4DbJLK+p1lwQAYH8o3tSggVUuE5DDV8yx+O/LCBK/I4jBfgZY+r/irj28Z7q5aHCOXoDwYVGlKa1uYiUGgD1SWbdVD171nrzc/OewXPMlygLw844ggMH+kzL2cDuIcniQ8Is8ole6+dkLc02PCUvNy7PX6QELAIAdyIfbd+dt0NZ8N75cYL72yHTmTtydczR7ABwQ98VPsYOpkgcK97ZjgezI/vd7i8zAjBLdYaFGFiB8yJXUwzLXaL38FcPzzNEPZDBH4h5KBdyNTixxKsELOoak+DV2YLXycOG+evLjWeaakfl6CEN2XlZsbGBVBwggcnHAxAUVZkD6avObV+broStaW+E+2GrD67UELujgDgTxCA8X7q8HxVzz1Yenm7P7zzK3v7HAPJ9VarKKN5tN9VtZ9QF8iLTPk93VV+esN399b5E5f+Bs7UzC5QG4n0YJWtA5ROJv8IBhR11PKzd7SfcC6Sf7ml0ApVa2tol+sgBeRDqLrNzYoDfxyS1XElZP6JvJgSvsCN8kYEHn8fePjnai8TweNOxopR5Odmbl2kfZmZWDX0vKacUF0F3IdayrNjWasQXl5m82rH7vmWxz/CPTzTEPZmhtO/MWdtDVr3maLQA6lV4ZJznRRAUPHHb2DV+yO3vOgGxz3UvzTL+0Yi0z2NzQoldGysIq950DwIHR0tauhyrlW4/562v1kNUtr87XndUv95mmbfGk7Id5CTvh6lebJVJPJlhBF9W/Jq60A6+ZBw+7um72/zw5U+84l7Zcr+euN4V2sd1Yt1Xr7yTQAsAXB9WGrW2myn4IlNvypARA+q3KASvZWaVeFbvQZs0SAF1b/5q4m4cPvdBj9gdDtrXmkt3Zt+aWmXlra8za6ibqZyH0yIe6sppmrScfX1iunQCkddWVI/LMsQ/Sugq7tVzgfwhS0D1E48/yAKIXA+0lz87ROr0RWaVm6pKNJnfNFrO4vM5U1Dab1jZ2aCF4SOeO5ZUNJq+0xrjLNpnROevMfROXmp/YoHoch6rQS0bcoQQo6D5uG3uIDbAf8jCiH7obSGcD+Xr0wY9XaMnBtBVVJn9tjVlaUa9XVgL4gerGFu2XLN8wZBZvNu/N22AeSy02d7yxwHx/4GxO/6PXd1w/1OwA0K30mPIlOyALeSDRb8rXplJDK7u0EmqjHy4zI2etNR8v2qjBQE5aSz0ttbTQ1chhRKlLLalqNAvKak3a0k3aT1U+eElIvXxYrn4Ykw4dPMvoIwud3vHjCE7goQ4EbhkPJgZB+Yr13AHZeqWldDq4c0yReciGBmnfNWXxRj0kJl/REmrhQJESFtlJld3/uA2o0u9YdlH/+PZCc+PLBVqbesGg2dqiimcTfW65ZgUAT5Gc/kM7OOt5QDGoylWXcrGCfDX70xfmmhtGFegFC/eMX2KeTqzSUoSMFVVadygHZQAEaUMlO6gzV1Wbd/I3mIEZJeb+iUvNH94qMjePLjA//1e+Hjo88bFMrdfmWcMAWq8ZAcCbHQjit9tB2s6DimFUag1PfjzLnPfMbN21lVKEP72zUIOK7NwOnlai9YkSYqQkgW4I/kd6DktnizlrtpgJhRXaI/XhT1aayAfL9MrUW18r/HT39LQnssxX+kyjwT+GzXYn4v6WgATeJhaP8LAifr5H7ZG90rVG8aTHMrVe8cLBOeZnL8zVsoSkD5aaR2zokVZGL8wsNW/klWmXBDlQtmYzQbcrkT6o67Y0aa2pnNp/O3+D1kIPyigxfVOLTWzSMvNf9kPJL1+cZy4ekmPO7j9LP7TIV/tyUxzhFHEnY/EHCEbgkx3YxNM8tIh7rwQeaRAvAVc6I8hhMgm6UqYgXydLQLps6By9oEG+bpZLGqSv7fNZpVquIDu6k4oqtW5Sdnbnlm7roiC7glJTGaZrdqURv4R96W8qJRxy+G6WfU0Sy6vM5EWV2phfXjMJpFLuIQf1pMb0ptEF5sfD87TeWT5gfMu+9l+zgVR21OU9kfdGbpuS8hHGLOJe+RyBCHyEOcgO2jE8uIids4srAUrCrtRIHtU7XXf8JGDJvfMSfCVwycEzCb+n9svSa3Yl/F79/L9rdaUPrpQ09JmywjzlrjLPzVijh9LGzC3ThvZyOC3dBr4ZKzfr1bzZq6tNTskW/YpcwrGEwoJ1tXqATXYpi8rqPnXhhjptjC/K3+/8/8m/K/+N/Lfya8ivJX145deWnyE/a7r9mVI//In9PcjX8XL5hPQtHZ5ZavonVusutYTOf7y/WHeuJXjKLvaPnsvVsg3pInFC30y93lReC3lN5LWR10heK3nNdg6jXH+K2OGO0SwA4CtSxh7uRNwEDzAiImKoLiFIaAYA8CXSz40esIiIiPRyBfAN0tct4pbyQCMiIgZ6x7WUXq4QHJLi5zjRRAUPNyIiYhC1a3wk/XsEHggWMfdSO8CrecAREREDZTWXEEBwSU78zA7yBh50RETEQNioaztAoImm32wHeysPPCIioq9t1TUdICQlBL93uEYWERHRr8oa/gcCDYSLSOJeHn5EREQfGov3IMhASEsIEslMAoiIiH5qiRXvSYCBkO/Axh9mMkBERPRFcH2Y4AKgO7DxvkwKiIiIXi4VcB8jsAB8tgb2aSYHREREL+642jUaAHa1A+sOZpJARET0lIMJKAC7xRzkRNyhTBSIiIie8DldmwFgDwE25g5iwkBEROzWGtdBBFcAamARERF9YLw/QQRgf5CTjUwiiIiIdBUA8M8hrkQfJhNERMSu0K65ANARJQTxnkwoiIiIndkOi5uzADq6BvZe+3C1M8EgIiJ2qO1OLN6DoAHQKTWwibvsQ9bCRIOIiNgh2jU1/kcCBkCn1sCm32wftkYmHERExAOy0YnEf02wAOgKkuNX24euhokHERFxv5Q19KcECoAurYFNu8Q+eJVMQIiIiPvUCmuj9VKCBEB3kBQ/x4m4pUxGiIiIe+VaXTsBoBu5L36KfRgXMiEhIiJ+oQt1zQQAL5QQTP2qE01kMTEhIiLu0unOA5lfITAAeCrAzjrKPpwfMEEhIiJ+xrFOSsaRBAUAL3Lb2EOcaHw4ExUiIqIYf9ZJSTmYgADg+V1YN+ZwGxciIoZXuTUrQiAA8BMx91b78DYwgSEiYsiUywduJwgA+HIHNnGZfYjLmMgQETEklunaBwA+ZlsrrUImNEREDLiFtMICCAq9so51Yu4kJjZERAykEXeyrnUAECCkE0EkMYRJDhERgxVc7domaxwABLYO9m77sG9lwkNERJ+7Vdc0AAhDgE27yj705Ux8iIjoU8t1LQOAEBFNPdk+/HOZABER0WfO1TUMAEKIXJcXdd9kIkRERJ/4pl6HDgBh34V1o9YWJkVERPSorbpWAQD8O8Cm/dyJuRuZIBER0VPq2mTXKACAzxFLnGonilwmS0RE9Ii5TlLGaSzQALB7ekw5wom4LzJhIiJi95p4Sc9mAADsXRlB4k928qhn8kRExC62XtcgAIB9Jjn1PDuBLGYiRUTELtptXaxrDwDAfnNPxjF2QhnDhIqIiJ3sGF1zAAA6hIj7V8oIEBGxU8oEZI0BAOhwYqnftZNMARMtIiJ2kAW6tgAAdBp6K1dimJ1w2pl0ERFxP23XtYRuAgDQZUTTb+ZSA0RE3L9LB+waAgDQ5UQSJ9qJKJ3JGBER99J0XTsAALqvjCDlYCeaSLYTUhOTMiIi7sYmXStkzQAA8ATaE5bDXIiIuItDWfRuBQBv7sKOPdyJxvvbiaqVyRoRMfS26Zog144DAHiaWPwKO2kVM3EjIobWYl0LAAB8Q6+sY51o4iVaaiEihq0FljtK1wAAAF+SFL+GXVhExFC4Sud8AADfI3dVR90R2+qfmOAREYNX22rneJnrAQACRSxxpRONL2eiR0QMinZOl7kdACCwRGYdZSe8wezCIiL6frd1sM7pAADh2IV1L7UTXz4LACKi78zXORwAIHSkZBzqxOIROxHWshggInpemaujOncDAISaaOrJ9lP8JBYGRESPKnP0ffFTWLAAAHYmkrjFibilLBSIiB5R5mSZmwEAYDdIY+uYO8hOmi0sHIiI3WaLHsjisgEAgL0k5p5rP/EnWEAQEbt8tzWhczAAAOxXiL3VTqYlLCiIiJ1uic65AABwgGhv2PgTdmJtYHFBROxwG3SOpWcrAEBHh9iMM+wkO4GFBhGxw5ygcysAAHQiyfGrueAAEfEALxqQuRQAALqIlJSDnZj7e+phERH3sa416v5B51AAAOgGtB420YdbuhAR93Q7lp0rqWsFAPAISVNPsBPzC/SHRUT8X/1aY/F/6RwJAABe3InNOMOJue/YCbuNRQsRQ2ybzoU9085kYQAA8MVObNqFTsSdzAKGiOEz/rHOgQAA4ENi8SvsZJ7JYoaIITBT5zwAAAgAyfEb7MSey+KGiAHcac3TOQ4AAIKGOchO9Dda57DYIWIAnKNzmsxtAAAQcKLp1zuR+GwWP0T0oTk6hwEAQAiJuL+yC0E2iyEi+sBsJ5a4jokbAAAcJ+Ze60QTLosjInrOiJvQOQoAAODzO7Fpl9jFYhx9YhGx2/u0ylwUcy9lYgYAgD0Tdc+yjrI2sYgiYhfatH3uOYuJGAAA9p1ead92Yu4zdiGpZlFFxE60WucamXMAAAAOPMRmHetEEvc60fhyFllE7MAercudWLyHzjEAAAAdTkrKwTbE3sThLkQ8MO0cInOJzCkAAABdQiT+fbsIjbY2shAj4l7YqHNGsns+EygAAHQfPaZ83QbZnnZRWsHijIi7cIXOETJXAAAAeAb5+i8W/6VdqCZYW1mwEUNtq84FMidQGgAAAJ4nkjjRicb72sVrHYs4Yqhcp89+r4yTmAgBAMCHu7EZhzqR+K/tgvaBdSsLO2Ig3arPuDzr8swDAAAEguTUbzixeMQuckUs9oiBcJE+0/JsAwAABJok93In4r7I5QeIPrxMQJ5deYYBAABCR2TWUXYh/K1dED+irADRw2UBEXeyE0v8Tp9ZAAAAcLa33JJbvNyZ1nYCA2K32q7PojyTtLgCAADYA7HEqU400duJufMIEYhdqD5z9tlLyjiNiQgAAGB/iGSc4cTiDzjReB7hArFTLLCBtY9zf/rZTDgAAAAdiewGRd3o9tKCNkIH4n6XBOToDmvPtDOZWAAAALqCXmnftgvwP52YG7d/bSaQIH6hzduflX9ygQAAAEB30zt+nF2U73CiibfsXzcRVBDVTdufiTv0GQEAAAAPctvYQ5xY/Aq7YD/FgS8M54ErGfv2GZBnAQAAAHxG0tQTnGj8j3ZBf9NaRsDBgFm2bWzbMS5jHQAAAIKEOchJds93Im7MLvhTrfWEH/SZ9Tp2ZQzLWJYxDQAAACEhJeNIJzl+tRON97WBIN3aQDhCj9mwbWzaMSpjVcYsAAAAwLYwO/ZwJyntx07MfWj7zmwN4Qm72BodezIGZSzKmAQAAADYuzCbcagNEZc6sXgPGyjGWFcQrrCDXaFjS8ZYJHGZjjkAAACADkPueY+6NzqxRL/tfTOrCWC4l1brmJGxI2NIxhIAAABAl5KScrANImdt6zPrDrCmOdFEBUEt7OoYSNs+Ju7QMSJjBQAAAMCTRBInOtH0m52I+6j9+/H2r8tsgGkl1AXOFutS6zh9r/U9t+89AAAAgP8D7ayjnFj6xdv6zsb728AzYXvwaSEEet6t1kUaUmPuY7qbKq2qOFAFAAAAoUMC0P3pZzuRxE3be9COdKIJ1/61mGDbxQFVdsgj7hT7+g/bdlAv/Xp9b/6edxgDFQAAAGBPSGjqmTjdibnX2nD7ZxuqUmzIenl7K6+FXLSwTzY60fhy+xpOs3//uvVxG1T/6iTFr9HXmJP+AAAAAF1AZOpX9SvsWOK6bSUJiWQbzAY7kfgb229jmm//uj6gu7gt+mfb9mecuv3PLH/2nvpayGuir03G8QwUAAAAAL/RO36cDXSnOtH0C/TGppj7Gxt2/2RN0lucIokhNgi+aAPgm9ax9p+l2v+dsH/Ns/+70LpyezlD1S5s2U243NW/W7z91yrUX3vbz0jd9jPdMfp7kN+L3n4mvzf7e5Tfq/yek9Iu1D+D/FkAAELE/we3+wbI7vpyMgAAAABJRU5ErkJggg==" vertex="1" parent="1">
          <mxGeometry x="960" y="1310" width="187" height="187" as="geometry" />
        </mxCell>
        <mxCell id="UInGQhhdpgO1K5RLCYIn-41" value="delete" style="text;html=1;align=center;verticalAlign=middle;resizable=0;points=[];autosize=1;" vertex="1" parent="1">
          <mxGeometry x="465" y="1517" width="50" height="20" as="geometry" />
        </mxCell>
        <mxCell id="UInGQhhdpgO1K5RLCYIn-44" style="edgeStyle=orthogonalEdgeStyle;rounded=0;orthogonalLoop=1;jettySize=auto;html=1;exitX=1;exitY=0.75;exitDx=0;exitDy=0;entryX=0.999;entryY=0.667;entryDx=0;entryDy=0;entryPerimeter=0;" edge="1" parent="1" source="UInGQhhdpgO1K5RLCYIn-43" target="UInGQhhdpgO1K5RLCYIn-38">
          <mxGeometry relative="1" as="geometry" />
        </mxCell>
        <mxCell id="UInGQhhdpgO1K5RLCYIn-43" value="" style="rounded=1;whiteSpace=wrap;html=1;strokeWidth=2;fillWeight=4;hachureGap=8;hachureAngle=45;fillColor=#1ba1e2;sketch=1;" vertex="1" parent="1">
          <mxGeometry x="810" y="1250" width="130" height="90" as="geometry" />
        </mxCell>
        <mxCell id="UInGQhhdpgO1K5RLCYIn-42" value="EC2.conf" style="shape=internalStorage;whiteSpace=wrap;html=1;backgroundOutline=1;" vertex="1" parent="1">
          <mxGeometry x="890" y="1210" width="100" height="107" as="geometry" />
        </mxCell>
        <mxCell id="UInGQhhdpgO1K5RLCYIn-45" value="LB.conf" style="shape=internalStorage;whiteSpace=wrap;html=1;backgroundOutline=1;" vertex="1" parent="1">
          <mxGeometry x="991.5" y="1210" width="100" height="107" as="geometry" />
        </mxCell>
      </root>
    </mxGraphModel>
  </diagram>
</mxfile>
